M48
; DRILL file {KiCad (5.1.2)-1} date 10/23/2019 16:57:51
; FORMAT={-:-/ absolute / inch / decimal}
; #@! TF.CreationDate,2019-10-23T16:57:51-07:00
; #@! TF.GenerationSoftware,Kicad,Pcbnew,(5.1.2)-1
; #@! TF.FileFunction,Plated,1,2,PTH
FMAT,2
INCH
T1C0.0157
T2C0.0315
T3C0.0354
T4C0.0394
%
G90
G05
T1
X3.5Y-2.0
X3.5Y-2.15
X3.5Y-2.35
X3.5Y-2.55
X3.5Y-2.65
X3.5Y-2.75
X3.55Y-2.2
X3.55Y-3.1
X3.6Y-1.8
X3.6Y-2.5
X3.65Y-2.0
X3.65Y-2.3
X3.7Y-1.7
X3.7Y-1.9
X3.7Y-2.55
X3.7Y-2.65
X3.75Y-2.2
X3.75Y-2.35
X3.75Y-2.8
X3.9Y-1.65
X3.95Y-1.85
X4.0Y-2.15
X4.0Y-2.25
X4.0Y-2.35
X4.0Y-2.45
X4.15Y-2.05
X4.2Y-1.5
X4.2Y-2.85
X4.2Y-2.95
X4.2Y-3.05
X4.2Y-3.15
X4.2Y-3.3
X4.2Y-3.4
X4.25Y-1.95
X4.3Y-1.65
X4.3Y-2.6
X4.3Y-3.25
X4.55Y-2.9
X4.55Y-3.2
X4.6Y-2.85
X4.65Y-2.1
X4.65Y-2.65
X4.65Y-2.8
X4.65Y-3.1
X4.65Y-3.2
X4.7Y-3.05
X4.75Y-2.95
X4.75Y-3.25
X4.75Y-3.45
X4.9Y-1.85
X4.95Y-3.4
X5.0Y-1.75
T2
X3.85Y-1.95
X3.85Y-2.05
X3.85Y-2.15
X3.85Y-2.25
X3.85Y-2.35
X3.85Y-2.45
X3.85Y-2.55
X3.85Y-2.65
X3.85Y-2.75
X3.85Y-2.85
X3.85Y-2.95
X3.85Y-3.05
X3.85Y-3.15
X3.85Y-3.25
X3.85Y-3.35
X3.85Y-3.45
X4.45Y-1.95
X4.45Y-2.05
X4.45Y-2.15
X4.45Y-2.25
X4.45Y-2.35
X4.45Y-2.45
X4.45Y-2.55
X4.45Y-2.65
X4.45Y-2.75
X4.45Y-2.85
X4.45Y-2.95
X4.45Y-3.05
X4.45Y-3.15
X4.45Y-3.25
X4.45Y-3.35
X4.45Y-3.45
X4.65Y-1.15
X4.65Y-1.75
X4.35Y-1.15
X4.35Y-1.75
X4.8Y-1.6516
X4.8Y-1.75
X4.5Y-1.15
X4.5Y-1.75
X3.8Y-1.3
X4.1Y-1.3
T3
X4.0Y-1.55
X4.1Y-1.55
T4
X3.55Y-1.35
X3.55Y-1.45
X3.55Y-1.55
X4.8524Y-2.05
X4.8524Y-2.15
X4.8524Y-2.25
X4.8524Y-2.35
X4.8524Y-2.45
X4.8524Y-2.55
X4.8524Y-2.65
X4.8524Y-2.75
X4.8524Y-2.85
X4.8524Y-2.95
X4.8524Y-3.05
X4.8524Y-3.15
X4.9524Y-2.05
X4.9524Y-2.15
X4.9524Y-2.25
X4.9524Y-2.35
X4.9524Y-2.45
X4.9524Y-2.55
X4.9524Y-2.65
X4.9524Y-2.75
X4.9524Y-2.85
X4.9524Y-2.95
X4.9524Y-3.05
X4.9524Y-3.15
X3.3Y-1.35
X3.3Y-1.45
X3.3Y-1.7
X3.3Y-1.8
X3.272Y-2.05
X3.272Y-2.15
X3.272Y-2.25
X3.272Y-2.35
X3.272Y-2.45
X3.272Y-2.55
X3.272Y-2.65
X3.272Y-2.75
X3.272Y-2.85
X3.272Y-2.95
X3.272Y-3.05
X3.272Y-3.15
X3.372Y-2.05
X3.372Y-2.15
X3.372Y-2.25
X3.372Y-2.35
X3.372Y-2.45
X3.372Y-2.55
X3.372Y-2.65
X3.372Y-2.75
X3.372Y-2.85
X3.372Y-2.95
X3.372Y-3.05
X3.372Y-3.15
T0
M30
