G04 #@! TF.GenerationSoftware,KiCad,Pcbnew,(5.1.2)-1*
G04 #@! TF.CreationDate,2019-10-23T16:56:50-07:00*
G04 #@! TF.ProjectId,29Fx00-28Fx00,32394678-3030-42d3-9238-467830302e6b,rev?*
G04 #@! TF.SameCoordinates,Original*
G04 #@! TF.FileFunction,Copper,L2,Bot*
G04 #@! TF.FilePolarity,Positive*
%FSLAX46Y46*%
G04 Gerber Fmt 4.6, Leading zero omitted, Abs format (unit mm)*
G04 Created by KiCad (PCBNEW (5.1.2)-1) date 2019-10-23 16:56:50*
%MOMM*%
%LPD*%
G04 APERTURE LIST*
%ADD10O,1.700000X1.700000*%
%ADD11R,1.700000X1.700000*%
%ADD12O,2.400000X1.600000*%
%ADD13R,2.400000X1.600000*%
%ADD14O,1.600000X1.600000*%
%ADD15C,1.600000*%
%ADD16C,1.800000*%
%ADD17R,1.800000X1.800000*%
%ADD18R,1.600000X1.600000*%
%ADD19C,0.800000*%
%ADD20C,0.250000*%
%ADD21C,0.400000*%
%ADD22C,0.254000*%
G04 APERTURE END LIST*
D10*
X125790000Y-80010000D03*
X123250000Y-80010000D03*
X125790000Y-77470000D03*
X123250000Y-77470000D03*
X125790000Y-74930000D03*
X123250000Y-74930000D03*
X125790000Y-72390000D03*
X123250000Y-72390000D03*
X125790000Y-69850000D03*
X123250000Y-69850000D03*
X125790000Y-67310000D03*
X123250000Y-67310000D03*
X125790000Y-64770000D03*
X123250000Y-64770000D03*
X125790000Y-62230000D03*
X123250000Y-62230000D03*
X125790000Y-59690000D03*
X123250000Y-59690000D03*
X125790000Y-57150000D03*
X123250000Y-57150000D03*
X125790000Y-54610000D03*
X123250000Y-54610000D03*
X125790000Y-52070000D03*
D11*
X123250000Y-52070000D03*
D12*
X113030000Y-49530000D03*
X97790000Y-87630000D03*
X113030000Y-52070000D03*
X97790000Y-85090000D03*
X113030000Y-54610000D03*
X97790000Y-82550000D03*
X113030000Y-57150000D03*
X97790000Y-80010000D03*
X113030000Y-59690000D03*
X97790000Y-77470000D03*
X113030000Y-62230000D03*
X97790000Y-74930000D03*
X113030000Y-64770000D03*
X97790000Y-72390000D03*
X113030000Y-67310000D03*
X97790000Y-69850000D03*
X113030000Y-69850000D03*
X97790000Y-67310000D03*
X113030000Y-72390000D03*
X97790000Y-64770000D03*
X113030000Y-74930000D03*
X97790000Y-62230000D03*
X113030000Y-77470000D03*
X97790000Y-59690000D03*
X113030000Y-80010000D03*
X97790000Y-57150000D03*
X113030000Y-82550000D03*
X97790000Y-54610000D03*
X113030000Y-85090000D03*
X97790000Y-52070000D03*
X113030000Y-87630000D03*
D13*
X97790000Y-49530000D03*
D14*
X110490000Y-29210000D03*
D15*
X110490000Y-44450000D03*
D14*
X118110000Y-29210000D03*
D15*
X118110000Y-44450000D03*
D14*
X114300000Y-29210000D03*
D15*
X114300000Y-44450000D03*
D10*
X90170000Y-39370000D03*
X90170000Y-36830000D03*
D11*
X90170000Y-34290000D03*
D10*
X83820000Y-36830000D03*
D11*
X83820000Y-34290000D03*
D10*
X83820000Y-45720000D03*
D11*
X83820000Y-43180000D03*
D10*
X85650000Y-80010000D03*
X83110000Y-80010000D03*
X85650000Y-77470000D03*
X83110000Y-77470000D03*
X85650000Y-74930000D03*
X83110000Y-74930000D03*
X85650000Y-72390000D03*
X83110000Y-72390000D03*
X85650000Y-69850000D03*
X83110000Y-69850000D03*
X85650000Y-67310000D03*
X83110000Y-67310000D03*
X85650000Y-64770000D03*
X83110000Y-64770000D03*
X85650000Y-62230000D03*
X83110000Y-62230000D03*
X85650000Y-59690000D03*
X83110000Y-59690000D03*
X85650000Y-57150000D03*
X83110000Y-57150000D03*
X85650000Y-54610000D03*
X83110000Y-54610000D03*
X85650000Y-52070000D03*
D11*
X83110000Y-52070000D03*
D16*
X101600000Y-39370000D03*
D17*
X104140000Y-39370000D03*
D14*
X96520000Y-33020000D03*
D18*
X104140000Y-33020000D03*
D15*
X121920000Y-44450000D03*
X121920000Y-41950000D03*
D19*
X88900000Y-64770000D03*
X88900000Y-69850000D03*
X93980000Y-43180000D03*
X118110000Y-71120000D03*
X106680000Y-72390000D03*
X99060000Y-41910000D03*
X100330000Y-46990000D03*
X106680000Y-38100000D03*
X109220000Y-41910000D03*
X124460000Y-46990000D03*
X127000000Y-44450000D03*
X105410000Y-52070000D03*
X101600000Y-54610000D03*
X120650000Y-82550000D03*
X120650000Y-87630000D03*
X107950000Y-49530000D03*
X106680000Y-74930000D03*
X106680000Y-77470000D03*
X106680000Y-80010000D03*
X109220000Y-82550000D03*
X118110000Y-67310000D03*
X115570000Y-73660000D03*
X118110000Y-81280000D03*
X91440000Y-45720000D03*
X101600000Y-57150000D03*
X88900000Y-54610000D03*
X109220000Y-66040000D03*
X101600000Y-62230000D03*
X88900000Y-67310000D03*
X101600000Y-59690000D03*
X93980000Y-67310000D03*
X90170000Y-78740000D03*
X93980000Y-48260000D03*
X92710000Y-50800000D03*
X88900000Y-50800000D03*
X95250000Y-71120000D03*
X120650000Y-74930000D03*
X119380000Y-77470000D03*
X106680000Y-86360000D03*
X118110000Y-53340000D03*
X95250000Y-55880000D03*
X95250000Y-59690000D03*
X88900000Y-59690000D03*
X115570000Y-81280000D03*
X118110000Y-78740000D03*
X125730000Y-86360000D03*
X106680000Y-83820000D03*
X91440000Y-63500000D03*
X92710000Y-58420000D03*
X116840000Y-72390000D03*
X93980000Y-64770000D03*
X90170000Y-55880000D03*
D20*
X123250000Y-80010000D02*
X125790000Y-77470000D01*
X93980000Y-43180000D02*
X91440000Y-45720000D01*
X93980000Y-48260000D02*
X95250000Y-46990000D01*
X95250000Y-46990000D02*
X100330000Y-46990000D01*
X101600000Y-62230000D02*
X101600000Y-59690000D01*
X101600000Y-59690000D02*
X101600000Y-57150000D01*
X101600000Y-57150000D02*
X101600000Y-54610000D01*
X105410000Y-62230000D02*
X101600000Y-62230000D01*
X109220000Y-66040000D02*
X105410000Y-62230000D01*
X119380000Y-80010000D02*
X119380000Y-77470000D01*
X118110000Y-81280000D02*
X119380000Y-80010000D01*
X116840000Y-74930000D02*
X115570000Y-73660000D01*
X120650000Y-74930000D02*
X116840000Y-74930000D01*
X93980000Y-69850000D02*
X95250000Y-71120000D01*
X93980000Y-67310000D02*
X93980000Y-69850000D01*
X90170000Y-76200000D02*
X95250000Y-71120000D01*
X90170000Y-78740000D02*
X90170000Y-76200000D01*
X88900000Y-64770000D02*
X88900000Y-59690000D01*
X95250000Y-59690000D02*
X95250000Y-55880000D01*
X92710000Y-49530000D02*
X93980000Y-48260000D01*
X92710000Y-50800000D02*
X92710000Y-49530000D01*
X88900000Y-54610000D02*
X88900000Y-50800000D01*
X101200001Y-59290001D02*
X101600000Y-59690000D01*
X100330000Y-58420000D02*
X101200001Y-59290001D01*
X96520000Y-58420000D02*
X100330000Y-58420000D01*
X95250000Y-59690000D02*
X96520000Y-58420000D01*
X102870000Y-49530000D02*
X100330000Y-46990000D01*
X107950000Y-49530000D02*
X102870000Y-49530000D01*
X95250000Y-41910000D02*
X93980000Y-43180000D01*
X99060000Y-41910000D02*
X95250000Y-41910000D01*
X88900000Y-48260000D02*
X88900000Y-50800000D01*
X91440000Y-45720000D02*
X88900000Y-48260000D01*
X118110000Y-53340000D02*
X124460000Y-46990000D01*
X118110000Y-67310000D02*
X118110000Y-53340000D01*
X119380000Y-82550000D02*
X118110000Y-81280000D01*
X120650000Y-82550000D02*
X119380000Y-82550000D01*
X88900000Y-67310000D02*
X88900000Y-64770000D01*
D21*
X127000000Y-47030000D02*
X121920000Y-41950000D01*
X127040001Y-47070001D02*
X127000000Y-47030000D01*
X125790000Y-64770000D02*
X127040001Y-63519999D01*
X127040001Y-63519999D02*
X127040001Y-47070001D01*
D20*
X110454990Y-50944990D02*
X111580000Y-52070000D01*
X96924006Y-50944990D02*
X110454990Y-50944990D01*
X91984999Y-55883997D02*
X96924006Y-50944990D01*
X90539981Y-63327017D02*
X91984999Y-61881999D01*
X90539981Y-66699021D02*
X90539981Y-63327017D01*
X86214001Y-71025001D02*
X90539981Y-66699021D01*
X84474999Y-71025001D02*
X86214001Y-71025001D01*
X111580000Y-52070000D02*
X113030000Y-52070000D01*
X83110000Y-72390000D02*
X84474999Y-71025001D01*
X91984999Y-61881999D02*
X91984999Y-55883997D01*
X98190000Y-85090000D02*
X102000000Y-81280000D01*
X97790000Y-85090000D02*
X98190000Y-85090000D01*
X102000000Y-81280000D02*
X115570000Y-81280000D01*
X115570000Y-81280000D02*
X115570000Y-81280000D01*
X98190000Y-82550000D02*
X102000000Y-78740000D01*
X97790000Y-82550000D02*
X98190000Y-82550000D01*
X102000000Y-78740000D02*
X118110000Y-78740000D01*
X118110000Y-78740000D02*
X118110000Y-78740000D01*
X124940001Y-75779999D02*
X125790000Y-74930000D01*
X124614999Y-76105001D02*
X124940001Y-75779999D01*
X102094999Y-76105001D02*
X124614999Y-76105001D01*
X98190000Y-80010000D02*
X102094999Y-76105001D01*
X97790000Y-80010000D02*
X98190000Y-80010000D01*
X124940001Y-55459999D02*
X125790000Y-54610000D01*
X124614999Y-55785001D02*
X124940001Y-55459999D01*
X122875997Y-55785001D02*
X124614999Y-55785001D01*
X122074999Y-56585999D02*
X122875997Y-55785001D01*
X122074999Y-65336005D02*
X122074999Y-56585999D01*
X113895994Y-73515010D02*
X122074999Y-65336005D01*
X103194990Y-73515010D02*
X113895994Y-73515010D01*
X99240000Y-77470000D02*
X103194990Y-73515010D01*
X97790000Y-77470000D02*
X99240000Y-77470000D01*
X112630000Y-62230000D02*
X103884990Y-53484990D01*
X113030000Y-62230000D02*
X112630000Y-62230000D01*
X103884990Y-53484990D02*
X95105010Y-53484990D01*
X95105010Y-53484990D02*
X93435001Y-55154999D01*
X89292592Y-72390000D02*
X88900000Y-72390000D01*
X90989991Y-65453599D02*
X90989990Y-70692602D01*
X90989990Y-70692602D02*
X89292592Y-72390000D01*
X93435001Y-55154999D02*
X93435001Y-63008589D01*
X88900000Y-72390000D02*
X85650000Y-72390000D01*
X93435001Y-63008589D02*
X90989991Y-65453599D01*
X109220000Y-86360000D02*
X106680000Y-83820000D01*
X125730000Y-86360000D02*
X109220000Y-86360000D01*
X92710000Y-62230000D02*
X92710000Y-59690000D01*
X92710000Y-59690000D02*
X92710000Y-59690000D01*
X92710000Y-62230000D02*
X91440000Y-63500000D01*
X92710000Y-59690000D02*
X92710000Y-58420000D01*
X118015001Y-73565001D02*
X117239999Y-72789999D01*
X126164003Y-73565001D02*
X118015001Y-73565001D01*
X126965001Y-74365999D02*
X126164003Y-73565001D01*
X126354001Y-76105001D02*
X126965001Y-75494001D01*
X125415997Y-76105001D02*
X126354001Y-76105001D01*
X124900997Y-76620001D02*
X125415997Y-76105001D01*
X117239999Y-72789999D02*
X116840000Y-72390000D01*
X124099999Y-76620001D02*
X124900997Y-76620001D01*
X126965001Y-75494001D02*
X126965001Y-74365999D01*
X123250000Y-77470000D02*
X124099999Y-76620001D01*
X112630000Y-72390000D02*
X113030000Y-72390000D01*
X103884990Y-63644990D02*
X112630000Y-72390000D01*
X95105010Y-63644990D02*
X103884990Y-63644990D01*
X93980000Y-64770000D02*
X95105010Y-63644990D01*
X83110000Y-77470000D02*
X84285001Y-76294999D01*
X84285001Y-76294999D02*
X86024003Y-76294999D01*
X86024003Y-76294999D02*
X86938992Y-75380010D01*
X86938992Y-75380010D02*
X88211813Y-75380009D01*
X88211813Y-75380009D02*
X92340019Y-71251803D01*
X92340019Y-71251803D02*
X92340019Y-66409981D01*
X93254999Y-65495001D02*
X92710000Y-66040000D01*
X94524999Y-65495001D02*
X93254999Y-65495001D01*
X95250000Y-64770000D02*
X94524999Y-65495001D01*
X97790000Y-64770000D02*
X95250000Y-64770000D01*
X92340019Y-66409981D02*
X92710000Y-66040000D01*
X88025412Y-74930000D02*
X85650000Y-74930000D01*
X91890010Y-71065402D02*
X88025412Y-74930000D01*
X91890010Y-65826400D02*
X91890010Y-71065402D01*
X97790000Y-62230000D02*
X95486410Y-62230000D01*
X95486410Y-62230000D02*
X91890010Y-65826400D01*
X97390000Y-59690000D02*
X91440000Y-65640000D01*
X97790000Y-59690000D02*
X97390000Y-59690000D01*
X83959999Y-74080001D02*
X83110000Y-74930000D01*
X84285001Y-73754999D02*
X83959999Y-74080001D01*
X88564003Y-73754999D02*
X84285001Y-73754999D01*
X91440000Y-70879002D02*
X88564003Y-73754999D01*
X91440000Y-65640000D02*
X91440000Y-70879002D01*
X84380000Y-55880000D02*
X83110000Y-57150000D01*
X90170000Y-55880000D02*
X84380000Y-55880000D01*
X124099999Y-65619999D02*
X123250000Y-64770000D01*
X122449002Y-85090000D02*
X128270000Y-79269002D01*
X113030000Y-85090000D02*
X122449002Y-85090000D01*
X128270000Y-79269002D02*
X128270000Y-68050998D01*
X128270000Y-68050998D02*
X126164003Y-65945001D01*
X126164003Y-65945001D02*
X124425001Y-65945001D01*
X124425001Y-65945001D02*
X124099999Y-65619999D01*
X82720000Y-43180000D02*
X83820000Y-43180000D01*
X81934999Y-43965001D02*
X82720000Y-43180000D01*
X81934999Y-65334001D02*
X81934999Y-43965001D01*
X82545999Y-65945001D02*
X81934999Y-65334001D01*
X83484003Y-65945001D02*
X82545999Y-65945001D01*
X84474999Y-66935997D02*
X83484003Y-65945001D01*
X84474999Y-68674999D02*
X84474999Y-66935997D01*
X85650000Y-69850000D02*
X84474999Y-68674999D01*
X116840000Y-29210000D02*
X118110000Y-29210000D01*
X115570000Y-30480000D02*
X116840000Y-29210000D01*
X103056401Y-44900009D02*
X115570000Y-32386410D01*
X95436400Y-44900010D02*
X103056401Y-44900009D01*
X91440000Y-57150000D02*
X91440000Y-48896410D01*
X86825001Y-66134999D02*
X86825001Y-64304999D01*
X91440000Y-48896410D02*
X95436400Y-44900010D01*
X86825001Y-64304999D02*
X87630000Y-63500000D01*
X115570000Y-32386410D02*
X115570000Y-30480000D01*
X87630000Y-63500000D02*
X87630000Y-57786410D01*
X87630000Y-57786410D02*
X88266410Y-57150000D01*
X85650000Y-67310000D02*
X86825001Y-66134999D01*
X88266410Y-57150000D02*
X91440000Y-57150000D01*
D21*
X82260001Y-66460001D02*
X83110000Y-67310000D01*
X81280000Y-65480000D02*
X82260001Y-66460001D01*
X81280000Y-39370000D02*
X81280000Y-65480000D01*
X83820000Y-36830000D02*
X81280000Y-39370000D01*
D20*
X114300000Y-33020000D02*
X102870000Y-44450000D01*
X114300000Y-29210000D02*
X114300000Y-33020000D01*
X102870000Y-44450000D02*
X95250000Y-44450000D01*
X95250000Y-44450000D02*
X90895001Y-48804999D01*
X90895001Y-56605001D02*
X88174999Y-56605001D01*
X90895001Y-48804999D02*
X90895001Y-56605001D01*
X87179990Y-57600010D02*
X87630000Y-57150000D01*
X88174999Y-56605001D02*
X87630000Y-57150000D01*
X85650000Y-64770000D02*
X86825001Y-63594999D01*
X86825001Y-63594999D02*
X86898591Y-63594999D01*
X86898591Y-63594999D02*
X87179990Y-63313600D01*
X87179990Y-63313600D02*
X87179990Y-57600010D01*
D22*
G36*
X96191068Y-65571101D02*
G01*
X96370392Y-65789608D01*
X96588899Y-65968932D01*
X96721858Y-66040000D01*
X96588899Y-66111068D01*
X96370392Y-66290392D01*
X96191068Y-66508899D01*
X96057818Y-66758192D01*
X95975764Y-67028691D01*
X95948057Y-67310000D01*
X95975764Y-67591309D01*
X96057818Y-67861808D01*
X96191068Y-68111101D01*
X96370392Y-68329608D01*
X96588899Y-68508932D01*
X96721858Y-68580000D01*
X96588899Y-68651068D01*
X96370392Y-68830392D01*
X96191068Y-69048899D01*
X96057818Y-69298192D01*
X95975764Y-69568691D01*
X95948057Y-69850000D01*
X95975764Y-70131309D01*
X96057818Y-70401808D01*
X96191068Y-70651101D01*
X96370392Y-70869608D01*
X96588899Y-71048932D01*
X96721858Y-71120000D01*
X96588899Y-71191068D01*
X96370392Y-71370392D01*
X96191068Y-71588899D01*
X96057818Y-71838192D01*
X95975764Y-72108691D01*
X95948057Y-72390000D01*
X95975764Y-72671309D01*
X96057818Y-72941808D01*
X96191068Y-73191101D01*
X96370392Y-73409608D01*
X96588899Y-73588932D01*
X96721858Y-73660000D01*
X96588899Y-73731068D01*
X96370392Y-73910392D01*
X96191068Y-74128899D01*
X96057818Y-74378192D01*
X95975764Y-74648691D01*
X95948057Y-74930000D01*
X95975764Y-75211309D01*
X96057818Y-75481808D01*
X96191068Y-75731101D01*
X96370392Y-75949608D01*
X96588899Y-76128932D01*
X96721858Y-76200000D01*
X96588899Y-76271068D01*
X96370392Y-76450392D01*
X96191068Y-76668899D01*
X96057818Y-76918192D01*
X95975764Y-77188691D01*
X95948057Y-77470000D01*
X95975764Y-77751309D01*
X96057818Y-78021808D01*
X96191068Y-78271101D01*
X96370392Y-78489608D01*
X96588899Y-78668932D01*
X96721858Y-78740000D01*
X96588899Y-78811068D01*
X96370392Y-78990392D01*
X96191068Y-79208899D01*
X96057818Y-79458192D01*
X95975764Y-79728691D01*
X95948057Y-80010000D01*
X95975764Y-80291309D01*
X96057818Y-80561808D01*
X96191068Y-80811101D01*
X96370392Y-81029608D01*
X96588899Y-81208932D01*
X96721858Y-81280000D01*
X96588899Y-81351068D01*
X96370392Y-81530392D01*
X96191068Y-81748899D01*
X96057818Y-81998192D01*
X95975764Y-82268691D01*
X95948057Y-82550000D01*
X95975764Y-82831309D01*
X96057818Y-83101808D01*
X96191068Y-83351101D01*
X96370392Y-83569608D01*
X96588899Y-83748932D01*
X96721858Y-83820000D01*
X96588899Y-83891068D01*
X96370392Y-84070392D01*
X96191068Y-84288899D01*
X96057818Y-84538192D01*
X95975764Y-84808691D01*
X95948057Y-85090000D01*
X95975764Y-85371309D01*
X96057818Y-85641808D01*
X96191068Y-85891101D01*
X96370392Y-86109608D01*
X96588899Y-86288932D01*
X96716741Y-86357265D01*
X96487161Y-86507399D01*
X96285500Y-86705105D01*
X96126285Y-86938354D01*
X96015633Y-87198182D01*
X95998096Y-87280961D01*
X96120085Y-87503000D01*
X97663000Y-87503000D01*
X97663000Y-87483000D01*
X97917000Y-87483000D01*
X97917000Y-87503000D01*
X99459915Y-87503000D01*
X99581904Y-87280961D01*
X99564367Y-87198182D01*
X99453715Y-86938354D01*
X99294500Y-86705105D01*
X99092839Y-86507399D01*
X98863259Y-86357265D01*
X98991101Y-86288932D01*
X99209608Y-86109608D01*
X99388932Y-85891101D01*
X99522182Y-85641808D01*
X99604236Y-85371309D01*
X99631943Y-85090000D01*
X99604236Y-84808691D01*
X99590708Y-84764094D01*
X102314802Y-82040000D01*
X111285136Y-82040000D01*
X111215764Y-82268691D01*
X111188057Y-82550000D01*
X111215764Y-82831309D01*
X111297818Y-83101808D01*
X111431068Y-83351101D01*
X111610392Y-83569608D01*
X111828899Y-83748932D01*
X111961858Y-83820000D01*
X111828899Y-83891068D01*
X111610392Y-84070392D01*
X111431068Y-84288899D01*
X111297818Y-84538192D01*
X111215764Y-84808691D01*
X111188057Y-85090000D01*
X111215764Y-85371309D01*
X111285136Y-85600000D01*
X109534803Y-85600000D01*
X107715000Y-83780199D01*
X107715000Y-83718061D01*
X107675226Y-83518102D01*
X107597205Y-83329744D01*
X107483937Y-83160226D01*
X107339774Y-83016063D01*
X107170256Y-82902795D01*
X106981898Y-82824774D01*
X106781939Y-82785000D01*
X106578061Y-82785000D01*
X106378102Y-82824774D01*
X106189744Y-82902795D01*
X106020226Y-83016063D01*
X105876063Y-83160226D01*
X105762795Y-83329744D01*
X105684774Y-83518102D01*
X105645000Y-83718061D01*
X105645000Y-83921939D01*
X105684774Y-84121898D01*
X105762795Y-84310256D01*
X105876063Y-84479774D01*
X106020226Y-84623937D01*
X106189744Y-84737205D01*
X106378102Y-84815226D01*
X106578061Y-84855000D01*
X106640199Y-84855000D01*
X108656205Y-86871008D01*
X108679999Y-86900001D01*
X108708992Y-86923795D01*
X108708996Y-86923799D01*
X108726732Y-86938354D01*
X108795724Y-86994974D01*
X108927753Y-87065546D01*
X109071014Y-87109003D01*
X109182667Y-87120000D01*
X109182676Y-87120000D01*
X109219999Y-87123676D01*
X109257322Y-87120000D01*
X111285136Y-87120000D01*
X111215764Y-87348691D01*
X111188057Y-87630000D01*
X111215764Y-87911309D01*
X111297818Y-88181808D01*
X111315560Y-88215000D01*
X99499132Y-88215000D01*
X99564367Y-88061818D01*
X99581904Y-87979039D01*
X99459915Y-87757000D01*
X97917000Y-87757000D01*
X97917000Y-87777000D01*
X97663000Y-87777000D01*
X97663000Y-87757000D01*
X96120085Y-87757000D01*
X95998096Y-87979039D01*
X96015633Y-88061818D01*
X96080868Y-88215000D01*
X80695000Y-88215000D01*
X80695000Y-66080094D01*
X80718574Y-66099441D01*
X81645728Y-67026597D01*
X81617815Y-67310000D01*
X81646487Y-67601111D01*
X81731401Y-67881034D01*
X81869294Y-68139014D01*
X82054866Y-68365134D01*
X82280986Y-68550706D01*
X82335791Y-68580000D01*
X82280986Y-68609294D01*
X82054866Y-68794866D01*
X81869294Y-69020986D01*
X81731401Y-69278966D01*
X81646487Y-69558889D01*
X81617815Y-69850000D01*
X81646487Y-70141111D01*
X81731401Y-70421034D01*
X81869294Y-70679014D01*
X82054866Y-70905134D01*
X82280986Y-71090706D01*
X82335791Y-71120000D01*
X82280986Y-71149294D01*
X82054866Y-71334866D01*
X81869294Y-71560986D01*
X81731401Y-71818966D01*
X81646487Y-72098889D01*
X81617815Y-72390000D01*
X81646487Y-72681111D01*
X81731401Y-72961034D01*
X81869294Y-73219014D01*
X82054866Y-73445134D01*
X82280986Y-73630706D01*
X82335791Y-73660000D01*
X82280986Y-73689294D01*
X82054866Y-73874866D01*
X81869294Y-74100986D01*
X81731401Y-74358966D01*
X81646487Y-74638889D01*
X81617815Y-74930000D01*
X81646487Y-75221111D01*
X81731401Y-75501034D01*
X81869294Y-75759014D01*
X82054866Y-75985134D01*
X82280986Y-76170706D01*
X82335791Y-76200000D01*
X82280986Y-76229294D01*
X82054866Y-76414866D01*
X81869294Y-76640986D01*
X81731401Y-76898966D01*
X81646487Y-77178889D01*
X81617815Y-77470000D01*
X81646487Y-77761111D01*
X81731401Y-78041034D01*
X81869294Y-78299014D01*
X82054866Y-78525134D01*
X82280986Y-78710706D01*
X82335791Y-78740000D01*
X82280986Y-78769294D01*
X82054866Y-78954866D01*
X81869294Y-79180986D01*
X81731401Y-79438966D01*
X81646487Y-79718889D01*
X81617815Y-80010000D01*
X81646487Y-80301111D01*
X81731401Y-80581034D01*
X81869294Y-80839014D01*
X82054866Y-81065134D01*
X82280986Y-81250706D01*
X82538966Y-81388599D01*
X82818889Y-81473513D01*
X83037050Y-81495000D01*
X83182950Y-81495000D01*
X83401111Y-81473513D01*
X83681034Y-81388599D01*
X83939014Y-81250706D01*
X84165134Y-81065134D01*
X84350706Y-80839014D01*
X84380000Y-80784209D01*
X84409294Y-80839014D01*
X84594866Y-81065134D01*
X84820986Y-81250706D01*
X85078966Y-81388599D01*
X85358889Y-81473513D01*
X85577050Y-81495000D01*
X85722950Y-81495000D01*
X85941111Y-81473513D01*
X86221034Y-81388599D01*
X86479014Y-81250706D01*
X86705134Y-81065134D01*
X86890706Y-80839014D01*
X87028599Y-80581034D01*
X87113513Y-80301111D01*
X87142185Y-80010000D01*
X87113513Y-79718889D01*
X87028599Y-79438966D01*
X86890706Y-79180986D01*
X86705134Y-78954866D01*
X86479014Y-78769294D01*
X86424209Y-78740000D01*
X86479014Y-78710706D01*
X86705134Y-78525134D01*
X86890706Y-78299014D01*
X87028599Y-78041034D01*
X87113513Y-77761111D01*
X87142185Y-77470000D01*
X87113513Y-77178889D01*
X87028599Y-76898966D01*
X86890706Y-76640986D01*
X86828552Y-76565251D01*
X87253794Y-76140009D01*
X88174482Y-76140008D01*
X88211813Y-76143685D01*
X88271381Y-76137818D01*
X88360799Y-76129011D01*
X88426771Y-76108999D01*
X88504059Y-76085555D01*
X88636089Y-76014983D01*
X88722815Y-75943808D01*
X88722816Y-75943807D01*
X88751814Y-75920009D01*
X88775612Y-75891011D01*
X92851023Y-71815601D01*
X92880020Y-71791804D01*
X92910203Y-71755026D01*
X92974993Y-71676080D01*
X93045565Y-71544050D01*
X93048006Y-71536004D01*
X93089022Y-71400789D01*
X93100019Y-71289136D01*
X93100019Y-71289126D01*
X93103695Y-71251803D01*
X93100019Y-71214480D01*
X93100019Y-66724782D01*
X93273799Y-66551002D01*
X93569801Y-66255001D01*
X94487677Y-66255001D01*
X94524999Y-66258677D01*
X94562321Y-66255001D01*
X94562332Y-66255001D01*
X94673985Y-66244004D01*
X94817246Y-66200547D01*
X94949275Y-66129975D01*
X95065000Y-66035002D01*
X95088802Y-66005999D01*
X95564802Y-65530000D01*
X96169099Y-65530000D01*
X96191068Y-65571101D01*
X96191068Y-65571101D01*
G37*
X96191068Y-65571101D02*
X96370392Y-65789608D01*
X96588899Y-65968932D01*
X96721858Y-66040000D01*
X96588899Y-66111068D01*
X96370392Y-66290392D01*
X96191068Y-66508899D01*
X96057818Y-66758192D01*
X95975764Y-67028691D01*
X95948057Y-67310000D01*
X95975764Y-67591309D01*
X96057818Y-67861808D01*
X96191068Y-68111101D01*
X96370392Y-68329608D01*
X96588899Y-68508932D01*
X96721858Y-68580000D01*
X96588899Y-68651068D01*
X96370392Y-68830392D01*
X96191068Y-69048899D01*
X96057818Y-69298192D01*
X95975764Y-69568691D01*
X95948057Y-69850000D01*
X95975764Y-70131309D01*
X96057818Y-70401808D01*
X96191068Y-70651101D01*
X96370392Y-70869608D01*
X96588899Y-71048932D01*
X96721858Y-71120000D01*
X96588899Y-71191068D01*
X96370392Y-71370392D01*
X96191068Y-71588899D01*
X96057818Y-71838192D01*
X95975764Y-72108691D01*
X95948057Y-72390000D01*
X95975764Y-72671309D01*
X96057818Y-72941808D01*
X96191068Y-73191101D01*
X96370392Y-73409608D01*
X96588899Y-73588932D01*
X96721858Y-73660000D01*
X96588899Y-73731068D01*
X96370392Y-73910392D01*
X96191068Y-74128899D01*
X96057818Y-74378192D01*
X95975764Y-74648691D01*
X95948057Y-74930000D01*
X95975764Y-75211309D01*
X96057818Y-75481808D01*
X96191068Y-75731101D01*
X96370392Y-75949608D01*
X96588899Y-76128932D01*
X96721858Y-76200000D01*
X96588899Y-76271068D01*
X96370392Y-76450392D01*
X96191068Y-76668899D01*
X96057818Y-76918192D01*
X95975764Y-77188691D01*
X95948057Y-77470000D01*
X95975764Y-77751309D01*
X96057818Y-78021808D01*
X96191068Y-78271101D01*
X96370392Y-78489608D01*
X96588899Y-78668932D01*
X96721858Y-78740000D01*
X96588899Y-78811068D01*
X96370392Y-78990392D01*
X96191068Y-79208899D01*
X96057818Y-79458192D01*
X95975764Y-79728691D01*
X95948057Y-80010000D01*
X95975764Y-80291309D01*
X96057818Y-80561808D01*
X96191068Y-80811101D01*
X96370392Y-81029608D01*
X96588899Y-81208932D01*
X96721858Y-81280000D01*
X96588899Y-81351068D01*
X96370392Y-81530392D01*
X96191068Y-81748899D01*
X96057818Y-81998192D01*
X95975764Y-82268691D01*
X95948057Y-82550000D01*
X95975764Y-82831309D01*
X96057818Y-83101808D01*
X96191068Y-83351101D01*
X96370392Y-83569608D01*
X96588899Y-83748932D01*
X96721858Y-83820000D01*
X96588899Y-83891068D01*
X96370392Y-84070392D01*
X96191068Y-84288899D01*
X96057818Y-84538192D01*
X95975764Y-84808691D01*
X95948057Y-85090000D01*
X95975764Y-85371309D01*
X96057818Y-85641808D01*
X96191068Y-85891101D01*
X96370392Y-86109608D01*
X96588899Y-86288932D01*
X96716741Y-86357265D01*
X96487161Y-86507399D01*
X96285500Y-86705105D01*
X96126285Y-86938354D01*
X96015633Y-87198182D01*
X95998096Y-87280961D01*
X96120085Y-87503000D01*
X97663000Y-87503000D01*
X97663000Y-87483000D01*
X97917000Y-87483000D01*
X97917000Y-87503000D01*
X99459915Y-87503000D01*
X99581904Y-87280961D01*
X99564367Y-87198182D01*
X99453715Y-86938354D01*
X99294500Y-86705105D01*
X99092839Y-86507399D01*
X98863259Y-86357265D01*
X98991101Y-86288932D01*
X99209608Y-86109608D01*
X99388932Y-85891101D01*
X99522182Y-85641808D01*
X99604236Y-85371309D01*
X99631943Y-85090000D01*
X99604236Y-84808691D01*
X99590708Y-84764094D01*
X102314802Y-82040000D01*
X111285136Y-82040000D01*
X111215764Y-82268691D01*
X111188057Y-82550000D01*
X111215764Y-82831309D01*
X111297818Y-83101808D01*
X111431068Y-83351101D01*
X111610392Y-83569608D01*
X111828899Y-83748932D01*
X111961858Y-83820000D01*
X111828899Y-83891068D01*
X111610392Y-84070392D01*
X111431068Y-84288899D01*
X111297818Y-84538192D01*
X111215764Y-84808691D01*
X111188057Y-85090000D01*
X111215764Y-85371309D01*
X111285136Y-85600000D01*
X109534803Y-85600000D01*
X107715000Y-83780199D01*
X107715000Y-83718061D01*
X107675226Y-83518102D01*
X107597205Y-83329744D01*
X107483937Y-83160226D01*
X107339774Y-83016063D01*
X107170256Y-82902795D01*
X106981898Y-82824774D01*
X106781939Y-82785000D01*
X106578061Y-82785000D01*
X106378102Y-82824774D01*
X106189744Y-82902795D01*
X106020226Y-83016063D01*
X105876063Y-83160226D01*
X105762795Y-83329744D01*
X105684774Y-83518102D01*
X105645000Y-83718061D01*
X105645000Y-83921939D01*
X105684774Y-84121898D01*
X105762795Y-84310256D01*
X105876063Y-84479774D01*
X106020226Y-84623937D01*
X106189744Y-84737205D01*
X106378102Y-84815226D01*
X106578061Y-84855000D01*
X106640199Y-84855000D01*
X108656205Y-86871008D01*
X108679999Y-86900001D01*
X108708992Y-86923795D01*
X108708996Y-86923799D01*
X108726732Y-86938354D01*
X108795724Y-86994974D01*
X108927753Y-87065546D01*
X109071014Y-87109003D01*
X109182667Y-87120000D01*
X109182676Y-87120000D01*
X109219999Y-87123676D01*
X109257322Y-87120000D01*
X111285136Y-87120000D01*
X111215764Y-87348691D01*
X111188057Y-87630000D01*
X111215764Y-87911309D01*
X111297818Y-88181808D01*
X111315560Y-88215000D01*
X99499132Y-88215000D01*
X99564367Y-88061818D01*
X99581904Y-87979039D01*
X99459915Y-87757000D01*
X97917000Y-87757000D01*
X97917000Y-87777000D01*
X97663000Y-87777000D01*
X97663000Y-87757000D01*
X96120085Y-87757000D01*
X95998096Y-87979039D01*
X96015633Y-88061818D01*
X96080868Y-88215000D01*
X80695000Y-88215000D01*
X80695000Y-66080094D01*
X80718574Y-66099441D01*
X81645728Y-67026597D01*
X81617815Y-67310000D01*
X81646487Y-67601111D01*
X81731401Y-67881034D01*
X81869294Y-68139014D01*
X82054866Y-68365134D01*
X82280986Y-68550706D01*
X82335791Y-68580000D01*
X82280986Y-68609294D01*
X82054866Y-68794866D01*
X81869294Y-69020986D01*
X81731401Y-69278966D01*
X81646487Y-69558889D01*
X81617815Y-69850000D01*
X81646487Y-70141111D01*
X81731401Y-70421034D01*
X81869294Y-70679014D01*
X82054866Y-70905134D01*
X82280986Y-71090706D01*
X82335791Y-71120000D01*
X82280986Y-71149294D01*
X82054866Y-71334866D01*
X81869294Y-71560986D01*
X81731401Y-71818966D01*
X81646487Y-72098889D01*
X81617815Y-72390000D01*
X81646487Y-72681111D01*
X81731401Y-72961034D01*
X81869294Y-73219014D01*
X82054866Y-73445134D01*
X82280986Y-73630706D01*
X82335791Y-73660000D01*
X82280986Y-73689294D01*
X82054866Y-73874866D01*
X81869294Y-74100986D01*
X81731401Y-74358966D01*
X81646487Y-74638889D01*
X81617815Y-74930000D01*
X81646487Y-75221111D01*
X81731401Y-75501034D01*
X81869294Y-75759014D01*
X82054866Y-75985134D01*
X82280986Y-76170706D01*
X82335791Y-76200000D01*
X82280986Y-76229294D01*
X82054866Y-76414866D01*
X81869294Y-76640986D01*
X81731401Y-76898966D01*
X81646487Y-77178889D01*
X81617815Y-77470000D01*
X81646487Y-77761111D01*
X81731401Y-78041034D01*
X81869294Y-78299014D01*
X82054866Y-78525134D01*
X82280986Y-78710706D01*
X82335791Y-78740000D01*
X82280986Y-78769294D01*
X82054866Y-78954866D01*
X81869294Y-79180986D01*
X81731401Y-79438966D01*
X81646487Y-79718889D01*
X81617815Y-80010000D01*
X81646487Y-80301111D01*
X81731401Y-80581034D01*
X81869294Y-80839014D01*
X82054866Y-81065134D01*
X82280986Y-81250706D01*
X82538966Y-81388599D01*
X82818889Y-81473513D01*
X83037050Y-81495000D01*
X83182950Y-81495000D01*
X83401111Y-81473513D01*
X83681034Y-81388599D01*
X83939014Y-81250706D01*
X84165134Y-81065134D01*
X84350706Y-80839014D01*
X84380000Y-80784209D01*
X84409294Y-80839014D01*
X84594866Y-81065134D01*
X84820986Y-81250706D01*
X85078966Y-81388599D01*
X85358889Y-81473513D01*
X85577050Y-81495000D01*
X85722950Y-81495000D01*
X85941111Y-81473513D01*
X86221034Y-81388599D01*
X86479014Y-81250706D01*
X86705134Y-81065134D01*
X86890706Y-80839014D01*
X87028599Y-80581034D01*
X87113513Y-80301111D01*
X87142185Y-80010000D01*
X87113513Y-79718889D01*
X87028599Y-79438966D01*
X86890706Y-79180986D01*
X86705134Y-78954866D01*
X86479014Y-78769294D01*
X86424209Y-78740000D01*
X86479014Y-78710706D01*
X86705134Y-78525134D01*
X86890706Y-78299014D01*
X87028599Y-78041034D01*
X87113513Y-77761111D01*
X87142185Y-77470000D01*
X87113513Y-77178889D01*
X87028599Y-76898966D01*
X86890706Y-76640986D01*
X86828552Y-76565251D01*
X87253794Y-76140009D01*
X88174482Y-76140008D01*
X88211813Y-76143685D01*
X88271381Y-76137818D01*
X88360799Y-76129011D01*
X88426771Y-76108999D01*
X88504059Y-76085555D01*
X88636089Y-76014983D01*
X88722815Y-75943808D01*
X88722816Y-75943807D01*
X88751814Y-75920009D01*
X88775612Y-75891011D01*
X92851023Y-71815601D01*
X92880020Y-71791804D01*
X92910203Y-71755026D01*
X92974993Y-71676080D01*
X93045565Y-71544050D01*
X93048006Y-71536004D01*
X93089022Y-71400789D01*
X93100019Y-71289136D01*
X93100019Y-71289126D01*
X93103695Y-71251803D01*
X93100019Y-71214480D01*
X93100019Y-66724782D01*
X93273799Y-66551002D01*
X93569801Y-66255001D01*
X94487677Y-66255001D01*
X94524999Y-66258677D01*
X94562321Y-66255001D01*
X94562332Y-66255001D01*
X94673985Y-66244004D01*
X94817246Y-66200547D01*
X94949275Y-66129975D01*
X95065000Y-66035002D01*
X95088802Y-66005999D01*
X95564802Y-65530000D01*
X96169099Y-65530000D01*
X96191068Y-65571101D01*
G36*
X128855001Y-88215000D02*
G01*
X114744440Y-88215000D01*
X114762182Y-88181808D01*
X114844236Y-87911309D01*
X114871943Y-87630000D01*
X114844236Y-87348691D01*
X114774864Y-87120000D01*
X125026289Y-87120000D01*
X125070226Y-87163937D01*
X125239744Y-87277205D01*
X125428102Y-87355226D01*
X125628061Y-87395000D01*
X125831939Y-87395000D01*
X126031898Y-87355226D01*
X126220256Y-87277205D01*
X126389774Y-87163937D01*
X126533937Y-87019774D01*
X126647205Y-86850256D01*
X126725226Y-86661898D01*
X126765000Y-86461939D01*
X126765000Y-86258061D01*
X126725226Y-86058102D01*
X126647205Y-85869744D01*
X126533937Y-85700226D01*
X126389774Y-85556063D01*
X126220256Y-85442795D01*
X126031898Y-85364774D01*
X125831939Y-85325000D01*
X125628061Y-85325000D01*
X125428102Y-85364774D01*
X125239744Y-85442795D01*
X125070226Y-85556063D01*
X125026289Y-85600000D01*
X123013803Y-85600000D01*
X128781004Y-79832800D01*
X128810001Y-79809003D01*
X128855001Y-79754170D01*
X128855001Y-88215000D01*
X128855001Y-88215000D01*
G37*
X128855001Y-88215000D02*
X114744440Y-88215000D01*
X114762182Y-88181808D01*
X114844236Y-87911309D01*
X114871943Y-87630000D01*
X114844236Y-87348691D01*
X114774864Y-87120000D01*
X125026289Y-87120000D01*
X125070226Y-87163937D01*
X125239744Y-87277205D01*
X125428102Y-87355226D01*
X125628061Y-87395000D01*
X125831939Y-87395000D01*
X126031898Y-87355226D01*
X126220256Y-87277205D01*
X126389774Y-87163937D01*
X126533937Y-87019774D01*
X126647205Y-86850256D01*
X126725226Y-86661898D01*
X126765000Y-86461939D01*
X126765000Y-86258061D01*
X126725226Y-86058102D01*
X126647205Y-85869744D01*
X126533937Y-85700226D01*
X126389774Y-85556063D01*
X126220256Y-85442795D01*
X126031898Y-85364774D01*
X125831939Y-85325000D01*
X125628061Y-85325000D01*
X125428102Y-85364774D01*
X125239744Y-85442795D01*
X125070226Y-85556063D01*
X125026289Y-85600000D01*
X123013803Y-85600000D01*
X128781004Y-79832800D01*
X128810001Y-79809003D01*
X128855001Y-79754170D01*
X128855001Y-88215000D01*
G36*
X121871401Y-76898966D02*
G01*
X121786487Y-77178889D01*
X121757815Y-77470000D01*
X121786487Y-77761111D01*
X121871401Y-78041034D01*
X122009294Y-78299014D01*
X122194866Y-78525134D01*
X122420986Y-78710706D01*
X122485523Y-78745201D01*
X122368645Y-78814822D01*
X122152412Y-79009731D01*
X121978359Y-79243080D01*
X121853175Y-79505901D01*
X121808524Y-79653110D01*
X121929845Y-79883000D01*
X123123000Y-79883000D01*
X123123000Y-79863000D01*
X123377000Y-79863000D01*
X123377000Y-79883000D01*
X123397000Y-79883000D01*
X123397000Y-80137000D01*
X123377000Y-80137000D01*
X123377000Y-81330814D01*
X123606891Y-81451481D01*
X123881252Y-81354157D01*
X124131355Y-81205178D01*
X124347588Y-81010269D01*
X124518416Y-80781244D01*
X124549294Y-80839014D01*
X124734866Y-81065134D01*
X124960986Y-81250706D01*
X125125539Y-81338661D01*
X122134201Y-84330000D01*
X114650901Y-84330000D01*
X114628932Y-84288899D01*
X114449608Y-84070392D01*
X114231101Y-83891068D01*
X114098142Y-83820000D01*
X114231101Y-83748932D01*
X114449608Y-83569608D01*
X114628932Y-83351101D01*
X114762182Y-83101808D01*
X114844236Y-82831309D01*
X114871943Y-82550000D01*
X114844236Y-82268691D01*
X114774864Y-82040000D01*
X114866289Y-82040000D01*
X114910226Y-82083937D01*
X115079744Y-82197205D01*
X115268102Y-82275226D01*
X115468061Y-82315000D01*
X115671939Y-82315000D01*
X115871898Y-82275226D01*
X116060256Y-82197205D01*
X116229774Y-82083937D01*
X116373937Y-81939774D01*
X116487205Y-81770256D01*
X116565226Y-81581898D01*
X116605000Y-81381939D01*
X116605000Y-81178061D01*
X116565226Y-80978102D01*
X116487205Y-80789744D01*
X116373937Y-80620226D01*
X116229774Y-80476063D01*
X116066385Y-80366890D01*
X121808524Y-80366890D01*
X121853175Y-80514099D01*
X121978359Y-80776920D01*
X122152412Y-81010269D01*
X122368645Y-81205178D01*
X122618748Y-81354157D01*
X122893109Y-81451481D01*
X123123000Y-81330814D01*
X123123000Y-80137000D01*
X121929845Y-80137000D01*
X121808524Y-80366890D01*
X116066385Y-80366890D01*
X116060256Y-80362795D01*
X115871898Y-80284774D01*
X115671939Y-80245000D01*
X115468061Y-80245000D01*
X115268102Y-80284774D01*
X115079744Y-80362795D01*
X114910226Y-80476063D01*
X114866289Y-80520000D01*
X114774864Y-80520000D01*
X114844236Y-80291309D01*
X114871943Y-80010000D01*
X114844236Y-79728691D01*
X114774864Y-79500000D01*
X117406289Y-79500000D01*
X117450226Y-79543937D01*
X117619744Y-79657205D01*
X117808102Y-79735226D01*
X118008061Y-79775000D01*
X118211939Y-79775000D01*
X118411898Y-79735226D01*
X118600256Y-79657205D01*
X118769774Y-79543937D01*
X118913937Y-79399774D01*
X119027205Y-79230256D01*
X119105226Y-79041898D01*
X119145000Y-78841939D01*
X119145000Y-78638061D01*
X119105226Y-78438102D01*
X119027205Y-78249744D01*
X118913937Y-78080226D01*
X118769774Y-77936063D01*
X118600256Y-77822795D01*
X118411898Y-77744774D01*
X118211939Y-77705000D01*
X118008061Y-77705000D01*
X117808102Y-77744774D01*
X117619744Y-77822795D01*
X117450226Y-77936063D01*
X117406289Y-77980000D01*
X114774864Y-77980000D01*
X114844236Y-77751309D01*
X114871943Y-77470000D01*
X114844236Y-77188691D01*
X114762182Y-76918192D01*
X114733751Y-76865001D01*
X121889556Y-76865001D01*
X121871401Y-76898966D01*
X121871401Y-76898966D01*
G37*
X121871401Y-76898966D02*
X121786487Y-77178889D01*
X121757815Y-77470000D01*
X121786487Y-77761111D01*
X121871401Y-78041034D01*
X122009294Y-78299014D01*
X122194866Y-78525134D01*
X122420986Y-78710706D01*
X122485523Y-78745201D01*
X122368645Y-78814822D01*
X122152412Y-79009731D01*
X121978359Y-79243080D01*
X121853175Y-79505901D01*
X121808524Y-79653110D01*
X121929845Y-79883000D01*
X123123000Y-79883000D01*
X123123000Y-79863000D01*
X123377000Y-79863000D01*
X123377000Y-79883000D01*
X123397000Y-79883000D01*
X123397000Y-80137000D01*
X123377000Y-80137000D01*
X123377000Y-81330814D01*
X123606891Y-81451481D01*
X123881252Y-81354157D01*
X124131355Y-81205178D01*
X124347588Y-81010269D01*
X124518416Y-80781244D01*
X124549294Y-80839014D01*
X124734866Y-81065134D01*
X124960986Y-81250706D01*
X125125539Y-81338661D01*
X122134201Y-84330000D01*
X114650901Y-84330000D01*
X114628932Y-84288899D01*
X114449608Y-84070392D01*
X114231101Y-83891068D01*
X114098142Y-83820000D01*
X114231101Y-83748932D01*
X114449608Y-83569608D01*
X114628932Y-83351101D01*
X114762182Y-83101808D01*
X114844236Y-82831309D01*
X114871943Y-82550000D01*
X114844236Y-82268691D01*
X114774864Y-82040000D01*
X114866289Y-82040000D01*
X114910226Y-82083937D01*
X115079744Y-82197205D01*
X115268102Y-82275226D01*
X115468061Y-82315000D01*
X115671939Y-82315000D01*
X115871898Y-82275226D01*
X116060256Y-82197205D01*
X116229774Y-82083937D01*
X116373937Y-81939774D01*
X116487205Y-81770256D01*
X116565226Y-81581898D01*
X116605000Y-81381939D01*
X116605000Y-81178061D01*
X116565226Y-80978102D01*
X116487205Y-80789744D01*
X116373937Y-80620226D01*
X116229774Y-80476063D01*
X116066385Y-80366890D01*
X121808524Y-80366890D01*
X121853175Y-80514099D01*
X121978359Y-80776920D01*
X122152412Y-81010269D01*
X122368645Y-81205178D01*
X122618748Y-81354157D01*
X122893109Y-81451481D01*
X123123000Y-81330814D01*
X123123000Y-80137000D01*
X121929845Y-80137000D01*
X121808524Y-80366890D01*
X116066385Y-80366890D01*
X116060256Y-80362795D01*
X115871898Y-80284774D01*
X115671939Y-80245000D01*
X115468061Y-80245000D01*
X115268102Y-80284774D01*
X115079744Y-80362795D01*
X114910226Y-80476063D01*
X114866289Y-80520000D01*
X114774864Y-80520000D01*
X114844236Y-80291309D01*
X114871943Y-80010000D01*
X114844236Y-79728691D01*
X114774864Y-79500000D01*
X117406289Y-79500000D01*
X117450226Y-79543937D01*
X117619744Y-79657205D01*
X117808102Y-79735226D01*
X118008061Y-79775000D01*
X118211939Y-79775000D01*
X118411898Y-79735226D01*
X118600256Y-79657205D01*
X118769774Y-79543937D01*
X118913937Y-79399774D01*
X119027205Y-79230256D01*
X119105226Y-79041898D01*
X119145000Y-78841939D01*
X119145000Y-78638061D01*
X119105226Y-78438102D01*
X119027205Y-78249744D01*
X118913937Y-78080226D01*
X118769774Y-77936063D01*
X118600256Y-77822795D01*
X118411898Y-77744774D01*
X118211939Y-77705000D01*
X118008061Y-77705000D01*
X117808102Y-77744774D01*
X117619744Y-77822795D01*
X117450226Y-77936063D01*
X117406289Y-77980000D01*
X114774864Y-77980000D01*
X114844236Y-77751309D01*
X114871943Y-77470000D01*
X114844236Y-77188691D01*
X114762182Y-76918192D01*
X114733751Y-76865001D01*
X121889556Y-76865001D01*
X121871401Y-76898966D01*
G36*
X111215764Y-79728691D02*
G01*
X111188057Y-80010000D01*
X111215764Y-80291309D01*
X111285136Y-80520000D01*
X102037325Y-80520000D01*
X102000000Y-80516324D01*
X101962675Y-80520000D01*
X101962667Y-80520000D01*
X101851014Y-80530997D01*
X101707753Y-80574454D01*
X101575724Y-80645026D01*
X101459999Y-80739999D01*
X101436201Y-80768997D01*
X99629402Y-82575796D01*
X99631943Y-82550000D01*
X99604236Y-82268691D01*
X99590708Y-82224094D01*
X102314802Y-79500000D01*
X111285136Y-79500000D01*
X111215764Y-79728691D01*
X111215764Y-79728691D01*
G37*
X111215764Y-79728691D02*
X111188057Y-80010000D01*
X111215764Y-80291309D01*
X111285136Y-80520000D01*
X102037325Y-80520000D01*
X102000000Y-80516324D01*
X101962675Y-80520000D01*
X101962667Y-80520000D01*
X101851014Y-80530997D01*
X101707753Y-80574454D01*
X101575724Y-80645026D01*
X101459999Y-80739999D01*
X101436201Y-80768997D01*
X99629402Y-82575796D01*
X99631943Y-82550000D01*
X99604236Y-82268691D01*
X99590708Y-82224094D01*
X102314802Y-79500000D01*
X111285136Y-79500000D01*
X111215764Y-79728691D01*
G36*
X111297818Y-76918192D02*
G01*
X111215764Y-77188691D01*
X111188057Y-77470000D01*
X111215764Y-77751309D01*
X111285136Y-77980000D01*
X102037325Y-77980000D01*
X102000000Y-77976324D01*
X101962675Y-77980000D01*
X101962667Y-77980000D01*
X101851014Y-77990997D01*
X101707753Y-78034454D01*
X101575724Y-78105026D01*
X101459999Y-78199999D01*
X101436201Y-78228997D01*
X99629402Y-80035796D01*
X99631943Y-80010000D01*
X99604236Y-79728691D01*
X99590708Y-79684094D01*
X102409801Y-76865001D01*
X111326249Y-76865001D01*
X111297818Y-76918192D01*
X111297818Y-76918192D01*
G37*
X111297818Y-76918192D02*
X111215764Y-77188691D01*
X111188057Y-77470000D01*
X111215764Y-77751309D01*
X111285136Y-77980000D01*
X102037325Y-77980000D01*
X102000000Y-77976324D01*
X101962675Y-77980000D01*
X101962667Y-77980000D01*
X101851014Y-77990997D01*
X101707753Y-78034454D01*
X101575724Y-78105026D01*
X101459999Y-78199999D01*
X101436201Y-78228997D01*
X99629402Y-80035796D01*
X99631943Y-80010000D01*
X99604236Y-79728691D01*
X99590708Y-79684094D01*
X102409801Y-76865001D01*
X111326249Y-76865001D01*
X111297818Y-76918192D01*
G36*
X127510000Y-78954200D02*
G01*
X127118661Y-79345539D01*
X127030706Y-79180986D01*
X126845134Y-78954866D01*
X126619014Y-78769294D01*
X126554477Y-78734799D01*
X126671355Y-78665178D01*
X126887588Y-78470269D01*
X127061641Y-78236920D01*
X127186825Y-77974099D01*
X127231476Y-77826890D01*
X127110155Y-77597000D01*
X125917000Y-77597000D01*
X125917000Y-77617000D01*
X125663000Y-77617000D01*
X125663000Y-77597000D01*
X125643000Y-77597000D01*
X125643000Y-77343000D01*
X125663000Y-77343000D01*
X125663000Y-77323000D01*
X125917000Y-77323000D01*
X125917000Y-77343000D01*
X127110155Y-77343000D01*
X127231476Y-77113110D01*
X127186825Y-76965901D01*
X127061641Y-76703080D01*
X126962987Y-76570816D01*
X127476010Y-76057795D01*
X127505002Y-76034002D01*
X127510000Y-76027912D01*
X127510000Y-78954200D01*
X127510000Y-78954200D01*
G37*
X127510000Y-78954200D02*
X127118661Y-79345539D01*
X127030706Y-79180986D01*
X126845134Y-78954866D01*
X126619014Y-78769294D01*
X126554477Y-78734799D01*
X126671355Y-78665178D01*
X126887588Y-78470269D01*
X127061641Y-78236920D01*
X127186825Y-77974099D01*
X127231476Y-77826890D01*
X127110155Y-77597000D01*
X125917000Y-77597000D01*
X125917000Y-77617000D01*
X125663000Y-77617000D01*
X125663000Y-77597000D01*
X125643000Y-77597000D01*
X125643000Y-77343000D01*
X125663000Y-77343000D01*
X125663000Y-77323000D01*
X125917000Y-77323000D01*
X125917000Y-77343000D01*
X127110155Y-77343000D01*
X127231476Y-77113110D01*
X127186825Y-76965901D01*
X127061641Y-76703080D01*
X126962987Y-76570816D01*
X127476010Y-76057795D01*
X127505002Y-76034002D01*
X127510000Y-76027912D01*
X127510000Y-78954200D01*
G36*
X111229292Y-72064094D02*
G01*
X111215764Y-72108691D01*
X111188057Y-72390000D01*
X111215764Y-72671309D01*
X111241154Y-72755010D01*
X103232312Y-72755010D01*
X103194989Y-72751334D01*
X103157666Y-72755010D01*
X103157657Y-72755010D01*
X103046004Y-72766007D01*
X102902743Y-72809464D01*
X102770714Y-72880036D01*
X102770712Y-72880037D01*
X102770713Y-72880037D01*
X102683986Y-72951211D01*
X102683982Y-72951215D01*
X102654989Y-72975009D01*
X102631195Y-73004002D01*
X99195986Y-76439213D01*
X98991101Y-76271068D01*
X98858142Y-76200000D01*
X98991101Y-76128932D01*
X99209608Y-75949608D01*
X99388932Y-75731101D01*
X99522182Y-75481808D01*
X99604236Y-75211309D01*
X99631943Y-74930000D01*
X99604236Y-74648691D01*
X99522182Y-74378192D01*
X99388932Y-74128899D01*
X99209608Y-73910392D01*
X98991101Y-73731068D01*
X98858142Y-73660000D01*
X98991101Y-73588932D01*
X99209608Y-73409608D01*
X99388932Y-73191101D01*
X99522182Y-72941808D01*
X99604236Y-72671309D01*
X99631943Y-72390000D01*
X99604236Y-72108691D01*
X99522182Y-71838192D01*
X99388932Y-71588899D01*
X99209608Y-71370392D01*
X98991101Y-71191068D01*
X98858142Y-71120000D01*
X98991101Y-71048932D01*
X99209608Y-70869608D01*
X99388932Y-70651101D01*
X99522182Y-70401808D01*
X99604236Y-70131309D01*
X99631943Y-69850000D01*
X99604236Y-69568691D01*
X99522182Y-69298192D01*
X99388932Y-69048899D01*
X99209608Y-68830392D01*
X98991101Y-68651068D01*
X98858142Y-68580000D01*
X98991101Y-68508932D01*
X99209608Y-68329608D01*
X99388932Y-68111101D01*
X99522182Y-67861808D01*
X99604236Y-67591309D01*
X99631943Y-67310000D01*
X99604236Y-67028691D01*
X99522182Y-66758192D01*
X99388932Y-66508899D01*
X99209608Y-66290392D01*
X98991101Y-66111068D01*
X98858142Y-66040000D01*
X98991101Y-65968932D01*
X99209608Y-65789608D01*
X99388932Y-65571101D01*
X99522182Y-65321808D01*
X99604236Y-65051309D01*
X99631943Y-64770000D01*
X99604236Y-64488691D01*
X99578846Y-64404990D01*
X103570189Y-64404990D01*
X111229292Y-72064094D01*
X111229292Y-72064094D01*
G37*
X111229292Y-72064094D02*
X111215764Y-72108691D01*
X111188057Y-72390000D01*
X111215764Y-72671309D01*
X111241154Y-72755010D01*
X103232312Y-72755010D01*
X103194989Y-72751334D01*
X103157666Y-72755010D01*
X103157657Y-72755010D01*
X103046004Y-72766007D01*
X102902743Y-72809464D01*
X102770714Y-72880036D01*
X102770712Y-72880037D01*
X102770713Y-72880037D01*
X102683986Y-72951211D01*
X102683982Y-72951215D01*
X102654989Y-72975009D01*
X102631195Y-73004002D01*
X99195986Y-76439213D01*
X98991101Y-76271068D01*
X98858142Y-76200000D01*
X98991101Y-76128932D01*
X99209608Y-75949608D01*
X99388932Y-75731101D01*
X99522182Y-75481808D01*
X99604236Y-75211309D01*
X99631943Y-74930000D01*
X99604236Y-74648691D01*
X99522182Y-74378192D01*
X99388932Y-74128899D01*
X99209608Y-73910392D01*
X98991101Y-73731068D01*
X98858142Y-73660000D01*
X98991101Y-73588932D01*
X99209608Y-73409608D01*
X99388932Y-73191101D01*
X99522182Y-72941808D01*
X99604236Y-72671309D01*
X99631943Y-72390000D01*
X99604236Y-72108691D01*
X99522182Y-71838192D01*
X99388932Y-71588899D01*
X99209608Y-71370392D01*
X98991101Y-71191068D01*
X98858142Y-71120000D01*
X98991101Y-71048932D01*
X99209608Y-70869608D01*
X99388932Y-70651101D01*
X99522182Y-70401808D01*
X99604236Y-70131309D01*
X99631943Y-69850000D01*
X99604236Y-69568691D01*
X99522182Y-69298192D01*
X99388932Y-69048899D01*
X99209608Y-68830392D01*
X98991101Y-68651068D01*
X98858142Y-68580000D01*
X98991101Y-68508932D01*
X99209608Y-68329608D01*
X99388932Y-68111101D01*
X99522182Y-67861808D01*
X99604236Y-67591309D01*
X99631943Y-67310000D01*
X99604236Y-67028691D01*
X99522182Y-66758192D01*
X99388932Y-66508899D01*
X99209608Y-66290392D01*
X98991101Y-66111068D01*
X98858142Y-66040000D01*
X98991101Y-65968932D01*
X99209608Y-65789608D01*
X99388932Y-65571101D01*
X99522182Y-65321808D01*
X99604236Y-65051309D01*
X99631943Y-64770000D01*
X99604236Y-64488691D01*
X99578846Y-64404990D01*
X103570189Y-64404990D01*
X111229292Y-72064094D01*
G36*
X115844774Y-72691898D02*
G01*
X115922795Y-72880256D01*
X116036063Y-73049774D01*
X116180226Y-73193937D01*
X116349744Y-73307205D01*
X116538102Y-73385226D01*
X116738061Y-73425000D01*
X116800199Y-73425000D01*
X117451202Y-74076003D01*
X117475000Y-74105002D01*
X117590725Y-74199975D01*
X117722754Y-74270547D01*
X117866015Y-74314004D01*
X117977668Y-74325001D01*
X117977677Y-74325001D01*
X118015000Y-74328677D01*
X118052323Y-74325001D01*
X121889556Y-74325001D01*
X121871401Y-74358966D01*
X121786487Y-74638889D01*
X121757815Y-74930000D01*
X121786487Y-75221111D01*
X121824069Y-75345001D01*
X114803681Y-75345001D01*
X114844236Y-75211309D01*
X114871943Y-74930000D01*
X114844236Y-74648691D01*
X114762182Y-74378192D01*
X114628932Y-74128899D01*
X114506315Y-73979490D01*
X115836335Y-72649470D01*
X115844774Y-72691898D01*
X115844774Y-72691898D01*
G37*
X115844774Y-72691898D02*
X115922795Y-72880256D01*
X116036063Y-73049774D01*
X116180226Y-73193937D01*
X116349744Y-73307205D01*
X116538102Y-73385226D01*
X116738061Y-73425000D01*
X116800199Y-73425000D01*
X117451202Y-74076003D01*
X117475000Y-74105002D01*
X117590725Y-74199975D01*
X117722754Y-74270547D01*
X117866015Y-74314004D01*
X117977668Y-74325001D01*
X117977677Y-74325001D01*
X118015000Y-74328677D01*
X118052323Y-74325001D01*
X121889556Y-74325001D01*
X121871401Y-74358966D01*
X121786487Y-74638889D01*
X121757815Y-74930000D01*
X121786487Y-75221111D01*
X121824069Y-75345001D01*
X114803681Y-75345001D01*
X114844236Y-75211309D01*
X114871943Y-74930000D01*
X114844236Y-74648691D01*
X114762182Y-74378192D01*
X114628932Y-74128899D01*
X114506315Y-73979490D01*
X115836335Y-72649470D01*
X115844774Y-72691898D01*
G36*
X111297818Y-74378192D02*
G01*
X111215764Y-74648691D01*
X111188057Y-74930000D01*
X111215764Y-75211309D01*
X111256319Y-75345001D01*
X102439801Y-75345001D01*
X103509793Y-74275010D01*
X111352970Y-74275010D01*
X111297818Y-74378192D01*
X111297818Y-74378192D01*
G37*
X111297818Y-74378192D02*
X111215764Y-74648691D01*
X111188057Y-74930000D01*
X111215764Y-75211309D01*
X111256319Y-75345001D01*
X102439801Y-75345001D01*
X103509793Y-74275010D01*
X111352970Y-74275010D01*
X111297818Y-74378192D01*
G36*
X122009294Y-66480986D02*
G01*
X121871401Y-66738966D01*
X121786487Y-67018889D01*
X121757815Y-67310000D01*
X121786487Y-67601111D01*
X121871401Y-67881034D01*
X122009294Y-68139014D01*
X122194866Y-68365134D01*
X122420986Y-68550706D01*
X122475791Y-68580000D01*
X122420986Y-68609294D01*
X122194866Y-68794866D01*
X122009294Y-69020986D01*
X121871401Y-69278966D01*
X121786487Y-69558889D01*
X121757815Y-69850000D01*
X121786487Y-70141111D01*
X121871401Y-70421034D01*
X122009294Y-70679014D01*
X122194866Y-70905134D01*
X122420986Y-71090706D01*
X122475791Y-71120000D01*
X122420986Y-71149294D01*
X122194866Y-71334866D01*
X122009294Y-71560986D01*
X121871401Y-71818966D01*
X121786487Y-72098889D01*
X121757815Y-72390000D01*
X121786487Y-72681111D01*
X121824069Y-72805001D01*
X118329803Y-72805001D01*
X117875000Y-72350199D01*
X117875000Y-72288061D01*
X117835226Y-72088102D01*
X117757205Y-71899744D01*
X117643937Y-71730226D01*
X117499774Y-71586063D01*
X117330256Y-71472795D01*
X117141898Y-71394774D01*
X117099471Y-71386335D01*
X122029770Y-66456036D01*
X122009294Y-66480986D01*
X122009294Y-66480986D01*
G37*
X122009294Y-66480986D02*
X121871401Y-66738966D01*
X121786487Y-67018889D01*
X121757815Y-67310000D01*
X121786487Y-67601111D01*
X121871401Y-67881034D01*
X122009294Y-68139014D01*
X122194866Y-68365134D01*
X122420986Y-68550706D01*
X122475791Y-68580000D01*
X122420986Y-68609294D01*
X122194866Y-68794866D01*
X122009294Y-69020986D01*
X121871401Y-69278966D01*
X121786487Y-69558889D01*
X121757815Y-69850000D01*
X121786487Y-70141111D01*
X121871401Y-70421034D01*
X122009294Y-70679014D01*
X122194866Y-70905134D01*
X122420986Y-71090706D01*
X122475791Y-71120000D01*
X122420986Y-71149294D01*
X122194866Y-71334866D01*
X122009294Y-71560986D01*
X121871401Y-71818966D01*
X121786487Y-72098889D01*
X121757815Y-72390000D01*
X121786487Y-72681111D01*
X121824069Y-72805001D01*
X118329803Y-72805001D01*
X117875000Y-72350199D01*
X117875000Y-72288061D01*
X117835226Y-72088102D01*
X117757205Y-71899744D01*
X117643937Y-71730226D01*
X117499774Y-71586063D01*
X117330256Y-71472795D01*
X117141898Y-71394774D01*
X117099471Y-71386335D01*
X122029770Y-66456036D01*
X122009294Y-66480986D01*
G36*
X128855001Y-67565829D02*
G01*
X128833799Y-67539995D01*
X128810001Y-67510997D01*
X128781003Y-67487199D01*
X126968552Y-65674749D01*
X127030706Y-65599014D01*
X127168599Y-65341034D01*
X127253513Y-65061111D01*
X127282185Y-64770000D01*
X127254272Y-64486596D01*
X127601429Y-64139439D01*
X127633292Y-64113290D01*
X127737637Y-63986145D01*
X127815173Y-63841086D01*
X127862919Y-63683688D01*
X127875001Y-63561018D01*
X127875001Y-63561008D01*
X127879040Y-63520000D01*
X127875001Y-63478992D01*
X127875001Y-47111019D01*
X127879041Y-47070001D01*
X127862919Y-46906313D01*
X127850785Y-46866311D01*
X127815173Y-46748914D01*
X127737637Y-46603855D01*
X127633292Y-46476710D01*
X127601433Y-46450564D01*
X123336285Y-42185418D01*
X123355000Y-42091335D01*
X123355000Y-41808665D01*
X123299853Y-41531426D01*
X123191680Y-41270273D01*
X123034637Y-41035241D01*
X122834759Y-40835363D01*
X122599727Y-40678320D01*
X122338574Y-40570147D01*
X122061335Y-40515000D01*
X121778665Y-40515000D01*
X121501426Y-40570147D01*
X121240273Y-40678320D01*
X121005241Y-40835363D01*
X120805363Y-41035241D01*
X120648320Y-41270273D01*
X120540147Y-41531426D01*
X120485000Y-41808665D01*
X120485000Y-42091335D01*
X120540147Y-42368574D01*
X120648320Y-42629727D01*
X120805363Y-42864759D01*
X121005241Y-43064637D01*
X121205869Y-43198692D01*
X121178486Y-43213329D01*
X121106903Y-43457298D01*
X121920000Y-44270395D01*
X121934143Y-44256253D01*
X122113748Y-44435858D01*
X122099605Y-44450000D01*
X122912702Y-45263097D01*
X123156671Y-45191514D01*
X123277571Y-44936004D01*
X123346300Y-44661816D01*
X123351216Y-44562084D01*
X126205002Y-47415871D01*
X126205002Y-50649133D01*
X126146891Y-50628519D01*
X125917000Y-50749186D01*
X125917000Y-51943000D01*
X125937000Y-51943000D01*
X125937000Y-52197000D01*
X125917000Y-52197000D01*
X125917000Y-52217000D01*
X125663000Y-52217000D01*
X125663000Y-52197000D01*
X125643000Y-52197000D01*
X125643000Y-51943000D01*
X125663000Y-51943000D01*
X125663000Y-50749186D01*
X125433109Y-50628519D01*
X125158748Y-50725843D01*
X124908645Y-50874822D01*
X124712498Y-51051626D01*
X124689502Y-50975820D01*
X124630537Y-50865506D01*
X124551185Y-50768815D01*
X124454494Y-50689463D01*
X124344180Y-50630498D01*
X124224482Y-50594188D01*
X124100000Y-50581928D01*
X122400000Y-50581928D01*
X122275518Y-50594188D01*
X122155820Y-50630498D01*
X122045506Y-50689463D01*
X121948815Y-50768815D01*
X121869463Y-50865506D01*
X121810498Y-50975820D01*
X121774188Y-51095518D01*
X121761928Y-51220000D01*
X121761928Y-52920000D01*
X121774188Y-53044482D01*
X121810498Y-53164180D01*
X121869463Y-53274494D01*
X121948815Y-53371185D01*
X122045506Y-53450537D01*
X122155820Y-53509502D01*
X122236466Y-53533966D01*
X122152412Y-53609731D01*
X121978359Y-53843080D01*
X121853175Y-54105901D01*
X121808524Y-54253110D01*
X121929845Y-54483000D01*
X123123000Y-54483000D01*
X123123000Y-54463000D01*
X123377000Y-54463000D01*
X123377000Y-54483000D01*
X123397000Y-54483000D01*
X123397000Y-54737000D01*
X123377000Y-54737000D01*
X123377000Y-54757000D01*
X123123000Y-54757000D01*
X123123000Y-54737000D01*
X121929845Y-54737000D01*
X121808524Y-54966890D01*
X121853175Y-55114099D01*
X121978359Y-55376920D01*
X122077013Y-55509183D01*
X121563997Y-56022200D01*
X121534999Y-56045998D01*
X121511201Y-56074996D01*
X121511200Y-56074997D01*
X121440025Y-56161723D01*
X121369453Y-56293753D01*
X121346247Y-56370256D01*
X121325997Y-56437013D01*
X121320724Y-56490547D01*
X121311323Y-56585999D01*
X121315000Y-56623331D01*
X121314999Y-65021203D01*
X114670164Y-71666039D01*
X114628932Y-71588899D01*
X114449608Y-71370392D01*
X114231101Y-71191068D01*
X114098142Y-71120000D01*
X114231101Y-71048932D01*
X114449608Y-70869608D01*
X114628932Y-70651101D01*
X114762182Y-70401808D01*
X114844236Y-70131309D01*
X114871943Y-69850000D01*
X114844236Y-69568691D01*
X114762182Y-69298192D01*
X114628932Y-69048899D01*
X114449608Y-68830392D01*
X114231101Y-68651068D01*
X114098142Y-68580000D01*
X114231101Y-68508932D01*
X114449608Y-68329608D01*
X114628932Y-68111101D01*
X114762182Y-67861808D01*
X114844236Y-67591309D01*
X114871943Y-67310000D01*
X114844236Y-67028691D01*
X114762182Y-66758192D01*
X114628932Y-66508899D01*
X114449608Y-66290392D01*
X114231101Y-66111068D01*
X114098142Y-66040000D01*
X114231101Y-65968932D01*
X114449608Y-65789608D01*
X114628932Y-65571101D01*
X114762182Y-65321808D01*
X114844236Y-65051309D01*
X114871943Y-64770000D01*
X114844236Y-64488691D01*
X114762182Y-64218192D01*
X114628932Y-63968899D01*
X114449608Y-63750392D01*
X114231101Y-63571068D01*
X114098142Y-63500000D01*
X114231101Y-63428932D01*
X114449608Y-63249608D01*
X114628932Y-63031101D01*
X114762182Y-62781808D01*
X114844236Y-62511309D01*
X114871943Y-62230000D01*
X114844236Y-61948691D01*
X114762182Y-61678192D01*
X114628932Y-61428899D01*
X114449608Y-61210392D01*
X114231101Y-61031068D01*
X114098142Y-60960000D01*
X114231101Y-60888932D01*
X114449608Y-60709608D01*
X114628932Y-60491101D01*
X114762182Y-60241808D01*
X114844236Y-59971309D01*
X114871943Y-59690000D01*
X114844236Y-59408691D01*
X114762182Y-59138192D01*
X114628932Y-58888899D01*
X114449608Y-58670392D01*
X114231101Y-58491068D01*
X114098142Y-58420000D01*
X114231101Y-58348932D01*
X114449608Y-58169608D01*
X114628932Y-57951101D01*
X114762182Y-57701808D01*
X114844236Y-57431309D01*
X114871943Y-57150000D01*
X114844236Y-56868691D01*
X114762182Y-56598192D01*
X114628932Y-56348899D01*
X114449608Y-56130392D01*
X114231101Y-55951068D01*
X114098142Y-55880000D01*
X114231101Y-55808932D01*
X114449608Y-55629608D01*
X114628932Y-55411101D01*
X114762182Y-55161808D01*
X114844236Y-54891309D01*
X114871943Y-54610000D01*
X114844236Y-54328691D01*
X114762182Y-54058192D01*
X114628932Y-53808899D01*
X114449608Y-53590392D01*
X114231101Y-53411068D01*
X114098142Y-53340000D01*
X114231101Y-53268932D01*
X114449608Y-53089608D01*
X114628932Y-52871101D01*
X114762182Y-52621808D01*
X114844236Y-52351309D01*
X114871943Y-52070000D01*
X114844236Y-51788691D01*
X114762182Y-51518192D01*
X114628932Y-51268899D01*
X114449608Y-51050392D01*
X114231101Y-50871068D01*
X114098142Y-50800000D01*
X114231101Y-50728932D01*
X114449608Y-50549608D01*
X114628932Y-50331101D01*
X114762182Y-50081808D01*
X114844236Y-49811309D01*
X114871943Y-49530000D01*
X114844236Y-49248691D01*
X114762182Y-48978192D01*
X114628932Y-48728899D01*
X114449608Y-48510392D01*
X114231101Y-48331068D01*
X113981808Y-48197818D01*
X113711309Y-48115764D01*
X113500492Y-48095000D01*
X112559508Y-48095000D01*
X112348691Y-48115764D01*
X112078192Y-48197818D01*
X111828899Y-48331068D01*
X111610392Y-48510392D01*
X111431068Y-48728899D01*
X111297818Y-48978192D01*
X111215764Y-49248691D01*
X111188057Y-49530000D01*
X111215764Y-49811309D01*
X111297818Y-50081808D01*
X111431068Y-50331101D01*
X111610392Y-50549608D01*
X111828899Y-50728932D01*
X111961858Y-50800000D01*
X111828899Y-50871068D01*
X111624014Y-51039212D01*
X111018793Y-50433992D01*
X110994991Y-50404989D01*
X110879266Y-50310016D01*
X110747237Y-50239444D01*
X110603976Y-50195987D01*
X110492323Y-50184990D01*
X110492312Y-50184990D01*
X110454990Y-50181314D01*
X110417668Y-50184990D01*
X99628072Y-50184990D01*
X99628072Y-48730000D01*
X99615812Y-48605518D01*
X99579502Y-48485820D01*
X99520537Y-48375506D01*
X99441185Y-48278815D01*
X99344494Y-48199463D01*
X99234180Y-48140498D01*
X99114482Y-48104188D01*
X98990000Y-48091928D01*
X96590000Y-48091928D01*
X96465518Y-48104188D01*
X96345820Y-48140498D01*
X96235506Y-48199463D01*
X96138815Y-48278815D01*
X96059463Y-48375506D01*
X96000498Y-48485820D01*
X95964188Y-48605518D01*
X95951928Y-48730000D01*
X95951928Y-50330000D01*
X95964188Y-50454482D01*
X96000498Y-50574180D01*
X96059463Y-50684494D01*
X96082108Y-50712087D01*
X92200000Y-54594195D01*
X92200000Y-49211211D01*
X95751202Y-45660010D01*
X103019069Y-45660008D01*
X103056401Y-45663685D01*
X103093734Y-45660008D01*
X103205387Y-45649011D01*
X103248843Y-45635829D01*
X103348647Y-45605555D01*
X103480677Y-45534983D01*
X103567403Y-45463808D01*
X103567404Y-45463807D01*
X103596402Y-45440009D01*
X103620200Y-45411011D01*
X104722546Y-44308665D01*
X109055000Y-44308665D01*
X109055000Y-44591335D01*
X109110147Y-44868574D01*
X109218320Y-45129727D01*
X109375363Y-45364759D01*
X109575241Y-45564637D01*
X109810273Y-45721680D01*
X110071426Y-45829853D01*
X110348665Y-45885000D01*
X110631335Y-45885000D01*
X110908574Y-45829853D01*
X111169727Y-45721680D01*
X111404759Y-45564637D01*
X111604637Y-45364759D01*
X111761680Y-45129727D01*
X111869853Y-44868574D01*
X111925000Y-44591335D01*
X111925000Y-44308665D01*
X112865000Y-44308665D01*
X112865000Y-44591335D01*
X112920147Y-44868574D01*
X113028320Y-45129727D01*
X113185363Y-45364759D01*
X113385241Y-45564637D01*
X113620273Y-45721680D01*
X113881426Y-45829853D01*
X114158665Y-45885000D01*
X114441335Y-45885000D01*
X114718574Y-45829853D01*
X114979727Y-45721680D01*
X115214759Y-45564637D01*
X115414637Y-45364759D01*
X115571680Y-45129727D01*
X115679853Y-44868574D01*
X115735000Y-44591335D01*
X115735000Y-44308665D01*
X116675000Y-44308665D01*
X116675000Y-44591335D01*
X116730147Y-44868574D01*
X116838320Y-45129727D01*
X116995363Y-45364759D01*
X117195241Y-45564637D01*
X117430273Y-45721680D01*
X117691426Y-45829853D01*
X117968665Y-45885000D01*
X118251335Y-45885000D01*
X118528574Y-45829853D01*
X118789727Y-45721680D01*
X119024759Y-45564637D01*
X119146694Y-45442702D01*
X121106903Y-45442702D01*
X121178486Y-45686671D01*
X121433996Y-45807571D01*
X121708184Y-45876300D01*
X121990512Y-45890217D01*
X122270130Y-45848787D01*
X122536292Y-45753603D01*
X122661514Y-45686671D01*
X122733097Y-45442702D01*
X121920000Y-44629605D01*
X121106903Y-45442702D01*
X119146694Y-45442702D01*
X119224637Y-45364759D01*
X119381680Y-45129727D01*
X119489853Y-44868574D01*
X119545000Y-44591335D01*
X119545000Y-44520512D01*
X120479783Y-44520512D01*
X120521213Y-44800130D01*
X120616397Y-45066292D01*
X120683329Y-45191514D01*
X120927298Y-45263097D01*
X121740395Y-44450000D01*
X120927298Y-43636903D01*
X120683329Y-43708486D01*
X120562429Y-43963996D01*
X120493700Y-44238184D01*
X120479783Y-44520512D01*
X119545000Y-44520512D01*
X119545000Y-44308665D01*
X119489853Y-44031426D01*
X119381680Y-43770273D01*
X119224637Y-43535241D01*
X119024759Y-43335363D01*
X118789727Y-43178320D01*
X118528574Y-43070147D01*
X118251335Y-43015000D01*
X117968665Y-43015000D01*
X117691426Y-43070147D01*
X117430273Y-43178320D01*
X117195241Y-43335363D01*
X116995363Y-43535241D01*
X116838320Y-43770273D01*
X116730147Y-44031426D01*
X116675000Y-44308665D01*
X115735000Y-44308665D01*
X115679853Y-44031426D01*
X115571680Y-43770273D01*
X115414637Y-43535241D01*
X115214759Y-43335363D01*
X114979727Y-43178320D01*
X114718574Y-43070147D01*
X114441335Y-43015000D01*
X114158665Y-43015000D01*
X113881426Y-43070147D01*
X113620273Y-43178320D01*
X113385241Y-43335363D01*
X113185363Y-43535241D01*
X113028320Y-43770273D01*
X112920147Y-44031426D01*
X112865000Y-44308665D01*
X111925000Y-44308665D01*
X111869853Y-44031426D01*
X111761680Y-43770273D01*
X111604637Y-43535241D01*
X111404759Y-43335363D01*
X111169727Y-43178320D01*
X110908574Y-43070147D01*
X110631335Y-43015000D01*
X110348665Y-43015000D01*
X110071426Y-43070147D01*
X109810273Y-43178320D01*
X109575241Y-43335363D01*
X109375363Y-43535241D01*
X109218320Y-43770273D01*
X109110147Y-44031426D01*
X109055000Y-44308665D01*
X104722546Y-44308665D01*
X116081010Y-32950203D01*
X116110001Y-32926411D01*
X116133795Y-32897418D01*
X116133799Y-32897414D01*
X116204973Y-32810687D01*
X116204974Y-32810686D01*
X116275546Y-32678657D01*
X116319003Y-32535396D01*
X116330000Y-32423743D01*
X116330000Y-32423734D01*
X116333676Y-32386411D01*
X116330000Y-32349088D01*
X116330000Y-30794801D01*
X117002406Y-30122396D01*
X117090392Y-30229608D01*
X117308899Y-30408932D01*
X117558192Y-30542182D01*
X117828691Y-30624236D01*
X118039508Y-30645000D01*
X118180492Y-30645000D01*
X118391309Y-30624236D01*
X118661808Y-30542182D01*
X118911101Y-30408932D01*
X119129608Y-30229608D01*
X119308932Y-30011101D01*
X119442182Y-29761808D01*
X119524236Y-29491309D01*
X119551943Y-29210000D01*
X119524236Y-28928691D01*
X119442182Y-28658192D01*
X119424440Y-28625000D01*
X128855000Y-28625000D01*
X128855001Y-67565829D01*
X128855001Y-67565829D01*
G37*
X128855001Y-67565829D02*
X128833799Y-67539995D01*
X128810001Y-67510997D01*
X128781003Y-67487199D01*
X126968552Y-65674749D01*
X127030706Y-65599014D01*
X127168599Y-65341034D01*
X127253513Y-65061111D01*
X127282185Y-64770000D01*
X127254272Y-64486596D01*
X127601429Y-64139439D01*
X127633292Y-64113290D01*
X127737637Y-63986145D01*
X127815173Y-63841086D01*
X127862919Y-63683688D01*
X127875001Y-63561018D01*
X127875001Y-63561008D01*
X127879040Y-63520000D01*
X127875001Y-63478992D01*
X127875001Y-47111019D01*
X127879041Y-47070001D01*
X127862919Y-46906313D01*
X127850785Y-46866311D01*
X127815173Y-46748914D01*
X127737637Y-46603855D01*
X127633292Y-46476710D01*
X127601433Y-46450564D01*
X123336285Y-42185418D01*
X123355000Y-42091335D01*
X123355000Y-41808665D01*
X123299853Y-41531426D01*
X123191680Y-41270273D01*
X123034637Y-41035241D01*
X122834759Y-40835363D01*
X122599727Y-40678320D01*
X122338574Y-40570147D01*
X122061335Y-40515000D01*
X121778665Y-40515000D01*
X121501426Y-40570147D01*
X121240273Y-40678320D01*
X121005241Y-40835363D01*
X120805363Y-41035241D01*
X120648320Y-41270273D01*
X120540147Y-41531426D01*
X120485000Y-41808665D01*
X120485000Y-42091335D01*
X120540147Y-42368574D01*
X120648320Y-42629727D01*
X120805363Y-42864759D01*
X121005241Y-43064637D01*
X121205869Y-43198692D01*
X121178486Y-43213329D01*
X121106903Y-43457298D01*
X121920000Y-44270395D01*
X121934143Y-44256253D01*
X122113748Y-44435858D01*
X122099605Y-44450000D01*
X122912702Y-45263097D01*
X123156671Y-45191514D01*
X123277571Y-44936004D01*
X123346300Y-44661816D01*
X123351216Y-44562084D01*
X126205002Y-47415871D01*
X126205002Y-50649133D01*
X126146891Y-50628519D01*
X125917000Y-50749186D01*
X125917000Y-51943000D01*
X125937000Y-51943000D01*
X125937000Y-52197000D01*
X125917000Y-52197000D01*
X125917000Y-52217000D01*
X125663000Y-52217000D01*
X125663000Y-52197000D01*
X125643000Y-52197000D01*
X125643000Y-51943000D01*
X125663000Y-51943000D01*
X125663000Y-50749186D01*
X125433109Y-50628519D01*
X125158748Y-50725843D01*
X124908645Y-50874822D01*
X124712498Y-51051626D01*
X124689502Y-50975820D01*
X124630537Y-50865506D01*
X124551185Y-50768815D01*
X124454494Y-50689463D01*
X124344180Y-50630498D01*
X124224482Y-50594188D01*
X124100000Y-50581928D01*
X122400000Y-50581928D01*
X122275518Y-50594188D01*
X122155820Y-50630498D01*
X122045506Y-50689463D01*
X121948815Y-50768815D01*
X121869463Y-50865506D01*
X121810498Y-50975820D01*
X121774188Y-51095518D01*
X121761928Y-51220000D01*
X121761928Y-52920000D01*
X121774188Y-53044482D01*
X121810498Y-53164180D01*
X121869463Y-53274494D01*
X121948815Y-53371185D01*
X122045506Y-53450537D01*
X122155820Y-53509502D01*
X122236466Y-53533966D01*
X122152412Y-53609731D01*
X121978359Y-53843080D01*
X121853175Y-54105901D01*
X121808524Y-54253110D01*
X121929845Y-54483000D01*
X123123000Y-54483000D01*
X123123000Y-54463000D01*
X123377000Y-54463000D01*
X123377000Y-54483000D01*
X123397000Y-54483000D01*
X123397000Y-54737000D01*
X123377000Y-54737000D01*
X123377000Y-54757000D01*
X123123000Y-54757000D01*
X123123000Y-54737000D01*
X121929845Y-54737000D01*
X121808524Y-54966890D01*
X121853175Y-55114099D01*
X121978359Y-55376920D01*
X122077013Y-55509183D01*
X121563997Y-56022200D01*
X121534999Y-56045998D01*
X121511201Y-56074996D01*
X121511200Y-56074997D01*
X121440025Y-56161723D01*
X121369453Y-56293753D01*
X121346247Y-56370256D01*
X121325997Y-56437013D01*
X121320724Y-56490547D01*
X121311323Y-56585999D01*
X121315000Y-56623331D01*
X121314999Y-65021203D01*
X114670164Y-71666039D01*
X114628932Y-71588899D01*
X114449608Y-71370392D01*
X114231101Y-71191068D01*
X114098142Y-71120000D01*
X114231101Y-71048932D01*
X114449608Y-70869608D01*
X114628932Y-70651101D01*
X114762182Y-70401808D01*
X114844236Y-70131309D01*
X114871943Y-69850000D01*
X114844236Y-69568691D01*
X114762182Y-69298192D01*
X114628932Y-69048899D01*
X114449608Y-68830392D01*
X114231101Y-68651068D01*
X114098142Y-68580000D01*
X114231101Y-68508932D01*
X114449608Y-68329608D01*
X114628932Y-68111101D01*
X114762182Y-67861808D01*
X114844236Y-67591309D01*
X114871943Y-67310000D01*
X114844236Y-67028691D01*
X114762182Y-66758192D01*
X114628932Y-66508899D01*
X114449608Y-66290392D01*
X114231101Y-66111068D01*
X114098142Y-66040000D01*
X114231101Y-65968932D01*
X114449608Y-65789608D01*
X114628932Y-65571101D01*
X114762182Y-65321808D01*
X114844236Y-65051309D01*
X114871943Y-64770000D01*
X114844236Y-64488691D01*
X114762182Y-64218192D01*
X114628932Y-63968899D01*
X114449608Y-63750392D01*
X114231101Y-63571068D01*
X114098142Y-63500000D01*
X114231101Y-63428932D01*
X114449608Y-63249608D01*
X114628932Y-63031101D01*
X114762182Y-62781808D01*
X114844236Y-62511309D01*
X114871943Y-62230000D01*
X114844236Y-61948691D01*
X114762182Y-61678192D01*
X114628932Y-61428899D01*
X114449608Y-61210392D01*
X114231101Y-61031068D01*
X114098142Y-60960000D01*
X114231101Y-60888932D01*
X114449608Y-60709608D01*
X114628932Y-60491101D01*
X114762182Y-60241808D01*
X114844236Y-59971309D01*
X114871943Y-59690000D01*
X114844236Y-59408691D01*
X114762182Y-59138192D01*
X114628932Y-58888899D01*
X114449608Y-58670392D01*
X114231101Y-58491068D01*
X114098142Y-58420000D01*
X114231101Y-58348932D01*
X114449608Y-58169608D01*
X114628932Y-57951101D01*
X114762182Y-57701808D01*
X114844236Y-57431309D01*
X114871943Y-57150000D01*
X114844236Y-56868691D01*
X114762182Y-56598192D01*
X114628932Y-56348899D01*
X114449608Y-56130392D01*
X114231101Y-55951068D01*
X114098142Y-55880000D01*
X114231101Y-55808932D01*
X114449608Y-55629608D01*
X114628932Y-55411101D01*
X114762182Y-55161808D01*
X114844236Y-54891309D01*
X114871943Y-54610000D01*
X114844236Y-54328691D01*
X114762182Y-54058192D01*
X114628932Y-53808899D01*
X114449608Y-53590392D01*
X114231101Y-53411068D01*
X114098142Y-53340000D01*
X114231101Y-53268932D01*
X114449608Y-53089608D01*
X114628932Y-52871101D01*
X114762182Y-52621808D01*
X114844236Y-52351309D01*
X114871943Y-52070000D01*
X114844236Y-51788691D01*
X114762182Y-51518192D01*
X114628932Y-51268899D01*
X114449608Y-51050392D01*
X114231101Y-50871068D01*
X114098142Y-50800000D01*
X114231101Y-50728932D01*
X114449608Y-50549608D01*
X114628932Y-50331101D01*
X114762182Y-50081808D01*
X114844236Y-49811309D01*
X114871943Y-49530000D01*
X114844236Y-49248691D01*
X114762182Y-48978192D01*
X114628932Y-48728899D01*
X114449608Y-48510392D01*
X114231101Y-48331068D01*
X113981808Y-48197818D01*
X113711309Y-48115764D01*
X113500492Y-48095000D01*
X112559508Y-48095000D01*
X112348691Y-48115764D01*
X112078192Y-48197818D01*
X111828899Y-48331068D01*
X111610392Y-48510392D01*
X111431068Y-48728899D01*
X111297818Y-48978192D01*
X111215764Y-49248691D01*
X111188057Y-49530000D01*
X111215764Y-49811309D01*
X111297818Y-50081808D01*
X111431068Y-50331101D01*
X111610392Y-50549608D01*
X111828899Y-50728932D01*
X111961858Y-50800000D01*
X111828899Y-50871068D01*
X111624014Y-51039212D01*
X111018793Y-50433992D01*
X110994991Y-50404989D01*
X110879266Y-50310016D01*
X110747237Y-50239444D01*
X110603976Y-50195987D01*
X110492323Y-50184990D01*
X110492312Y-50184990D01*
X110454990Y-50181314D01*
X110417668Y-50184990D01*
X99628072Y-50184990D01*
X99628072Y-48730000D01*
X99615812Y-48605518D01*
X99579502Y-48485820D01*
X99520537Y-48375506D01*
X99441185Y-48278815D01*
X99344494Y-48199463D01*
X99234180Y-48140498D01*
X99114482Y-48104188D01*
X98990000Y-48091928D01*
X96590000Y-48091928D01*
X96465518Y-48104188D01*
X96345820Y-48140498D01*
X96235506Y-48199463D01*
X96138815Y-48278815D01*
X96059463Y-48375506D01*
X96000498Y-48485820D01*
X95964188Y-48605518D01*
X95951928Y-48730000D01*
X95951928Y-50330000D01*
X95964188Y-50454482D01*
X96000498Y-50574180D01*
X96059463Y-50684494D01*
X96082108Y-50712087D01*
X92200000Y-54594195D01*
X92200000Y-49211211D01*
X95751202Y-45660010D01*
X103019069Y-45660008D01*
X103056401Y-45663685D01*
X103093734Y-45660008D01*
X103205387Y-45649011D01*
X103248843Y-45635829D01*
X103348647Y-45605555D01*
X103480677Y-45534983D01*
X103567403Y-45463808D01*
X103567404Y-45463807D01*
X103596402Y-45440009D01*
X103620200Y-45411011D01*
X104722546Y-44308665D01*
X109055000Y-44308665D01*
X109055000Y-44591335D01*
X109110147Y-44868574D01*
X109218320Y-45129727D01*
X109375363Y-45364759D01*
X109575241Y-45564637D01*
X109810273Y-45721680D01*
X110071426Y-45829853D01*
X110348665Y-45885000D01*
X110631335Y-45885000D01*
X110908574Y-45829853D01*
X111169727Y-45721680D01*
X111404759Y-45564637D01*
X111604637Y-45364759D01*
X111761680Y-45129727D01*
X111869853Y-44868574D01*
X111925000Y-44591335D01*
X111925000Y-44308665D01*
X112865000Y-44308665D01*
X112865000Y-44591335D01*
X112920147Y-44868574D01*
X113028320Y-45129727D01*
X113185363Y-45364759D01*
X113385241Y-45564637D01*
X113620273Y-45721680D01*
X113881426Y-45829853D01*
X114158665Y-45885000D01*
X114441335Y-45885000D01*
X114718574Y-45829853D01*
X114979727Y-45721680D01*
X115214759Y-45564637D01*
X115414637Y-45364759D01*
X115571680Y-45129727D01*
X115679853Y-44868574D01*
X115735000Y-44591335D01*
X115735000Y-44308665D01*
X116675000Y-44308665D01*
X116675000Y-44591335D01*
X116730147Y-44868574D01*
X116838320Y-45129727D01*
X116995363Y-45364759D01*
X117195241Y-45564637D01*
X117430273Y-45721680D01*
X117691426Y-45829853D01*
X117968665Y-45885000D01*
X118251335Y-45885000D01*
X118528574Y-45829853D01*
X118789727Y-45721680D01*
X119024759Y-45564637D01*
X119146694Y-45442702D01*
X121106903Y-45442702D01*
X121178486Y-45686671D01*
X121433996Y-45807571D01*
X121708184Y-45876300D01*
X121990512Y-45890217D01*
X122270130Y-45848787D01*
X122536292Y-45753603D01*
X122661514Y-45686671D01*
X122733097Y-45442702D01*
X121920000Y-44629605D01*
X121106903Y-45442702D01*
X119146694Y-45442702D01*
X119224637Y-45364759D01*
X119381680Y-45129727D01*
X119489853Y-44868574D01*
X119545000Y-44591335D01*
X119545000Y-44520512D01*
X120479783Y-44520512D01*
X120521213Y-44800130D01*
X120616397Y-45066292D01*
X120683329Y-45191514D01*
X120927298Y-45263097D01*
X121740395Y-44450000D01*
X120927298Y-43636903D01*
X120683329Y-43708486D01*
X120562429Y-43963996D01*
X120493700Y-44238184D01*
X120479783Y-44520512D01*
X119545000Y-44520512D01*
X119545000Y-44308665D01*
X119489853Y-44031426D01*
X119381680Y-43770273D01*
X119224637Y-43535241D01*
X119024759Y-43335363D01*
X118789727Y-43178320D01*
X118528574Y-43070147D01*
X118251335Y-43015000D01*
X117968665Y-43015000D01*
X117691426Y-43070147D01*
X117430273Y-43178320D01*
X117195241Y-43335363D01*
X116995363Y-43535241D01*
X116838320Y-43770273D01*
X116730147Y-44031426D01*
X116675000Y-44308665D01*
X115735000Y-44308665D01*
X115679853Y-44031426D01*
X115571680Y-43770273D01*
X115414637Y-43535241D01*
X115214759Y-43335363D01*
X114979727Y-43178320D01*
X114718574Y-43070147D01*
X114441335Y-43015000D01*
X114158665Y-43015000D01*
X113881426Y-43070147D01*
X113620273Y-43178320D01*
X113385241Y-43335363D01*
X113185363Y-43535241D01*
X113028320Y-43770273D01*
X112920147Y-44031426D01*
X112865000Y-44308665D01*
X111925000Y-44308665D01*
X111869853Y-44031426D01*
X111761680Y-43770273D01*
X111604637Y-43535241D01*
X111404759Y-43335363D01*
X111169727Y-43178320D01*
X110908574Y-43070147D01*
X110631335Y-43015000D01*
X110348665Y-43015000D01*
X110071426Y-43070147D01*
X109810273Y-43178320D01*
X109575241Y-43335363D01*
X109375363Y-43535241D01*
X109218320Y-43770273D01*
X109110147Y-44031426D01*
X109055000Y-44308665D01*
X104722546Y-44308665D01*
X116081010Y-32950203D01*
X116110001Y-32926411D01*
X116133795Y-32897418D01*
X116133799Y-32897414D01*
X116204973Y-32810687D01*
X116204974Y-32810686D01*
X116275546Y-32678657D01*
X116319003Y-32535396D01*
X116330000Y-32423743D01*
X116330000Y-32423734D01*
X116333676Y-32386411D01*
X116330000Y-32349088D01*
X116330000Y-30794801D01*
X117002406Y-30122396D01*
X117090392Y-30229608D01*
X117308899Y-30408932D01*
X117558192Y-30542182D01*
X117828691Y-30624236D01*
X118039508Y-30645000D01*
X118180492Y-30645000D01*
X118391309Y-30624236D01*
X118661808Y-30542182D01*
X118911101Y-30408932D01*
X119129608Y-30229608D01*
X119308932Y-30011101D01*
X119442182Y-29761808D01*
X119524236Y-29491309D01*
X119551943Y-29210000D01*
X119524236Y-28928691D01*
X119442182Y-28658192D01*
X119424440Y-28625000D01*
X128855000Y-28625000D01*
X128855001Y-67565829D01*
G36*
X90229990Y-70377800D02*
G01*
X88977791Y-71630000D01*
X86927595Y-71630000D01*
X86890706Y-71560986D01*
X86828552Y-71485251D01*
X90229991Y-68083813D01*
X90229990Y-70377800D01*
X90229990Y-70377800D01*
G37*
X90229990Y-70377800D02*
X88977791Y-71630000D01*
X86927595Y-71630000D01*
X86890706Y-71560986D01*
X86828552Y-71485251D01*
X90229991Y-68083813D01*
X90229990Y-70377800D01*
G36*
X111229292Y-61904094D02*
G01*
X111215764Y-61948691D01*
X111188057Y-62230000D01*
X111215764Y-62511309D01*
X111297818Y-62781808D01*
X111431068Y-63031101D01*
X111610392Y-63249608D01*
X111828899Y-63428932D01*
X111961858Y-63500000D01*
X111828899Y-63571068D01*
X111610392Y-63750392D01*
X111431068Y-63968899D01*
X111297818Y-64218192D01*
X111215764Y-64488691D01*
X111188057Y-64770000D01*
X111215764Y-65051309D01*
X111297818Y-65321808D01*
X111431068Y-65571101D01*
X111610392Y-65789608D01*
X111828899Y-65968932D01*
X111961858Y-66040000D01*
X111828899Y-66111068D01*
X111610392Y-66290392D01*
X111431068Y-66508899D01*
X111297818Y-66758192D01*
X111215764Y-67028691D01*
X111188057Y-67310000D01*
X111215764Y-67591309D01*
X111297818Y-67861808D01*
X111431068Y-68111101D01*
X111610392Y-68329608D01*
X111828899Y-68508932D01*
X111961858Y-68580000D01*
X111828899Y-68651068D01*
X111610392Y-68830392D01*
X111431068Y-69048899D01*
X111297818Y-69298192D01*
X111215764Y-69568691D01*
X111188057Y-69850000D01*
X111190598Y-69875796D01*
X104448794Y-63133993D01*
X104424991Y-63104989D01*
X104309266Y-63010016D01*
X104177237Y-62939444D01*
X104033976Y-62895987D01*
X103922323Y-62884990D01*
X103922312Y-62884990D01*
X103884990Y-62881314D01*
X103847668Y-62884990D01*
X99467030Y-62884990D01*
X99522182Y-62781808D01*
X99604236Y-62511309D01*
X99631943Y-62230000D01*
X99604236Y-61948691D01*
X99522182Y-61678192D01*
X99388932Y-61428899D01*
X99209608Y-61210392D01*
X98991101Y-61031068D01*
X98858142Y-60960000D01*
X98991101Y-60888932D01*
X99209608Y-60709608D01*
X99388932Y-60491101D01*
X99522182Y-60241808D01*
X99604236Y-59971309D01*
X99631943Y-59690000D01*
X99604236Y-59408691D01*
X99522182Y-59138192D01*
X99388932Y-58888899D01*
X99209608Y-58670392D01*
X98991101Y-58491068D01*
X98858142Y-58420000D01*
X98991101Y-58348932D01*
X99209608Y-58169608D01*
X99388932Y-57951101D01*
X99522182Y-57701808D01*
X99604236Y-57431309D01*
X99631943Y-57150000D01*
X99604236Y-56868691D01*
X99522182Y-56598192D01*
X99388932Y-56348899D01*
X99209608Y-56130392D01*
X98991101Y-55951068D01*
X98858142Y-55880000D01*
X98991101Y-55808932D01*
X99209608Y-55629608D01*
X99388932Y-55411101D01*
X99522182Y-55161808D01*
X99604236Y-54891309D01*
X99631943Y-54610000D01*
X99604236Y-54328691D01*
X99578846Y-54244990D01*
X103570189Y-54244990D01*
X111229292Y-61904094D01*
X111229292Y-61904094D01*
G37*
X111229292Y-61904094D02*
X111215764Y-61948691D01*
X111188057Y-62230000D01*
X111215764Y-62511309D01*
X111297818Y-62781808D01*
X111431068Y-63031101D01*
X111610392Y-63249608D01*
X111828899Y-63428932D01*
X111961858Y-63500000D01*
X111828899Y-63571068D01*
X111610392Y-63750392D01*
X111431068Y-63968899D01*
X111297818Y-64218192D01*
X111215764Y-64488691D01*
X111188057Y-64770000D01*
X111215764Y-65051309D01*
X111297818Y-65321808D01*
X111431068Y-65571101D01*
X111610392Y-65789608D01*
X111828899Y-65968932D01*
X111961858Y-66040000D01*
X111828899Y-66111068D01*
X111610392Y-66290392D01*
X111431068Y-66508899D01*
X111297818Y-66758192D01*
X111215764Y-67028691D01*
X111188057Y-67310000D01*
X111215764Y-67591309D01*
X111297818Y-67861808D01*
X111431068Y-68111101D01*
X111610392Y-68329608D01*
X111828899Y-68508932D01*
X111961858Y-68580000D01*
X111828899Y-68651068D01*
X111610392Y-68830392D01*
X111431068Y-69048899D01*
X111297818Y-69298192D01*
X111215764Y-69568691D01*
X111188057Y-69850000D01*
X111190598Y-69875796D01*
X104448794Y-63133993D01*
X104424991Y-63104989D01*
X104309266Y-63010016D01*
X104177237Y-62939444D01*
X104033976Y-62895987D01*
X103922323Y-62884990D01*
X103922312Y-62884990D01*
X103884990Y-62881314D01*
X103847668Y-62884990D01*
X99467030Y-62884990D01*
X99522182Y-62781808D01*
X99604236Y-62511309D01*
X99631943Y-62230000D01*
X99604236Y-61948691D01*
X99522182Y-61678192D01*
X99388932Y-61428899D01*
X99209608Y-61210392D01*
X98991101Y-61031068D01*
X98858142Y-60960000D01*
X98991101Y-60888932D01*
X99209608Y-60709608D01*
X99388932Y-60491101D01*
X99522182Y-60241808D01*
X99604236Y-59971309D01*
X99631943Y-59690000D01*
X99604236Y-59408691D01*
X99522182Y-59138192D01*
X99388932Y-58888899D01*
X99209608Y-58670392D01*
X98991101Y-58491068D01*
X98858142Y-58420000D01*
X98991101Y-58348932D01*
X99209608Y-58169608D01*
X99388932Y-57951101D01*
X99522182Y-57701808D01*
X99604236Y-57431309D01*
X99631943Y-57150000D01*
X99604236Y-56868691D01*
X99522182Y-56598192D01*
X99388932Y-56348899D01*
X99209608Y-56130392D01*
X98991101Y-55951068D01*
X98858142Y-55880000D01*
X98991101Y-55808932D01*
X99209608Y-55629608D01*
X99388932Y-55411101D01*
X99522182Y-55161808D01*
X99604236Y-54891309D01*
X99631943Y-54610000D01*
X99604236Y-54328691D01*
X99578846Y-54244990D01*
X103570189Y-54244990D01*
X111229292Y-61904094D01*
G36*
X91224999Y-61567197D02*
G01*
X90028979Y-62763218D01*
X89999981Y-62787016D01*
X89976183Y-62816014D01*
X89976182Y-62816015D01*
X89905007Y-62902741D01*
X89834435Y-63034771D01*
X89790979Y-63178032D01*
X89776305Y-63327017D01*
X89779982Y-63364349D01*
X89779981Y-66384219D01*
X86978661Y-69185539D01*
X86890706Y-69020986D01*
X86705134Y-68794866D01*
X86479014Y-68609294D01*
X86424209Y-68580000D01*
X86479014Y-68550706D01*
X86705134Y-68365134D01*
X86890706Y-68139014D01*
X87028599Y-67881034D01*
X87113513Y-67601111D01*
X87142185Y-67310000D01*
X87113513Y-67018889D01*
X87090797Y-66944005D01*
X87336005Y-66698797D01*
X87365002Y-66675000D01*
X87459975Y-66559275D01*
X87530547Y-66427246D01*
X87574004Y-66283985D01*
X87585001Y-66172332D01*
X87585001Y-66172320D01*
X87588677Y-66135000D01*
X87585001Y-66097677D01*
X87585001Y-64619800D01*
X88141004Y-64063798D01*
X88170001Y-64040001D01*
X88264974Y-63924276D01*
X88335546Y-63792247D01*
X88379003Y-63648986D01*
X88390000Y-63537333D01*
X88390000Y-63537332D01*
X88393677Y-63500000D01*
X88390000Y-63462667D01*
X88390000Y-58101211D01*
X88581212Y-57910000D01*
X91225000Y-57910000D01*
X91224999Y-61567197D01*
X91224999Y-61567197D01*
G37*
X91224999Y-61567197D02*
X90028979Y-62763218D01*
X89999981Y-62787016D01*
X89976183Y-62816014D01*
X89976182Y-62816015D01*
X89905007Y-62902741D01*
X89834435Y-63034771D01*
X89790979Y-63178032D01*
X89776305Y-63327017D01*
X89779982Y-63364349D01*
X89779981Y-66384219D01*
X86978661Y-69185539D01*
X86890706Y-69020986D01*
X86705134Y-68794866D01*
X86479014Y-68609294D01*
X86424209Y-68580000D01*
X86479014Y-68550706D01*
X86705134Y-68365134D01*
X86890706Y-68139014D01*
X87028599Y-67881034D01*
X87113513Y-67601111D01*
X87142185Y-67310000D01*
X87113513Y-67018889D01*
X87090797Y-66944005D01*
X87336005Y-66698797D01*
X87365002Y-66675000D01*
X87459975Y-66559275D01*
X87530547Y-66427246D01*
X87574004Y-66283985D01*
X87585001Y-66172332D01*
X87585001Y-66172320D01*
X87588677Y-66135000D01*
X87585001Y-66097677D01*
X87585001Y-64619800D01*
X88141004Y-64063798D01*
X88170001Y-64040001D01*
X88264974Y-63924276D01*
X88335546Y-63792247D01*
X88379003Y-63648986D01*
X88390000Y-63537333D01*
X88390000Y-63537332D01*
X88393677Y-63500000D01*
X88390000Y-63462667D01*
X88390000Y-58101211D01*
X88581212Y-57910000D01*
X91225000Y-57910000D01*
X91224999Y-61567197D01*
G36*
X95975764Y-54328691D02*
G01*
X95948057Y-54610000D01*
X95975764Y-54891309D01*
X96057818Y-55161808D01*
X96191068Y-55411101D01*
X96370392Y-55629608D01*
X96588899Y-55808932D01*
X96721858Y-55880000D01*
X96588899Y-55951068D01*
X96370392Y-56130392D01*
X96191068Y-56348899D01*
X96057818Y-56598192D01*
X95975764Y-56868691D01*
X95948057Y-57150000D01*
X95975764Y-57431309D01*
X96057818Y-57701808D01*
X96191068Y-57951101D01*
X96370392Y-58169608D01*
X96588899Y-58348932D01*
X96721858Y-58420000D01*
X96588899Y-58491068D01*
X96370392Y-58670392D01*
X96191068Y-58888899D01*
X96057818Y-59138192D01*
X95975764Y-59408691D01*
X95948057Y-59690000D01*
X95975764Y-59971309D01*
X95989292Y-60015906D01*
X94195001Y-61810197D01*
X94195001Y-55469800D01*
X95419813Y-54244990D01*
X96001154Y-54244990D01*
X95975764Y-54328691D01*
X95975764Y-54328691D01*
G37*
X95975764Y-54328691D02*
X95948057Y-54610000D01*
X95975764Y-54891309D01*
X96057818Y-55161808D01*
X96191068Y-55411101D01*
X96370392Y-55629608D01*
X96588899Y-55808932D01*
X96721858Y-55880000D01*
X96588899Y-55951068D01*
X96370392Y-56130392D01*
X96191068Y-56348899D01*
X96057818Y-56598192D01*
X95975764Y-56868691D01*
X95948057Y-57150000D01*
X95975764Y-57431309D01*
X96057818Y-57701808D01*
X96191068Y-57951101D01*
X96370392Y-58169608D01*
X96588899Y-58348932D01*
X96721858Y-58420000D01*
X96588899Y-58491068D01*
X96370392Y-58670392D01*
X96191068Y-58888899D01*
X96057818Y-59138192D01*
X95975764Y-59408691D01*
X95948057Y-59690000D01*
X95975764Y-59971309D01*
X95989292Y-60015906D01*
X94195001Y-61810197D01*
X94195001Y-55469800D01*
X95419813Y-54244990D01*
X96001154Y-54244990D01*
X95975764Y-54328691D01*
G36*
X111016205Y-52581008D02*
G01*
X111039999Y-52610001D01*
X111068992Y-52633795D01*
X111068996Y-52633799D01*
X111139685Y-52691811D01*
X111155724Y-52704974D01*
X111287753Y-52775546D01*
X111397843Y-52808941D01*
X111431068Y-52871101D01*
X111610392Y-53089608D01*
X111828899Y-53268932D01*
X111961858Y-53340000D01*
X111828899Y-53411068D01*
X111610392Y-53590392D01*
X111431068Y-53808899D01*
X111297818Y-54058192D01*
X111215764Y-54328691D01*
X111188057Y-54610000D01*
X111215764Y-54891309D01*
X111297818Y-55161808D01*
X111431068Y-55411101D01*
X111610392Y-55629608D01*
X111828899Y-55808932D01*
X111961858Y-55880000D01*
X111828899Y-55951068D01*
X111610392Y-56130392D01*
X111431068Y-56348899D01*
X111297818Y-56598192D01*
X111215764Y-56868691D01*
X111188057Y-57150000D01*
X111215764Y-57431309D01*
X111297818Y-57701808D01*
X111431068Y-57951101D01*
X111610392Y-58169608D01*
X111828899Y-58348932D01*
X111961858Y-58420000D01*
X111828899Y-58491068D01*
X111610392Y-58670392D01*
X111431068Y-58888899D01*
X111297818Y-59138192D01*
X111215764Y-59408691D01*
X111188057Y-59690000D01*
X111190598Y-59715796D01*
X104448794Y-52973993D01*
X104424991Y-52944989D01*
X104309266Y-52850016D01*
X104177237Y-52779444D01*
X104033976Y-52735987D01*
X103922323Y-52724990D01*
X103922312Y-52724990D01*
X103884990Y-52721314D01*
X103847668Y-52724990D01*
X99467030Y-52724990D01*
X99522182Y-52621808D01*
X99604236Y-52351309D01*
X99631943Y-52070000D01*
X99604236Y-51788691D01*
X99578846Y-51704990D01*
X110140189Y-51704990D01*
X111016205Y-52581008D01*
X111016205Y-52581008D01*
G37*
X111016205Y-52581008D02*
X111039999Y-52610001D01*
X111068992Y-52633795D01*
X111068996Y-52633799D01*
X111139685Y-52691811D01*
X111155724Y-52704974D01*
X111287753Y-52775546D01*
X111397843Y-52808941D01*
X111431068Y-52871101D01*
X111610392Y-53089608D01*
X111828899Y-53268932D01*
X111961858Y-53340000D01*
X111828899Y-53411068D01*
X111610392Y-53590392D01*
X111431068Y-53808899D01*
X111297818Y-54058192D01*
X111215764Y-54328691D01*
X111188057Y-54610000D01*
X111215764Y-54891309D01*
X111297818Y-55161808D01*
X111431068Y-55411101D01*
X111610392Y-55629608D01*
X111828899Y-55808932D01*
X111961858Y-55880000D01*
X111828899Y-55951068D01*
X111610392Y-56130392D01*
X111431068Y-56348899D01*
X111297818Y-56598192D01*
X111215764Y-56868691D01*
X111188057Y-57150000D01*
X111215764Y-57431309D01*
X111297818Y-57701808D01*
X111431068Y-57951101D01*
X111610392Y-58169608D01*
X111828899Y-58348932D01*
X111961858Y-58420000D01*
X111828899Y-58491068D01*
X111610392Y-58670392D01*
X111431068Y-58888899D01*
X111297818Y-59138192D01*
X111215764Y-59408691D01*
X111188057Y-59690000D01*
X111190598Y-59715796D01*
X104448794Y-52973993D01*
X104424991Y-52944989D01*
X104309266Y-52850016D01*
X104177237Y-52779444D01*
X104033976Y-52735987D01*
X103922323Y-52724990D01*
X103922312Y-52724990D01*
X103884990Y-52721314D01*
X103847668Y-52724990D01*
X99467030Y-52724990D01*
X99522182Y-52621808D01*
X99604236Y-52351309D01*
X99631943Y-52070000D01*
X99604236Y-51788691D01*
X99578846Y-51704990D01*
X110140189Y-51704990D01*
X111016205Y-52581008D01*
G36*
X109157818Y-28658192D02*
G01*
X109075764Y-28928691D01*
X109048057Y-29210000D01*
X109075764Y-29491309D01*
X109157818Y-29761808D01*
X109291068Y-30011101D01*
X109470392Y-30229608D01*
X109688899Y-30408932D01*
X109938192Y-30542182D01*
X110208691Y-30624236D01*
X110419508Y-30645000D01*
X110560492Y-30645000D01*
X110771309Y-30624236D01*
X111041808Y-30542182D01*
X111291101Y-30408932D01*
X111509608Y-30229608D01*
X111688932Y-30011101D01*
X111822182Y-29761808D01*
X111904236Y-29491309D01*
X111931943Y-29210000D01*
X111904236Y-28928691D01*
X111822182Y-28658192D01*
X111804440Y-28625000D01*
X112985560Y-28625000D01*
X112967818Y-28658192D01*
X112885764Y-28928691D01*
X112858057Y-29210000D01*
X112885764Y-29491309D01*
X112967818Y-29761808D01*
X113101068Y-30011101D01*
X113280392Y-30229608D01*
X113498899Y-30408932D01*
X113540000Y-30430901D01*
X113540001Y-32705197D01*
X102555199Y-43690000D01*
X95287325Y-43690000D01*
X95250000Y-43686324D01*
X95212675Y-43690000D01*
X95212667Y-43690000D01*
X95101014Y-43700997D01*
X94957753Y-43744454D01*
X94825724Y-43815026D01*
X94709999Y-43909999D01*
X94686201Y-43938997D01*
X90384004Y-48241195D01*
X90355000Y-48264998D01*
X90300778Y-48331068D01*
X90260027Y-48380723D01*
X90203851Y-48485820D01*
X90189455Y-48512753D01*
X90145998Y-48656014D01*
X90135001Y-48767667D01*
X90135001Y-48767677D01*
X90131325Y-48804999D01*
X90135001Y-48842321D01*
X90135002Y-54845000D01*
X90068061Y-54845000D01*
X89868102Y-54884774D01*
X89679744Y-54962795D01*
X89510226Y-55076063D01*
X89466289Y-55120000D01*
X87047114Y-55120000D01*
X87113513Y-54901111D01*
X87142185Y-54610000D01*
X87113513Y-54318889D01*
X87028599Y-54038966D01*
X86890706Y-53780986D01*
X86705134Y-53554866D01*
X86479014Y-53369294D01*
X86424209Y-53340000D01*
X86479014Y-53310706D01*
X86705134Y-53125134D01*
X86890706Y-52899014D01*
X87028599Y-52641034D01*
X87113513Y-52361111D01*
X87142185Y-52070000D01*
X87113513Y-51778889D01*
X87028599Y-51498966D01*
X86890706Y-51240986D01*
X86705134Y-51014866D01*
X86479014Y-50829294D01*
X86221034Y-50691401D01*
X85941111Y-50606487D01*
X85722950Y-50585000D01*
X85577050Y-50585000D01*
X85358889Y-50606487D01*
X85078966Y-50691401D01*
X84820986Y-50829294D01*
X84594866Y-51014866D01*
X84570393Y-51044687D01*
X84549502Y-50975820D01*
X84490537Y-50865506D01*
X84411185Y-50768815D01*
X84314494Y-50689463D01*
X84204180Y-50630498D01*
X84084482Y-50594188D01*
X83960000Y-50581928D01*
X82694999Y-50581928D01*
X82694999Y-46690001D01*
X82764866Y-46775134D01*
X82990986Y-46960706D01*
X83248966Y-47098599D01*
X83528889Y-47183513D01*
X83747050Y-47205000D01*
X83892950Y-47205000D01*
X84111111Y-47183513D01*
X84391034Y-47098599D01*
X84649014Y-46960706D01*
X84875134Y-46775134D01*
X85060706Y-46549014D01*
X85198599Y-46291034D01*
X85283513Y-46011111D01*
X85312185Y-45720000D01*
X85283513Y-45428889D01*
X85198599Y-45148966D01*
X85060706Y-44890986D01*
X84875134Y-44664866D01*
X84845313Y-44640393D01*
X84914180Y-44619502D01*
X85024494Y-44560537D01*
X85121185Y-44481185D01*
X85200537Y-44384494D01*
X85259502Y-44274180D01*
X85295812Y-44154482D01*
X85308072Y-44030000D01*
X85308072Y-42330000D01*
X85295812Y-42205518D01*
X85259502Y-42085820D01*
X85200537Y-41975506D01*
X85121185Y-41878815D01*
X85024494Y-41799463D01*
X84914180Y-41740498D01*
X84794482Y-41704188D01*
X84670000Y-41691928D01*
X82970000Y-41691928D01*
X82845518Y-41704188D01*
X82725820Y-41740498D01*
X82615506Y-41799463D01*
X82518815Y-41878815D01*
X82439463Y-41975506D01*
X82380498Y-42085820D01*
X82344188Y-42205518D01*
X82331928Y-42330000D01*
X82331928Y-42525674D01*
X82295723Y-42545026D01*
X82212083Y-42613668D01*
X82179999Y-42639999D01*
X82156201Y-42668998D01*
X82115000Y-42710198D01*
X82115000Y-39715867D01*
X83536596Y-38294272D01*
X83747050Y-38315000D01*
X83892950Y-38315000D01*
X84111111Y-38293513D01*
X84391034Y-38208599D01*
X84649014Y-38070706D01*
X84875134Y-37885134D01*
X85060706Y-37659014D01*
X85198599Y-37401034D01*
X85283513Y-37121111D01*
X85312185Y-36830000D01*
X88677815Y-36830000D01*
X88706487Y-37121111D01*
X88791401Y-37401034D01*
X88929294Y-37659014D01*
X89114866Y-37885134D01*
X89340986Y-38070706D01*
X89395791Y-38100000D01*
X89340986Y-38129294D01*
X89114866Y-38314866D01*
X88929294Y-38540986D01*
X88791401Y-38798966D01*
X88706487Y-39078889D01*
X88677815Y-39370000D01*
X88706487Y-39661111D01*
X88791401Y-39941034D01*
X88929294Y-40199014D01*
X89114866Y-40425134D01*
X89340986Y-40610706D01*
X89598966Y-40748599D01*
X89878889Y-40833513D01*
X90097050Y-40855000D01*
X90242950Y-40855000D01*
X90461111Y-40833513D01*
X90741034Y-40748599D01*
X90999014Y-40610706D01*
X91225134Y-40425134D01*
X91410706Y-40199014D01*
X91548599Y-39941034D01*
X91633513Y-39661111D01*
X91662185Y-39370000D01*
X91647295Y-39218816D01*
X100065000Y-39218816D01*
X100065000Y-39521184D01*
X100123989Y-39817743D01*
X100239701Y-40097095D01*
X100407688Y-40348505D01*
X100621495Y-40562312D01*
X100872905Y-40730299D01*
X101152257Y-40846011D01*
X101448816Y-40905000D01*
X101751184Y-40905000D01*
X102047743Y-40846011D01*
X102327095Y-40730299D01*
X102578505Y-40562312D01*
X102644944Y-40495873D01*
X102650498Y-40514180D01*
X102709463Y-40624494D01*
X102788815Y-40721185D01*
X102885506Y-40800537D01*
X102995820Y-40859502D01*
X103115518Y-40895812D01*
X103240000Y-40908072D01*
X105040000Y-40908072D01*
X105164482Y-40895812D01*
X105284180Y-40859502D01*
X105394494Y-40800537D01*
X105491185Y-40721185D01*
X105570537Y-40624494D01*
X105629502Y-40514180D01*
X105665812Y-40394482D01*
X105678072Y-40270000D01*
X105678072Y-38470000D01*
X105665812Y-38345518D01*
X105629502Y-38225820D01*
X105570537Y-38115506D01*
X105491185Y-38018815D01*
X105394494Y-37939463D01*
X105284180Y-37880498D01*
X105164482Y-37844188D01*
X105040000Y-37831928D01*
X103240000Y-37831928D01*
X103115518Y-37844188D01*
X102995820Y-37880498D01*
X102885506Y-37939463D01*
X102788815Y-38018815D01*
X102709463Y-38115506D01*
X102650498Y-38225820D01*
X102644944Y-38244127D01*
X102578505Y-38177688D01*
X102327095Y-38009701D01*
X102047743Y-37893989D01*
X101751184Y-37835000D01*
X101448816Y-37835000D01*
X101152257Y-37893989D01*
X100872905Y-38009701D01*
X100621495Y-38177688D01*
X100407688Y-38391495D01*
X100239701Y-38642905D01*
X100123989Y-38922257D01*
X100065000Y-39218816D01*
X91647295Y-39218816D01*
X91633513Y-39078889D01*
X91548599Y-38798966D01*
X91410706Y-38540986D01*
X91225134Y-38314866D01*
X90999014Y-38129294D01*
X90944209Y-38100000D01*
X90999014Y-38070706D01*
X91225134Y-37885134D01*
X91410706Y-37659014D01*
X91548599Y-37401034D01*
X91633513Y-37121111D01*
X91662185Y-36830000D01*
X91633513Y-36538889D01*
X91548599Y-36258966D01*
X91410706Y-36000986D01*
X91225134Y-35774866D01*
X91195313Y-35750393D01*
X91264180Y-35729502D01*
X91374494Y-35670537D01*
X91471185Y-35591185D01*
X91550537Y-35494494D01*
X91609502Y-35384180D01*
X91645812Y-35264482D01*
X91658072Y-35140000D01*
X91658072Y-33440000D01*
X91645812Y-33315518D01*
X91609502Y-33195820D01*
X91550537Y-33085506D01*
X91496778Y-33020000D01*
X95078057Y-33020000D01*
X95105764Y-33301309D01*
X95187818Y-33571808D01*
X95321068Y-33821101D01*
X95500392Y-34039608D01*
X95718899Y-34218932D01*
X95968192Y-34352182D01*
X96238691Y-34434236D01*
X96449508Y-34455000D01*
X96590492Y-34455000D01*
X96801309Y-34434236D01*
X97071808Y-34352182D01*
X97321101Y-34218932D01*
X97539608Y-34039608D01*
X97718932Y-33821101D01*
X97852182Y-33571808D01*
X97934236Y-33301309D01*
X97961943Y-33020000D01*
X97934236Y-32738691D01*
X97852182Y-32468192D01*
X97719521Y-32220000D01*
X102701928Y-32220000D01*
X102701928Y-33820000D01*
X102714188Y-33944482D01*
X102750498Y-34064180D01*
X102809463Y-34174494D01*
X102888815Y-34271185D01*
X102985506Y-34350537D01*
X103095820Y-34409502D01*
X103215518Y-34445812D01*
X103340000Y-34458072D01*
X104940000Y-34458072D01*
X105064482Y-34445812D01*
X105184180Y-34409502D01*
X105294494Y-34350537D01*
X105391185Y-34271185D01*
X105470537Y-34174494D01*
X105529502Y-34064180D01*
X105565812Y-33944482D01*
X105578072Y-33820000D01*
X105578072Y-32220000D01*
X105565812Y-32095518D01*
X105529502Y-31975820D01*
X105470537Y-31865506D01*
X105391185Y-31768815D01*
X105294494Y-31689463D01*
X105184180Y-31630498D01*
X105064482Y-31594188D01*
X104940000Y-31581928D01*
X103340000Y-31581928D01*
X103215518Y-31594188D01*
X103095820Y-31630498D01*
X102985506Y-31689463D01*
X102888815Y-31768815D01*
X102809463Y-31865506D01*
X102750498Y-31975820D01*
X102714188Y-32095518D01*
X102701928Y-32220000D01*
X97719521Y-32220000D01*
X97718932Y-32218899D01*
X97539608Y-32000392D01*
X97321101Y-31821068D01*
X97071808Y-31687818D01*
X96801309Y-31605764D01*
X96590492Y-31585000D01*
X96449508Y-31585000D01*
X96238691Y-31605764D01*
X95968192Y-31687818D01*
X95718899Y-31821068D01*
X95500392Y-32000392D01*
X95321068Y-32218899D01*
X95187818Y-32468192D01*
X95105764Y-32738691D01*
X95078057Y-33020000D01*
X91496778Y-33020000D01*
X91471185Y-32988815D01*
X91374494Y-32909463D01*
X91264180Y-32850498D01*
X91144482Y-32814188D01*
X91020000Y-32801928D01*
X89320000Y-32801928D01*
X89195518Y-32814188D01*
X89075820Y-32850498D01*
X88965506Y-32909463D01*
X88868815Y-32988815D01*
X88789463Y-33085506D01*
X88730498Y-33195820D01*
X88694188Y-33315518D01*
X88681928Y-33440000D01*
X88681928Y-35140000D01*
X88694188Y-35264482D01*
X88730498Y-35384180D01*
X88789463Y-35494494D01*
X88868815Y-35591185D01*
X88965506Y-35670537D01*
X89075820Y-35729502D01*
X89144687Y-35750393D01*
X89114866Y-35774866D01*
X88929294Y-36000986D01*
X88791401Y-36258966D01*
X88706487Y-36538889D01*
X88677815Y-36830000D01*
X85312185Y-36830000D01*
X85283513Y-36538889D01*
X85198599Y-36258966D01*
X85060706Y-36000986D01*
X84875134Y-35774866D01*
X84845313Y-35750393D01*
X84914180Y-35729502D01*
X85024494Y-35670537D01*
X85121185Y-35591185D01*
X85200537Y-35494494D01*
X85259502Y-35384180D01*
X85295812Y-35264482D01*
X85308072Y-35140000D01*
X85308072Y-33440000D01*
X85295812Y-33315518D01*
X85259502Y-33195820D01*
X85200537Y-33085506D01*
X85121185Y-32988815D01*
X85024494Y-32909463D01*
X84914180Y-32850498D01*
X84794482Y-32814188D01*
X84670000Y-32801928D01*
X82970000Y-32801928D01*
X82845518Y-32814188D01*
X82725820Y-32850498D01*
X82615506Y-32909463D01*
X82518815Y-32988815D01*
X82439463Y-33085506D01*
X82380498Y-33195820D01*
X82344188Y-33315518D01*
X82331928Y-33440000D01*
X82331928Y-35140000D01*
X82344188Y-35264482D01*
X82380498Y-35384180D01*
X82439463Y-35494494D01*
X82518815Y-35591185D01*
X82615506Y-35670537D01*
X82725820Y-35729502D01*
X82794687Y-35750393D01*
X82764866Y-35774866D01*
X82579294Y-36000986D01*
X82441401Y-36258966D01*
X82356487Y-36538889D01*
X82327815Y-36830000D01*
X82355728Y-37113404D01*
X80718579Y-38750554D01*
X80695000Y-38769905D01*
X80695000Y-28625000D01*
X109175560Y-28625000D01*
X109157818Y-28658192D01*
X109157818Y-28658192D01*
G37*
X109157818Y-28658192D02*
X109075764Y-28928691D01*
X109048057Y-29210000D01*
X109075764Y-29491309D01*
X109157818Y-29761808D01*
X109291068Y-30011101D01*
X109470392Y-30229608D01*
X109688899Y-30408932D01*
X109938192Y-30542182D01*
X110208691Y-30624236D01*
X110419508Y-30645000D01*
X110560492Y-30645000D01*
X110771309Y-30624236D01*
X111041808Y-30542182D01*
X111291101Y-30408932D01*
X111509608Y-30229608D01*
X111688932Y-30011101D01*
X111822182Y-29761808D01*
X111904236Y-29491309D01*
X111931943Y-29210000D01*
X111904236Y-28928691D01*
X111822182Y-28658192D01*
X111804440Y-28625000D01*
X112985560Y-28625000D01*
X112967818Y-28658192D01*
X112885764Y-28928691D01*
X112858057Y-29210000D01*
X112885764Y-29491309D01*
X112967818Y-29761808D01*
X113101068Y-30011101D01*
X113280392Y-30229608D01*
X113498899Y-30408932D01*
X113540000Y-30430901D01*
X113540001Y-32705197D01*
X102555199Y-43690000D01*
X95287325Y-43690000D01*
X95250000Y-43686324D01*
X95212675Y-43690000D01*
X95212667Y-43690000D01*
X95101014Y-43700997D01*
X94957753Y-43744454D01*
X94825724Y-43815026D01*
X94709999Y-43909999D01*
X94686201Y-43938997D01*
X90384004Y-48241195D01*
X90355000Y-48264998D01*
X90300778Y-48331068D01*
X90260027Y-48380723D01*
X90203851Y-48485820D01*
X90189455Y-48512753D01*
X90145998Y-48656014D01*
X90135001Y-48767667D01*
X90135001Y-48767677D01*
X90131325Y-48804999D01*
X90135001Y-48842321D01*
X90135002Y-54845000D01*
X90068061Y-54845000D01*
X89868102Y-54884774D01*
X89679744Y-54962795D01*
X89510226Y-55076063D01*
X89466289Y-55120000D01*
X87047114Y-55120000D01*
X87113513Y-54901111D01*
X87142185Y-54610000D01*
X87113513Y-54318889D01*
X87028599Y-54038966D01*
X86890706Y-53780986D01*
X86705134Y-53554866D01*
X86479014Y-53369294D01*
X86424209Y-53340000D01*
X86479014Y-53310706D01*
X86705134Y-53125134D01*
X86890706Y-52899014D01*
X87028599Y-52641034D01*
X87113513Y-52361111D01*
X87142185Y-52070000D01*
X87113513Y-51778889D01*
X87028599Y-51498966D01*
X86890706Y-51240986D01*
X86705134Y-51014866D01*
X86479014Y-50829294D01*
X86221034Y-50691401D01*
X85941111Y-50606487D01*
X85722950Y-50585000D01*
X85577050Y-50585000D01*
X85358889Y-50606487D01*
X85078966Y-50691401D01*
X84820986Y-50829294D01*
X84594866Y-51014866D01*
X84570393Y-51044687D01*
X84549502Y-50975820D01*
X84490537Y-50865506D01*
X84411185Y-50768815D01*
X84314494Y-50689463D01*
X84204180Y-50630498D01*
X84084482Y-50594188D01*
X83960000Y-50581928D01*
X82694999Y-50581928D01*
X82694999Y-46690001D01*
X82764866Y-46775134D01*
X82990986Y-46960706D01*
X83248966Y-47098599D01*
X83528889Y-47183513D01*
X83747050Y-47205000D01*
X83892950Y-47205000D01*
X84111111Y-47183513D01*
X84391034Y-47098599D01*
X84649014Y-46960706D01*
X84875134Y-46775134D01*
X85060706Y-46549014D01*
X85198599Y-46291034D01*
X85283513Y-46011111D01*
X85312185Y-45720000D01*
X85283513Y-45428889D01*
X85198599Y-45148966D01*
X85060706Y-44890986D01*
X84875134Y-44664866D01*
X84845313Y-44640393D01*
X84914180Y-44619502D01*
X85024494Y-44560537D01*
X85121185Y-44481185D01*
X85200537Y-44384494D01*
X85259502Y-44274180D01*
X85295812Y-44154482D01*
X85308072Y-44030000D01*
X85308072Y-42330000D01*
X85295812Y-42205518D01*
X85259502Y-42085820D01*
X85200537Y-41975506D01*
X85121185Y-41878815D01*
X85024494Y-41799463D01*
X84914180Y-41740498D01*
X84794482Y-41704188D01*
X84670000Y-41691928D01*
X82970000Y-41691928D01*
X82845518Y-41704188D01*
X82725820Y-41740498D01*
X82615506Y-41799463D01*
X82518815Y-41878815D01*
X82439463Y-41975506D01*
X82380498Y-42085820D01*
X82344188Y-42205518D01*
X82331928Y-42330000D01*
X82331928Y-42525674D01*
X82295723Y-42545026D01*
X82212083Y-42613668D01*
X82179999Y-42639999D01*
X82156201Y-42668998D01*
X82115000Y-42710198D01*
X82115000Y-39715867D01*
X83536596Y-38294272D01*
X83747050Y-38315000D01*
X83892950Y-38315000D01*
X84111111Y-38293513D01*
X84391034Y-38208599D01*
X84649014Y-38070706D01*
X84875134Y-37885134D01*
X85060706Y-37659014D01*
X85198599Y-37401034D01*
X85283513Y-37121111D01*
X85312185Y-36830000D01*
X88677815Y-36830000D01*
X88706487Y-37121111D01*
X88791401Y-37401034D01*
X88929294Y-37659014D01*
X89114866Y-37885134D01*
X89340986Y-38070706D01*
X89395791Y-38100000D01*
X89340986Y-38129294D01*
X89114866Y-38314866D01*
X88929294Y-38540986D01*
X88791401Y-38798966D01*
X88706487Y-39078889D01*
X88677815Y-39370000D01*
X88706487Y-39661111D01*
X88791401Y-39941034D01*
X88929294Y-40199014D01*
X89114866Y-40425134D01*
X89340986Y-40610706D01*
X89598966Y-40748599D01*
X89878889Y-40833513D01*
X90097050Y-40855000D01*
X90242950Y-40855000D01*
X90461111Y-40833513D01*
X90741034Y-40748599D01*
X90999014Y-40610706D01*
X91225134Y-40425134D01*
X91410706Y-40199014D01*
X91548599Y-39941034D01*
X91633513Y-39661111D01*
X91662185Y-39370000D01*
X91647295Y-39218816D01*
X100065000Y-39218816D01*
X100065000Y-39521184D01*
X100123989Y-39817743D01*
X100239701Y-40097095D01*
X100407688Y-40348505D01*
X100621495Y-40562312D01*
X100872905Y-40730299D01*
X101152257Y-40846011D01*
X101448816Y-40905000D01*
X101751184Y-40905000D01*
X102047743Y-40846011D01*
X102327095Y-40730299D01*
X102578505Y-40562312D01*
X102644944Y-40495873D01*
X102650498Y-40514180D01*
X102709463Y-40624494D01*
X102788815Y-40721185D01*
X102885506Y-40800537D01*
X102995820Y-40859502D01*
X103115518Y-40895812D01*
X103240000Y-40908072D01*
X105040000Y-40908072D01*
X105164482Y-40895812D01*
X105284180Y-40859502D01*
X105394494Y-40800537D01*
X105491185Y-40721185D01*
X105570537Y-40624494D01*
X105629502Y-40514180D01*
X105665812Y-40394482D01*
X105678072Y-40270000D01*
X105678072Y-38470000D01*
X105665812Y-38345518D01*
X105629502Y-38225820D01*
X105570537Y-38115506D01*
X105491185Y-38018815D01*
X105394494Y-37939463D01*
X105284180Y-37880498D01*
X105164482Y-37844188D01*
X105040000Y-37831928D01*
X103240000Y-37831928D01*
X103115518Y-37844188D01*
X102995820Y-37880498D01*
X102885506Y-37939463D01*
X102788815Y-38018815D01*
X102709463Y-38115506D01*
X102650498Y-38225820D01*
X102644944Y-38244127D01*
X102578505Y-38177688D01*
X102327095Y-38009701D01*
X102047743Y-37893989D01*
X101751184Y-37835000D01*
X101448816Y-37835000D01*
X101152257Y-37893989D01*
X100872905Y-38009701D01*
X100621495Y-38177688D01*
X100407688Y-38391495D01*
X100239701Y-38642905D01*
X100123989Y-38922257D01*
X100065000Y-39218816D01*
X91647295Y-39218816D01*
X91633513Y-39078889D01*
X91548599Y-38798966D01*
X91410706Y-38540986D01*
X91225134Y-38314866D01*
X90999014Y-38129294D01*
X90944209Y-38100000D01*
X90999014Y-38070706D01*
X91225134Y-37885134D01*
X91410706Y-37659014D01*
X91548599Y-37401034D01*
X91633513Y-37121111D01*
X91662185Y-36830000D01*
X91633513Y-36538889D01*
X91548599Y-36258966D01*
X91410706Y-36000986D01*
X91225134Y-35774866D01*
X91195313Y-35750393D01*
X91264180Y-35729502D01*
X91374494Y-35670537D01*
X91471185Y-35591185D01*
X91550537Y-35494494D01*
X91609502Y-35384180D01*
X91645812Y-35264482D01*
X91658072Y-35140000D01*
X91658072Y-33440000D01*
X91645812Y-33315518D01*
X91609502Y-33195820D01*
X91550537Y-33085506D01*
X91496778Y-33020000D01*
X95078057Y-33020000D01*
X95105764Y-33301309D01*
X95187818Y-33571808D01*
X95321068Y-33821101D01*
X95500392Y-34039608D01*
X95718899Y-34218932D01*
X95968192Y-34352182D01*
X96238691Y-34434236D01*
X96449508Y-34455000D01*
X96590492Y-34455000D01*
X96801309Y-34434236D01*
X97071808Y-34352182D01*
X97321101Y-34218932D01*
X97539608Y-34039608D01*
X97718932Y-33821101D01*
X97852182Y-33571808D01*
X97934236Y-33301309D01*
X97961943Y-33020000D01*
X97934236Y-32738691D01*
X97852182Y-32468192D01*
X97719521Y-32220000D01*
X102701928Y-32220000D01*
X102701928Y-33820000D01*
X102714188Y-33944482D01*
X102750498Y-34064180D01*
X102809463Y-34174494D01*
X102888815Y-34271185D01*
X102985506Y-34350537D01*
X103095820Y-34409502D01*
X103215518Y-34445812D01*
X103340000Y-34458072D01*
X104940000Y-34458072D01*
X105064482Y-34445812D01*
X105184180Y-34409502D01*
X105294494Y-34350537D01*
X105391185Y-34271185D01*
X105470537Y-34174494D01*
X105529502Y-34064180D01*
X105565812Y-33944482D01*
X105578072Y-33820000D01*
X105578072Y-32220000D01*
X105565812Y-32095518D01*
X105529502Y-31975820D01*
X105470537Y-31865506D01*
X105391185Y-31768815D01*
X105294494Y-31689463D01*
X105184180Y-31630498D01*
X105064482Y-31594188D01*
X104940000Y-31581928D01*
X103340000Y-31581928D01*
X103215518Y-31594188D01*
X103095820Y-31630498D01*
X102985506Y-31689463D01*
X102888815Y-31768815D01*
X102809463Y-31865506D01*
X102750498Y-31975820D01*
X102714188Y-32095518D01*
X102701928Y-32220000D01*
X97719521Y-32220000D01*
X97718932Y-32218899D01*
X97539608Y-32000392D01*
X97321101Y-31821068D01*
X97071808Y-31687818D01*
X96801309Y-31605764D01*
X96590492Y-31585000D01*
X96449508Y-31585000D01*
X96238691Y-31605764D01*
X95968192Y-31687818D01*
X95718899Y-31821068D01*
X95500392Y-32000392D01*
X95321068Y-32218899D01*
X95187818Y-32468192D01*
X95105764Y-32738691D01*
X95078057Y-33020000D01*
X91496778Y-33020000D01*
X91471185Y-32988815D01*
X91374494Y-32909463D01*
X91264180Y-32850498D01*
X91144482Y-32814188D01*
X91020000Y-32801928D01*
X89320000Y-32801928D01*
X89195518Y-32814188D01*
X89075820Y-32850498D01*
X88965506Y-32909463D01*
X88868815Y-32988815D01*
X88789463Y-33085506D01*
X88730498Y-33195820D01*
X88694188Y-33315518D01*
X88681928Y-33440000D01*
X88681928Y-35140000D01*
X88694188Y-35264482D01*
X88730498Y-35384180D01*
X88789463Y-35494494D01*
X88868815Y-35591185D01*
X88965506Y-35670537D01*
X89075820Y-35729502D01*
X89144687Y-35750393D01*
X89114866Y-35774866D01*
X88929294Y-36000986D01*
X88791401Y-36258966D01*
X88706487Y-36538889D01*
X88677815Y-36830000D01*
X85312185Y-36830000D01*
X85283513Y-36538889D01*
X85198599Y-36258966D01*
X85060706Y-36000986D01*
X84875134Y-35774866D01*
X84845313Y-35750393D01*
X84914180Y-35729502D01*
X85024494Y-35670537D01*
X85121185Y-35591185D01*
X85200537Y-35494494D01*
X85259502Y-35384180D01*
X85295812Y-35264482D01*
X85308072Y-35140000D01*
X85308072Y-33440000D01*
X85295812Y-33315518D01*
X85259502Y-33195820D01*
X85200537Y-33085506D01*
X85121185Y-32988815D01*
X85024494Y-32909463D01*
X84914180Y-32850498D01*
X84794482Y-32814188D01*
X84670000Y-32801928D01*
X82970000Y-32801928D01*
X82845518Y-32814188D01*
X82725820Y-32850498D01*
X82615506Y-32909463D01*
X82518815Y-32988815D01*
X82439463Y-33085506D01*
X82380498Y-33195820D01*
X82344188Y-33315518D01*
X82331928Y-33440000D01*
X82331928Y-35140000D01*
X82344188Y-35264482D01*
X82380498Y-35384180D01*
X82439463Y-35494494D01*
X82518815Y-35591185D01*
X82615506Y-35670537D01*
X82725820Y-35729502D01*
X82794687Y-35750393D01*
X82764866Y-35774866D01*
X82579294Y-36000986D01*
X82441401Y-36258966D01*
X82356487Y-36538889D01*
X82327815Y-36830000D01*
X82355728Y-37113404D01*
X80718579Y-38750554D01*
X80695000Y-38769905D01*
X80695000Y-28625000D01*
X109175560Y-28625000D01*
X109157818Y-28658192D01*
M02*
