G04 #@! TF.GenerationSoftware,KiCad,Pcbnew,(5.1.2)-1*
G04 #@! TF.CreationDate,2019-10-23T16:56:51-07:00*
G04 #@! TF.ProjectId,29Fx00-28Fx00,32394678-3030-42d3-9238-467830302e6b,rev?*
G04 #@! TF.SameCoordinates,Original*
G04 #@! TF.FileFunction,Legend,Bot*
G04 #@! TF.FilePolarity,Positive*
%FSLAX46Y46*%
G04 Gerber Fmt 4.6, Leading zero omitted, Abs format (unit mm)*
G04 Created by KiCad (PCBNEW (5.1.2)-1) date 2019-10-23 16:56:51*
%MOMM*%
%LPD*%
G04 APERTURE LIST*
%ADD10C,0.150000*%
G04 APERTURE END LIST*
D10*
X96329880Y-29440714D02*
X96091785Y-30107380D01*
X95853690Y-29440714D01*
X94948928Y-30107380D02*
X95520357Y-30107380D01*
X95234642Y-30107380D02*
X95234642Y-29107380D01*
X95329880Y-29250238D01*
X95425119Y-29345476D01*
X95520357Y-29393095D01*
X94520357Y-30012142D02*
X94472738Y-30059761D01*
X94520357Y-30107380D01*
X94567976Y-30059761D01*
X94520357Y-30012142D01*
X94520357Y-30107380D01*
X93853690Y-29107380D02*
X93758452Y-29107380D01*
X93663214Y-29155000D01*
X93615595Y-29202619D01*
X93567976Y-29297857D01*
X93520357Y-29488333D01*
X93520357Y-29726428D01*
X93567976Y-29916904D01*
X93615595Y-30012142D01*
X93663214Y-30059761D01*
X93758452Y-30107380D01*
X93853690Y-30107380D01*
X93948928Y-30059761D01*
X93996547Y-30012142D01*
X94044166Y-29916904D01*
X94091785Y-29726428D01*
X94091785Y-29488333D01*
X94044166Y-29297857D01*
X93996547Y-29202619D01*
X93948928Y-29155000D01*
X93853690Y-29107380D01*
X92329880Y-30107380D02*
X92329880Y-29107380D01*
X92329880Y-29488333D02*
X92234642Y-29440714D01*
X92044166Y-29440714D01*
X91948928Y-29488333D01*
X91901309Y-29535952D01*
X91853690Y-29631190D01*
X91853690Y-29916904D01*
X91901309Y-30012142D01*
X91948928Y-30059761D01*
X92044166Y-30107380D01*
X92234642Y-30107380D01*
X92329880Y-30059761D01*
X91520357Y-29440714D02*
X91282261Y-30107380D01*
X91044166Y-29440714D02*
X91282261Y-30107380D01*
X91377500Y-30345476D01*
X91425119Y-30393095D01*
X91520357Y-30440714D01*
X89901309Y-30107380D02*
X89901309Y-29107380D01*
X89329880Y-30107380D02*
X89758452Y-29535952D01*
X89329880Y-29107380D02*
X89901309Y-29678809D01*
X88520357Y-30059761D02*
X88615595Y-30107380D01*
X88806071Y-30107380D01*
X88901309Y-30059761D01*
X88948928Y-29964523D01*
X88948928Y-29583571D01*
X88901309Y-29488333D01*
X88806071Y-29440714D01*
X88615595Y-29440714D01*
X88520357Y-29488333D01*
X88472738Y-29583571D01*
X88472738Y-29678809D01*
X88948928Y-29774047D01*
X88044166Y-30107380D02*
X88044166Y-29440714D01*
X88044166Y-29107380D02*
X88091785Y-29155000D01*
X88044166Y-29202619D01*
X87996547Y-29155000D01*
X88044166Y-29107380D01*
X88044166Y-29202619D01*
X87710833Y-29440714D02*
X87329880Y-29440714D01*
X87567976Y-29107380D02*
X87567976Y-29964523D01*
X87520357Y-30059761D01*
X87425119Y-30107380D01*
X87329880Y-30107380D01*
X86996547Y-30107380D02*
X86996547Y-29107380D01*
X86567976Y-30107380D02*
X86567976Y-29583571D01*
X86615595Y-29488333D01*
X86710833Y-29440714D01*
X86853690Y-29440714D01*
X86948928Y-29488333D01*
X86996547Y-29535952D01*
X84806071Y-29155000D02*
X84901309Y-29107380D01*
X85044166Y-29107380D01*
X85187023Y-29155000D01*
X85282261Y-29250238D01*
X85329880Y-29345476D01*
X85377500Y-29535952D01*
X85377500Y-29678809D01*
X85329880Y-29869285D01*
X85282261Y-29964523D01*
X85187023Y-30059761D01*
X85044166Y-30107380D01*
X84948928Y-30107380D01*
X84806071Y-30059761D01*
X84758452Y-30012142D01*
X84758452Y-29678809D01*
X84948928Y-29678809D01*
X83901309Y-30107380D02*
X83901309Y-29583571D01*
X83948928Y-29488333D01*
X84044166Y-29440714D01*
X84234642Y-29440714D01*
X84329880Y-29488333D01*
X83901309Y-30059761D02*
X83996547Y-30107380D01*
X84234642Y-30107380D01*
X84329880Y-30059761D01*
X84377500Y-29964523D01*
X84377500Y-29869285D01*
X84329880Y-29774047D01*
X84234642Y-29726428D01*
X83996547Y-29726428D01*
X83901309Y-29678809D01*
X83425119Y-30107380D02*
X83425119Y-29107380D01*
X83425119Y-29488333D02*
X83329880Y-29440714D01*
X83139404Y-29440714D01*
X83044166Y-29488333D01*
X82996547Y-29535952D01*
X82948928Y-29631190D01*
X82948928Y-29916904D01*
X82996547Y-30012142D01*
X83044166Y-30059761D01*
X83139404Y-30107380D01*
X83329880Y-30107380D01*
X83425119Y-30059761D01*
X82377500Y-30107380D02*
X82472738Y-30059761D01*
X82520357Y-29964523D01*
X82520357Y-29107380D01*
X81615595Y-30059761D02*
X81710833Y-30107380D01*
X81901309Y-30107380D01*
X81996547Y-30059761D01*
X82044166Y-29964523D01*
X82044166Y-29583571D01*
X81996547Y-29488333D01*
X81901309Y-29440714D01*
X81710833Y-29440714D01*
X81615595Y-29488333D01*
X81567976Y-29583571D01*
X81567976Y-29678809D01*
X82044166Y-29774047D01*
X101996547Y-31090714D02*
X101472738Y-31090714D01*
X101996547Y-31757380D01*
X101472738Y-31757380D01*
X101091785Y-31757380D02*
X101091785Y-31090714D01*
X101091785Y-30757380D02*
X101139404Y-30805000D01*
X101091785Y-30852619D01*
X101044166Y-30805000D01*
X101091785Y-30757380D01*
X101091785Y-30852619D01*
X100187023Y-31090714D02*
X100187023Y-31900238D01*
X100234642Y-31995476D01*
X100282261Y-32043095D01*
X100377500Y-32090714D01*
X100520357Y-32090714D01*
X100615595Y-32043095D01*
X100187023Y-31709761D02*
X100282261Y-31757380D01*
X100472738Y-31757380D01*
X100567976Y-31709761D01*
X100615595Y-31662142D01*
X100663214Y-31566904D01*
X100663214Y-31281190D01*
X100615595Y-31185952D01*
X100567976Y-31138333D01*
X100472738Y-31090714D01*
X100282261Y-31090714D01*
X100187023Y-31138333D01*
X99282261Y-31090714D02*
X99282261Y-31900238D01*
X99329880Y-31995476D01*
X99377500Y-32043095D01*
X99472738Y-32090714D01*
X99615595Y-32090714D01*
X99710833Y-32043095D01*
X99282261Y-31709761D02*
X99377500Y-31757380D01*
X99567976Y-31757380D01*
X99663214Y-31709761D01*
X99710833Y-31662142D01*
X99758452Y-31566904D01*
X99758452Y-31281190D01*
X99710833Y-31185952D01*
X99663214Y-31138333D01*
X99567976Y-31090714D01*
X99377500Y-31090714D01*
X99282261Y-31138333D01*
X98901309Y-31090714D02*
X98663214Y-31757380D01*
X98425119Y-31090714D02*
X98663214Y-31757380D01*
X98758452Y-31995476D01*
X98806071Y-32043095D01*
X98901309Y-32090714D01*
X97425119Y-31281190D02*
X97472738Y-31233571D01*
X97567976Y-31185952D01*
X97663214Y-31185952D01*
X97758452Y-31233571D01*
X97806071Y-31281190D01*
X97853690Y-31376428D01*
X97853690Y-31471666D01*
X97806071Y-31566904D01*
X97758452Y-31614523D01*
X97663214Y-31662142D01*
X97567976Y-31662142D01*
X97472738Y-31614523D01*
X97425119Y-31566904D01*
X97425119Y-31185952D02*
X97425119Y-31566904D01*
X97377500Y-31614523D01*
X97329880Y-31614523D01*
X97234642Y-31566904D01*
X97187023Y-31471666D01*
X97187023Y-31233571D01*
X97282261Y-31090714D01*
X97425119Y-30995476D01*
X97615595Y-30947857D01*
X97806071Y-30995476D01*
X97948928Y-31090714D01*
X98044166Y-31233571D01*
X98091785Y-31424047D01*
X98044166Y-31614523D01*
X97948928Y-31757380D01*
X97806071Y-31852619D01*
X97615595Y-31900238D01*
X97425119Y-31852619D01*
X97282261Y-31757380D01*
X96758452Y-31757380D02*
X96758452Y-31090714D01*
X96758452Y-30757380D02*
X96806071Y-30805000D01*
X96758452Y-30852619D01*
X96710833Y-30805000D01*
X96758452Y-30757380D01*
X96758452Y-30852619D01*
X95853690Y-31090714D02*
X95853690Y-31900238D01*
X95901309Y-31995476D01*
X95948928Y-32043095D01*
X96044166Y-32090714D01*
X96187023Y-32090714D01*
X96282261Y-32043095D01*
X95853690Y-31709761D02*
X95948928Y-31757380D01*
X96139404Y-31757380D01*
X96234642Y-31709761D01*
X96282261Y-31662142D01*
X96329880Y-31566904D01*
X96329880Y-31281190D01*
X96282261Y-31185952D01*
X96234642Y-31138333D01*
X96139404Y-31090714D01*
X95948928Y-31090714D01*
X95853690Y-31138333D01*
X95377500Y-31090714D02*
X95377500Y-31757380D01*
X95377500Y-31185952D02*
X95329880Y-31138333D01*
X95234642Y-31090714D01*
X95091785Y-31090714D01*
X94996547Y-31138333D01*
X94948928Y-31233571D01*
X94948928Y-31757380D01*
X94472738Y-31757380D02*
X94472738Y-31090714D01*
X94472738Y-30757380D02*
X94520357Y-30805000D01*
X94472738Y-30852619D01*
X94425119Y-30805000D01*
X94472738Y-30757380D01*
X94472738Y-30852619D01*
X94139404Y-31090714D02*
X93758452Y-31090714D01*
X93996547Y-30757380D02*
X93996547Y-31614523D01*
X93948928Y-31709761D01*
X93853690Y-31757380D01*
X93758452Y-31757380D01*
X93425119Y-31757380D02*
X93425119Y-31090714D01*
X93425119Y-30757380D02*
X93472738Y-30805000D01*
X93425119Y-30852619D01*
X93377500Y-30805000D01*
X93425119Y-30757380D01*
X93425119Y-30852619D01*
X92806071Y-31757380D02*
X92901309Y-31709761D01*
X92948928Y-31662142D01*
X92996547Y-31566904D01*
X92996547Y-31281190D01*
X92948928Y-31185952D01*
X92901309Y-31138333D01*
X92806071Y-31090714D01*
X92663214Y-31090714D01*
X92567976Y-31138333D01*
X92520357Y-31185952D01*
X92472738Y-31281190D01*
X92472738Y-31566904D01*
X92520357Y-31662142D01*
X92567976Y-31709761D01*
X92663214Y-31757380D01*
X92806071Y-31757380D01*
X92044166Y-31090714D02*
X92044166Y-31757380D01*
X92044166Y-31185952D02*
X91996547Y-31138333D01*
X91901309Y-31090714D01*
X91758452Y-31090714D01*
X91663214Y-31138333D01*
X91615595Y-31233571D01*
X91615595Y-31757380D01*
X91139404Y-31376428D02*
X90377500Y-31376428D01*
X89901309Y-31090714D02*
X89901309Y-32090714D01*
X89901309Y-31138333D02*
X89806071Y-31090714D01*
X89615595Y-31090714D01*
X89520357Y-31138333D01*
X89472738Y-31185952D01*
X89425119Y-31281190D01*
X89425119Y-31566904D01*
X89472738Y-31662142D01*
X89520357Y-31709761D01*
X89615595Y-31757380D01*
X89806071Y-31757380D01*
X89901309Y-31709761D01*
X88996547Y-31757380D02*
X88996547Y-31090714D01*
X88996547Y-31281190D02*
X88948928Y-31185952D01*
X88901309Y-31138333D01*
X88806071Y-31090714D01*
X88710833Y-31090714D01*
X88234642Y-31757380D02*
X88329880Y-31709761D01*
X88377500Y-31662142D01*
X88425119Y-31566904D01*
X88425119Y-31281190D01*
X88377500Y-31185952D01*
X88329880Y-31138333D01*
X88234642Y-31090714D01*
X88091785Y-31090714D01*
X87996547Y-31138333D01*
X87948928Y-31185952D01*
X87901309Y-31281190D01*
X87901309Y-31566904D01*
X87948928Y-31662142D01*
X87996547Y-31709761D01*
X88091785Y-31757380D01*
X88234642Y-31757380D01*
X87472738Y-31090714D02*
X87472738Y-31947857D01*
X87520357Y-32043095D01*
X87615595Y-32090714D01*
X87663214Y-32090714D01*
X87472738Y-30757380D02*
X87520357Y-30805000D01*
X87472738Y-30852619D01*
X87425119Y-30805000D01*
X87472738Y-30757380D01*
X87472738Y-30852619D01*
X86615595Y-31709761D02*
X86710833Y-31757380D01*
X86901309Y-31757380D01*
X86996547Y-31709761D01*
X87044166Y-31614523D01*
X87044166Y-31233571D01*
X86996547Y-31138333D01*
X86901309Y-31090714D01*
X86710833Y-31090714D01*
X86615595Y-31138333D01*
X86567976Y-31233571D01*
X86567976Y-31328809D01*
X87044166Y-31424047D01*
X85710833Y-31709761D02*
X85806071Y-31757380D01*
X85996547Y-31757380D01*
X86091785Y-31709761D01*
X86139404Y-31662142D01*
X86187023Y-31566904D01*
X86187023Y-31281190D01*
X86139404Y-31185952D01*
X86091785Y-31138333D01*
X85996547Y-31090714D01*
X85806071Y-31090714D01*
X85710833Y-31138333D01*
X85425119Y-31090714D02*
X85044166Y-31090714D01*
X85282261Y-30757380D02*
X85282261Y-31614523D01*
X85234642Y-31709761D01*
X85139404Y-31757380D01*
X85044166Y-31757380D01*
X84710833Y-31662142D02*
X84663214Y-31709761D01*
X84710833Y-31757380D01*
X84758452Y-31709761D01*
X84710833Y-31662142D01*
X84710833Y-31757380D01*
X83806071Y-31709761D02*
X83901309Y-31757380D01*
X84091785Y-31757380D01*
X84187023Y-31709761D01*
X84234642Y-31662142D01*
X84282261Y-31566904D01*
X84282261Y-31281190D01*
X84234642Y-31185952D01*
X84187023Y-31138333D01*
X84091785Y-31090714D01*
X83901309Y-31090714D01*
X83806071Y-31138333D01*
X83234642Y-31757380D02*
X83329880Y-31709761D01*
X83377500Y-31662142D01*
X83425119Y-31566904D01*
X83425119Y-31281190D01*
X83377500Y-31185952D01*
X83329880Y-31138333D01*
X83234642Y-31090714D01*
X83091785Y-31090714D01*
X82996547Y-31138333D01*
X82948928Y-31185952D01*
X82901309Y-31281190D01*
X82901309Y-31566904D01*
X82948928Y-31662142D01*
X82996547Y-31709761D01*
X83091785Y-31757380D01*
X83234642Y-31757380D01*
X82472738Y-31757380D02*
X82472738Y-31090714D01*
X82472738Y-31185952D02*
X82425119Y-31138333D01*
X82329880Y-31090714D01*
X82187023Y-31090714D01*
X82091785Y-31138333D01*
X82044166Y-31233571D01*
X82044166Y-31757380D01*
X82044166Y-31233571D02*
X81996547Y-31138333D01*
X81901309Y-31090714D01*
X81758452Y-31090714D01*
X81663214Y-31138333D01*
X81615595Y-31233571D01*
X81615595Y-31757380D01*
X128712023Y-33457619D02*
X128664404Y-33410000D01*
X128569166Y-33362380D01*
X128331071Y-33362380D01*
X128235833Y-33410000D01*
X128188214Y-33457619D01*
X128140595Y-33552857D01*
X128140595Y-33648095D01*
X128188214Y-33790952D01*
X128759642Y-34362380D01*
X128140595Y-34362380D01*
X127664404Y-34362380D02*
X127473928Y-34362380D01*
X127378690Y-34314761D01*
X127331071Y-34267142D01*
X127235833Y-34124285D01*
X127188214Y-33933809D01*
X127188214Y-33552857D01*
X127235833Y-33457619D01*
X127283452Y-33410000D01*
X127378690Y-33362380D01*
X127569166Y-33362380D01*
X127664404Y-33410000D01*
X127712023Y-33457619D01*
X127759642Y-33552857D01*
X127759642Y-33790952D01*
X127712023Y-33886190D01*
X127664404Y-33933809D01*
X127569166Y-33981428D01*
X127378690Y-33981428D01*
X127283452Y-33933809D01*
X127235833Y-33886190D01*
X127188214Y-33790952D01*
X126426309Y-33838571D02*
X126759642Y-33838571D01*
X126759642Y-34362380D02*
X126759642Y-33362380D01*
X126283452Y-33362380D01*
X125997738Y-34362380D02*
X125473928Y-33695714D01*
X125997738Y-33695714D02*
X125473928Y-34362380D01*
X124902500Y-33362380D02*
X124807261Y-33362380D01*
X124712023Y-33410000D01*
X124664404Y-33457619D01*
X124616785Y-33552857D01*
X124569166Y-33743333D01*
X124569166Y-33981428D01*
X124616785Y-34171904D01*
X124664404Y-34267142D01*
X124712023Y-34314761D01*
X124807261Y-34362380D01*
X124902500Y-34362380D01*
X124997738Y-34314761D01*
X125045357Y-34267142D01*
X125092976Y-34171904D01*
X125140595Y-33981428D01*
X125140595Y-33743333D01*
X125092976Y-33552857D01*
X125045357Y-33457619D01*
X124997738Y-33410000D01*
X124902500Y-33362380D01*
X123950119Y-33362380D02*
X123854880Y-33362380D01*
X123759642Y-33410000D01*
X123712023Y-33457619D01*
X123664404Y-33552857D01*
X123616785Y-33743333D01*
X123616785Y-33981428D01*
X123664404Y-34171904D01*
X123712023Y-34267142D01*
X123759642Y-34314761D01*
X123854880Y-34362380D01*
X123950119Y-34362380D01*
X124045357Y-34314761D01*
X124092976Y-34267142D01*
X124140595Y-34171904D01*
X124188214Y-33981428D01*
X124188214Y-33743333D01*
X124140595Y-33552857D01*
X124092976Y-33457619D01*
X124045357Y-33410000D01*
X123950119Y-33362380D01*
X121712023Y-33314761D02*
X122569166Y-34600476D01*
X120664404Y-33457619D02*
X120616785Y-33410000D01*
X120521547Y-33362380D01*
X120283452Y-33362380D01*
X120188214Y-33410000D01*
X120140595Y-33457619D01*
X120092976Y-33552857D01*
X120092976Y-33648095D01*
X120140595Y-33790952D01*
X120712023Y-34362380D01*
X120092976Y-34362380D01*
X119521547Y-33790952D02*
X119616785Y-33743333D01*
X119664404Y-33695714D01*
X119712023Y-33600476D01*
X119712023Y-33552857D01*
X119664404Y-33457619D01*
X119616785Y-33410000D01*
X119521547Y-33362380D01*
X119331071Y-33362380D01*
X119235833Y-33410000D01*
X119188214Y-33457619D01*
X119140595Y-33552857D01*
X119140595Y-33600476D01*
X119188214Y-33695714D01*
X119235833Y-33743333D01*
X119331071Y-33790952D01*
X119521547Y-33790952D01*
X119616785Y-33838571D01*
X119664404Y-33886190D01*
X119712023Y-33981428D01*
X119712023Y-34171904D01*
X119664404Y-34267142D01*
X119616785Y-34314761D01*
X119521547Y-34362380D01*
X119331071Y-34362380D01*
X119235833Y-34314761D01*
X119188214Y-34267142D01*
X119140595Y-34171904D01*
X119140595Y-33981428D01*
X119188214Y-33886190D01*
X119235833Y-33838571D01*
X119331071Y-33790952D01*
X118378690Y-33838571D02*
X118712023Y-33838571D01*
X118712023Y-34362380D02*
X118712023Y-33362380D01*
X118235833Y-33362380D01*
X117950119Y-34362380D02*
X117426309Y-33695714D01*
X117950119Y-33695714D02*
X117426309Y-34362380D01*
X116854880Y-33362380D02*
X116759642Y-33362380D01*
X116664404Y-33410000D01*
X116616785Y-33457619D01*
X116569166Y-33552857D01*
X116521547Y-33743333D01*
X116521547Y-33981428D01*
X116569166Y-34171904D01*
X116616785Y-34267142D01*
X116664404Y-34314761D01*
X116759642Y-34362380D01*
X116854880Y-34362380D01*
X116950119Y-34314761D01*
X116997738Y-34267142D01*
X117045357Y-34171904D01*
X117092976Y-33981428D01*
X117092976Y-33743333D01*
X117045357Y-33552857D01*
X116997738Y-33457619D01*
X116950119Y-33410000D01*
X116854880Y-33362380D01*
X115902500Y-33362380D02*
X115807261Y-33362380D01*
X115712023Y-33410000D01*
X115664404Y-33457619D01*
X115616785Y-33552857D01*
X115569166Y-33743333D01*
X115569166Y-33981428D01*
X115616785Y-34171904D01*
X115664404Y-34267142D01*
X115712023Y-34314761D01*
X115807261Y-34362380D01*
X115902500Y-34362380D01*
X115997738Y-34314761D01*
X116045357Y-34267142D01*
X116092976Y-34171904D01*
X116140595Y-33981428D01*
X116140595Y-33743333D01*
X116092976Y-33552857D01*
X116045357Y-33457619D01*
X115997738Y-33410000D01*
X115902500Y-33362380D01*
X114426309Y-34076666D02*
X113950119Y-34076666D01*
X114521547Y-34362380D02*
X114188214Y-33362380D01*
X113854880Y-34362380D01*
X113092976Y-34362380D02*
X113092976Y-33362380D01*
X113092976Y-34314761D02*
X113188214Y-34362380D01*
X113378690Y-34362380D01*
X113473928Y-34314761D01*
X113521547Y-34267142D01*
X113569166Y-34171904D01*
X113569166Y-33886190D01*
X113521547Y-33790952D01*
X113473928Y-33743333D01*
X113378690Y-33695714D01*
X113188214Y-33695714D01*
X113092976Y-33743333D01*
X112188214Y-34362380D02*
X112188214Y-33838571D01*
X112235833Y-33743333D01*
X112331071Y-33695714D01*
X112521547Y-33695714D01*
X112616785Y-33743333D01*
X112188214Y-34314761D02*
X112283452Y-34362380D01*
X112521547Y-34362380D01*
X112616785Y-34314761D01*
X112664404Y-34219523D01*
X112664404Y-34124285D01*
X112616785Y-34029047D01*
X112521547Y-33981428D01*
X112283452Y-33981428D01*
X112188214Y-33933809D01*
X111712023Y-33695714D02*
X111712023Y-34695714D01*
X111712023Y-33743333D02*
X111616785Y-33695714D01*
X111426309Y-33695714D01*
X111331071Y-33743333D01*
X111283452Y-33790952D01*
X111235833Y-33886190D01*
X111235833Y-34171904D01*
X111283452Y-34267142D01*
X111331071Y-34314761D01*
X111426309Y-34362380D01*
X111616785Y-34362380D01*
X111712023Y-34314761D01*
X110950119Y-33695714D02*
X110569166Y-33695714D01*
X110807261Y-33362380D02*
X110807261Y-34219523D01*
X110759642Y-34314761D01*
X110664404Y-34362380D01*
X110569166Y-34362380D01*
X109854880Y-34314761D02*
X109950119Y-34362380D01*
X110140595Y-34362380D01*
X110235833Y-34314761D01*
X110283452Y-34219523D01*
X110283452Y-33838571D01*
X110235833Y-33743333D01*
X110140595Y-33695714D01*
X109950119Y-33695714D01*
X109854880Y-33743333D01*
X109807261Y-33838571D01*
X109807261Y-33933809D01*
X110283452Y-34029047D01*
X109378690Y-34362380D02*
X109378690Y-33695714D01*
X109378690Y-33886190D02*
X109331071Y-33790952D01*
X109283452Y-33743333D01*
X109188214Y-33695714D01*
X109092976Y-33695714D01*
X108140595Y-33695714D02*
X107759642Y-33695714D01*
X107997738Y-34362380D02*
X107997738Y-33505238D01*
X107950119Y-33410000D01*
X107854880Y-33362380D01*
X107759642Y-33362380D01*
X107283452Y-34362380D02*
X107378690Y-34314761D01*
X107426309Y-34267142D01*
X107473928Y-34171904D01*
X107473928Y-33886190D01*
X107426309Y-33790952D01*
X107378690Y-33743333D01*
X107283452Y-33695714D01*
X107140595Y-33695714D01*
X107045357Y-33743333D01*
X106997738Y-33790952D01*
X106950119Y-33886190D01*
X106950119Y-34171904D01*
X106997738Y-34267142D01*
X107045357Y-34314761D01*
X107140595Y-34362380D01*
X107283452Y-34362380D01*
X106521547Y-34362380D02*
X106521547Y-33695714D01*
X106521547Y-33886190D02*
X106473928Y-33790952D01*
X106426309Y-33743333D01*
X106331071Y-33695714D01*
X106235833Y-33695714D01*
X128759642Y-35012380D02*
X128521547Y-36012380D01*
X128331071Y-35298095D01*
X128140595Y-36012380D01*
X127902500Y-35012380D01*
X127521547Y-36012380D02*
X127521547Y-35345714D01*
X127521547Y-35012380D02*
X127569166Y-35060000D01*
X127521547Y-35107619D01*
X127473928Y-35060000D01*
X127521547Y-35012380D01*
X127521547Y-35107619D01*
X126902500Y-36012380D02*
X126997738Y-35964761D01*
X127045357Y-35869523D01*
X127045357Y-35012380D01*
X126378690Y-36012380D02*
X126473928Y-35964761D01*
X126521547Y-35869523D01*
X126521547Y-35012380D01*
X125616785Y-35964761D02*
X125712023Y-36012380D01*
X125902500Y-36012380D01*
X125997738Y-35964761D01*
X126045357Y-35869523D01*
X126045357Y-35488571D01*
X125997738Y-35393333D01*
X125902500Y-35345714D01*
X125712023Y-35345714D01*
X125616785Y-35393333D01*
X125569166Y-35488571D01*
X125569166Y-35583809D01*
X126045357Y-35679047D01*
X125140595Y-36012380D02*
X125140595Y-35345714D01*
X125140595Y-35440952D02*
X125092976Y-35393333D01*
X124997738Y-35345714D01*
X124854880Y-35345714D01*
X124759642Y-35393333D01*
X124712023Y-35488571D01*
X124712023Y-36012380D01*
X124712023Y-35488571D02*
X124664404Y-35393333D01*
X124569166Y-35345714D01*
X124426309Y-35345714D01*
X124331071Y-35393333D01*
X124283452Y-35488571D01*
X124283452Y-36012380D01*
X123045357Y-35488571D02*
X122712023Y-35488571D01*
X122569166Y-36012380D02*
X123045357Y-36012380D01*
X123045357Y-35012380D01*
X122569166Y-35012380D01*
X122140595Y-36012380D02*
X122140595Y-35012380D01*
X121759642Y-35012380D01*
X121664404Y-35060000D01*
X121616785Y-35107619D01*
X121569166Y-35202857D01*
X121569166Y-35345714D01*
X121616785Y-35440952D01*
X121664404Y-35488571D01*
X121759642Y-35536190D01*
X122140595Y-35536190D01*
X120569166Y-36012380D02*
X120902500Y-35536190D01*
X121140595Y-36012380D02*
X121140595Y-35012380D01*
X120759642Y-35012380D01*
X120664404Y-35060000D01*
X120616785Y-35107619D01*
X120569166Y-35202857D01*
X120569166Y-35345714D01*
X120616785Y-35440952D01*
X120664404Y-35488571D01*
X120759642Y-35536190D01*
X121140595Y-35536190D01*
X119950119Y-35012380D02*
X119759642Y-35012380D01*
X119664404Y-35060000D01*
X119569166Y-35155238D01*
X119521547Y-35345714D01*
X119521547Y-35679047D01*
X119569166Y-35869523D01*
X119664404Y-35964761D01*
X119759642Y-36012380D01*
X119950119Y-36012380D01*
X120045357Y-35964761D01*
X120140595Y-35869523D01*
X120188214Y-35679047D01*
X120188214Y-35345714D01*
X120140595Y-35155238D01*
X120045357Y-35060000D01*
X119950119Y-35012380D01*
X119092976Y-36012380D02*
X119092976Y-35012380D01*
X118759642Y-35726666D01*
X118426309Y-35012380D01*
X118426309Y-36012380D01*
X117950119Y-35917142D02*
X117902500Y-35964761D01*
X117950119Y-36012380D01*
X117997738Y-35964761D01*
X117950119Y-35917142D01*
X117950119Y-36012380D01*
X116712023Y-35012380D02*
X116712023Y-35821904D01*
X116664404Y-35917142D01*
X116616785Y-35964761D01*
X116521547Y-36012380D01*
X116331071Y-36012380D01*
X116235833Y-35964761D01*
X116188214Y-35917142D01*
X116140595Y-35821904D01*
X116140595Y-35012380D01*
X115712023Y-35964761D02*
X115616785Y-36012380D01*
X115426309Y-36012380D01*
X115331071Y-35964761D01*
X115283452Y-35869523D01*
X115283452Y-35821904D01*
X115331071Y-35726666D01*
X115426309Y-35679047D01*
X115569166Y-35679047D01*
X115664404Y-35631428D01*
X115712023Y-35536190D01*
X115712023Y-35488571D01*
X115664404Y-35393333D01*
X115569166Y-35345714D01*
X115426309Y-35345714D01*
X115331071Y-35393333D01*
X114473928Y-35964761D02*
X114569166Y-36012380D01*
X114759642Y-36012380D01*
X114854880Y-35964761D01*
X114902500Y-35869523D01*
X114902500Y-35488571D01*
X114854880Y-35393333D01*
X114759642Y-35345714D01*
X114569166Y-35345714D01*
X114473928Y-35393333D01*
X114426309Y-35488571D01*
X114426309Y-35583809D01*
X114902500Y-35679047D01*
X113331071Y-35345714D02*
X113140595Y-36012380D01*
X112950119Y-35536190D01*
X112759642Y-36012380D01*
X112569166Y-35345714D01*
X111473928Y-34964761D02*
X112331071Y-36250476D01*
X110521547Y-35012380D02*
X109950119Y-35012380D01*
X110235833Y-36012380D02*
X110235833Y-35012380D01*
X109140595Y-36012380D02*
X109616785Y-36012380D01*
X109616785Y-35012380D01*
X108664404Y-35440952D02*
X108759642Y-35393333D01*
X108807261Y-35345714D01*
X108854880Y-35250476D01*
X108854880Y-35202857D01*
X108807261Y-35107619D01*
X108759642Y-35060000D01*
X108664404Y-35012380D01*
X108473928Y-35012380D01*
X108378690Y-35060000D01*
X108331071Y-35107619D01*
X108283452Y-35202857D01*
X108283452Y-35250476D01*
X108331071Y-35345714D01*
X108378690Y-35393333D01*
X108473928Y-35440952D01*
X108664404Y-35440952D01*
X108759642Y-35488571D01*
X108807261Y-35536190D01*
X108854880Y-35631428D01*
X108854880Y-35821904D01*
X108807261Y-35917142D01*
X108759642Y-35964761D01*
X108664404Y-36012380D01*
X108473928Y-36012380D01*
X108378690Y-35964761D01*
X108331071Y-35917142D01*
X108283452Y-35821904D01*
X108283452Y-35631428D01*
X108331071Y-35536190D01*
X108378690Y-35488571D01*
X108473928Y-35440952D01*
X107426309Y-35012380D02*
X107616785Y-35012380D01*
X107712023Y-35060000D01*
X107759642Y-35107619D01*
X107854880Y-35250476D01*
X107902500Y-35440952D01*
X107902500Y-35821904D01*
X107854880Y-35917142D01*
X107807261Y-35964761D01*
X107712023Y-36012380D01*
X107521547Y-36012380D01*
X107426309Y-35964761D01*
X107378690Y-35917142D01*
X107331071Y-35821904D01*
X107331071Y-35583809D01*
X107378690Y-35488571D01*
X107426309Y-35440952D01*
X107521547Y-35393333D01*
X107712023Y-35393333D01*
X107807261Y-35440952D01*
X107854880Y-35488571D01*
X107902500Y-35583809D01*
X106473928Y-35012380D02*
X106664404Y-35012380D01*
X106759642Y-35060000D01*
X106807261Y-35107619D01*
X106902500Y-35250476D01*
X106950119Y-35440952D01*
X106950119Y-35821904D01*
X106902500Y-35917142D01*
X106854880Y-35964761D01*
X106759642Y-36012380D01*
X106569166Y-36012380D01*
X106473928Y-35964761D01*
X106426309Y-35917142D01*
X106378690Y-35821904D01*
X106378690Y-35583809D01*
X106426309Y-35488571D01*
X106473928Y-35440952D01*
X106569166Y-35393333D01*
X106759642Y-35393333D01*
X106854880Y-35440952D01*
X106902500Y-35488571D01*
X106950119Y-35583809D01*
X128807261Y-36662380D02*
X128235833Y-36662380D01*
X128521547Y-37662380D02*
X128521547Y-36662380D01*
X127950119Y-37614761D02*
X127807261Y-37662380D01*
X127569166Y-37662380D01*
X127473928Y-37614761D01*
X127426309Y-37567142D01*
X127378690Y-37471904D01*
X127378690Y-37376666D01*
X127426309Y-37281428D01*
X127473928Y-37233809D01*
X127569166Y-37186190D01*
X127759642Y-37138571D01*
X127854880Y-37090952D01*
X127902500Y-37043333D01*
X127950119Y-36948095D01*
X127950119Y-36852857D01*
X127902500Y-36757619D01*
X127854880Y-36710000D01*
X127759642Y-36662380D01*
X127521547Y-36662380D01*
X127378690Y-36710000D01*
X126759642Y-36662380D02*
X126569166Y-36662380D01*
X126473928Y-36710000D01*
X126378690Y-36805238D01*
X126331071Y-36995714D01*
X126331071Y-37329047D01*
X126378690Y-37519523D01*
X126473928Y-37614761D01*
X126569166Y-37662380D01*
X126759642Y-37662380D01*
X126854880Y-37614761D01*
X126950119Y-37519523D01*
X126997738Y-37329047D01*
X126997738Y-36995714D01*
X126950119Y-36805238D01*
X126854880Y-36710000D01*
X126759642Y-36662380D01*
X125902500Y-37662380D02*
X125902500Y-36662380D01*
X125521547Y-36662380D01*
X125426309Y-36710000D01*
X125378690Y-36757619D01*
X125331071Y-36852857D01*
X125331071Y-36995714D01*
X125378690Y-37090952D01*
X125426309Y-37138571D01*
X125521547Y-37186190D01*
X125902500Y-37186190D01*
X124473928Y-36995714D02*
X124473928Y-37662380D01*
X124712023Y-36614761D02*
X124950119Y-37329047D01*
X124331071Y-37329047D01*
X123807261Y-37090952D02*
X123902500Y-37043333D01*
X123950119Y-36995714D01*
X123997738Y-36900476D01*
X123997738Y-36852857D01*
X123950119Y-36757619D01*
X123902500Y-36710000D01*
X123807261Y-36662380D01*
X123616785Y-36662380D01*
X123521547Y-36710000D01*
X123473928Y-36757619D01*
X123426309Y-36852857D01*
X123426309Y-36900476D01*
X123473928Y-36995714D01*
X123521547Y-37043333D01*
X123616785Y-37090952D01*
X123807261Y-37090952D01*
X123902500Y-37138571D01*
X123950119Y-37186190D01*
X123997738Y-37281428D01*
X123997738Y-37471904D01*
X123950119Y-37567142D01*
X123902500Y-37614761D01*
X123807261Y-37662380D01*
X123616785Y-37662380D01*
X123521547Y-37614761D01*
X123473928Y-37567142D01*
X123426309Y-37471904D01*
X123426309Y-37281428D01*
X123473928Y-37186190D01*
X123521547Y-37138571D01*
X123616785Y-37090952D01*
X122283452Y-37376666D02*
X121807261Y-37376666D01*
X122378690Y-37662380D02*
X122045357Y-36662380D01*
X121712023Y-37662380D01*
X120950119Y-37662380D02*
X120950119Y-36662380D01*
X120950119Y-37614761D02*
X121045357Y-37662380D01*
X121235833Y-37662380D01*
X121331071Y-37614761D01*
X121378690Y-37567142D01*
X121426309Y-37471904D01*
X121426309Y-37186190D01*
X121378690Y-37090952D01*
X121331071Y-37043333D01*
X121235833Y-36995714D01*
X121045357Y-36995714D01*
X120950119Y-37043333D01*
X120045357Y-37662380D02*
X120045357Y-37138571D01*
X120092976Y-37043333D01*
X120188214Y-36995714D01*
X120378690Y-36995714D01*
X120473928Y-37043333D01*
X120045357Y-37614761D02*
X120140595Y-37662380D01*
X120378690Y-37662380D01*
X120473928Y-37614761D01*
X120521547Y-37519523D01*
X120521547Y-37424285D01*
X120473928Y-37329047D01*
X120378690Y-37281428D01*
X120140595Y-37281428D01*
X120045357Y-37233809D01*
X119569166Y-36995714D02*
X119569166Y-37995714D01*
X119569166Y-37043333D02*
X119473928Y-36995714D01*
X119283452Y-36995714D01*
X119188214Y-37043333D01*
X119140595Y-37090952D01*
X119092976Y-37186190D01*
X119092976Y-37471904D01*
X119140595Y-37567142D01*
X119188214Y-37614761D01*
X119283452Y-37662380D01*
X119473928Y-37662380D01*
X119569166Y-37614761D01*
X118807261Y-36995714D02*
X118426309Y-36995714D01*
X118664404Y-36662380D02*
X118664404Y-37519523D01*
X118616785Y-37614761D01*
X118521547Y-37662380D01*
X118426309Y-37662380D01*
X117712023Y-37614761D02*
X117807261Y-37662380D01*
X117997738Y-37662380D01*
X118092976Y-37614761D01*
X118140595Y-37519523D01*
X118140595Y-37138571D01*
X118092976Y-37043333D01*
X117997738Y-36995714D01*
X117807261Y-36995714D01*
X117712023Y-37043333D01*
X117664404Y-37138571D01*
X117664404Y-37233809D01*
X118140595Y-37329047D01*
X117235833Y-37662380D02*
X117235833Y-36995714D01*
X117235833Y-37186190D02*
X117188214Y-37090952D01*
X117140595Y-37043333D01*
X117045357Y-36995714D01*
X116950119Y-36995714D01*
X116616785Y-37567142D02*
X116569166Y-37614761D01*
X116616785Y-37662380D01*
X116664404Y-37614761D01*
X116616785Y-37567142D01*
X116616785Y-37662380D01*
M02*
