G04 #@! TF.GenerationSoftware,KiCad,Pcbnew,(5.1.2)-1*
G04 #@! TF.CreationDate,2019-10-23T16:56:51-07:00*
G04 #@! TF.ProjectId,29Fx00-28Fx00,32394678-3030-42d3-9238-467830302e6b,rev?*
G04 #@! TF.SameCoordinates,Original*
G04 #@! TF.FileFunction,Legend,Top*
G04 #@! TF.FilePolarity,Positive*
%FSLAX46Y46*%
G04 Gerber Fmt 4.6, Leading zero omitted, Abs format (unit mm)*
G04 Created by KiCad (PCBNEW (5.1.2)-1) date 2019-10-23 16:56:51*
%MOMM*%
%LPD*%
G04 APERTURE LIST*
%ADD10C,0.300000*%
%ADD11C,0.150000*%
%ADD12C,0.010000*%
%ADD13C,0.120000*%
G04 APERTURE END LIST*
D10*
X103445714Y-59178571D02*
X104302857Y-59178571D01*
X103874285Y-60678571D02*
X103874285Y-59178571D01*
X105088571Y-59178571D02*
X105374285Y-59178571D01*
X105517142Y-59250000D01*
X105660000Y-59392857D01*
X105731428Y-59678571D01*
X105731428Y-60178571D01*
X105660000Y-60464285D01*
X105517142Y-60607142D01*
X105374285Y-60678571D01*
X105088571Y-60678571D01*
X104945714Y-60607142D01*
X104802857Y-60464285D01*
X104731428Y-60178571D01*
X104731428Y-59678571D01*
X104802857Y-59392857D01*
X104945714Y-59250000D01*
X105088571Y-59178571D01*
X106374285Y-60678571D02*
X106374285Y-59178571D01*
X106945714Y-59178571D01*
X107088571Y-59250000D01*
X107160000Y-59321428D01*
X107231428Y-59464285D01*
X107231428Y-59678571D01*
X107160000Y-59821428D01*
X107088571Y-59892857D01*
X106945714Y-59964285D01*
X106374285Y-59964285D01*
D11*
X100951309Y-87082380D02*
X100951309Y-87796666D01*
X100903690Y-87939523D01*
X100808452Y-88034761D01*
X100665595Y-88082380D01*
X100570357Y-88082380D01*
X101903690Y-88082380D02*
X101427500Y-88082380D01*
X101427500Y-87082380D01*
X102808452Y-87987142D02*
X102760833Y-88034761D01*
X102617976Y-88082380D01*
X102522738Y-88082380D01*
X102379880Y-88034761D01*
X102284642Y-87939523D01*
X102237023Y-87844285D01*
X102189404Y-87653809D01*
X102189404Y-87510952D01*
X102237023Y-87320476D01*
X102284642Y-87225238D01*
X102379880Y-87130000D01*
X102522738Y-87082380D01*
X102617976Y-87082380D01*
X102760833Y-87130000D01*
X102808452Y-87177619D01*
X103522738Y-87082380D02*
X103522738Y-87796666D01*
X103475119Y-87939523D01*
X103379880Y-88034761D01*
X103237023Y-88082380D01*
X103141785Y-88082380D01*
X104475119Y-88082380D02*
X103998928Y-88082380D01*
X103998928Y-87082380D01*
X105379880Y-87987142D02*
X105332261Y-88034761D01*
X105189404Y-88082380D01*
X105094166Y-88082380D01*
X104951309Y-88034761D01*
X104856071Y-87939523D01*
X104808452Y-87844285D01*
X104760833Y-87653809D01*
X104760833Y-87510952D01*
X104808452Y-87320476D01*
X104856071Y-87225238D01*
X104951309Y-87130000D01*
X105094166Y-87082380D01*
X105189404Y-87082380D01*
X105332261Y-87130000D01*
X105379880Y-87177619D01*
X106094166Y-87082380D02*
X106094166Y-87796666D01*
X106046547Y-87939523D01*
X105951309Y-88034761D01*
X105808452Y-88082380D01*
X105713214Y-88082380D01*
X107046547Y-88082380D02*
X106570357Y-88082380D01*
X106570357Y-87082380D01*
X107951309Y-87987142D02*
X107903690Y-88034761D01*
X107760833Y-88082380D01*
X107665595Y-88082380D01*
X107522738Y-88034761D01*
X107427500Y-87939523D01*
X107379880Y-87844285D01*
X107332261Y-87653809D01*
X107332261Y-87510952D01*
X107379880Y-87320476D01*
X107427500Y-87225238D01*
X107522738Y-87130000D01*
X107665595Y-87082380D01*
X107760833Y-87082380D01*
X107903690Y-87130000D01*
X107951309Y-87177619D01*
X108665595Y-87082380D02*
X108665595Y-87796666D01*
X108617976Y-87939523D01*
X108522738Y-88034761D01*
X108379880Y-88082380D01*
X108284642Y-88082380D01*
X109617976Y-88082380D02*
X109141785Y-88082380D01*
X109141785Y-87082380D01*
X110522738Y-87987142D02*
X110475119Y-88034761D01*
X110332261Y-88082380D01*
X110237023Y-88082380D01*
X110094166Y-88034761D01*
X109998928Y-87939523D01*
X109951309Y-87844285D01*
X109903690Y-87653809D01*
X109903690Y-87510952D01*
X109951309Y-87320476D01*
X109998928Y-87225238D01*
X110094166Y-87130000D01*
X110237023Y-87082380D01*
X110332261Y-87082380D01*
X110475119Y-87130000D01*
X110522738Y-87177619D01*
X119667976Y-29202619D02*
X119715595Y-29155000D01*
X119810833Y-29107380D01*
X120048928Y-29107380D01*
X120144166Y-29155000D01*
X120191785Y-29202619D01*
X120239404Y-29297857D01*
X120239404Y-29393095D01*
X120191785Y-29535952D01*
X119620357Y-30107380D01*
X120239404Y-30107380D01*
X120810833Y-29535952D02*
X120715595Y-29488333D01*
X120667976Y-29440714D01*
X120620357Y-29345476D01*
X120620357Y-29297857D01*
X120667976Y-29202619D01*
X120715595Y-29155000D01*
X120810833Y-29107380D01*
X121001309Y-29107380D01*
X121096547Y-29155000D01*
X121144166Y-29202619D01*
X121191785Y-29297857D01*
X121191785Y-29345476D01*
X121144166Y-29440714D01*
X121096547Y-29488333D01*
X121001309Y-29535952D01*
X120810833Y-29535952D01*
X120715595Y-29583571D01*
X120667976Y-29631190D01*
X120620357Y-29726428D01*
X120620357Y-29916904D01*
X120667976Y-30012142D01*
X120715595Y-30059761D01*
X120810833Y-30107380D01*
X121001309Y-30107380D01*
X121096547Y-30059761D01*
X121144166Y-30012142D01*
X121191785Y-29916904D01*
X121191785Y-29726428D01*
X121144166Y-29631190D01*
X121096547Y-29583571D01*
X121001309Y-29535952D01*
X121953690Y-29583571D02*
X121620357Y-29583571D01*
X121620357Y-30107380D02*
X121620357Y-29107380D01*
X122096547Y-29107380D01*
X122382261Y-30107380D02*
X122906071Y-29440714D01*
X122382261Y-29440714D02*
X122906071Y-30107380D01*
X123477500Y-29107380D02*
X123572738Y-29107380D01*
X123667976Y-29155000D01*
X123715595Y-29202619D01*
X123763214Y-29297857D01*
X123810833Y-29488333D01*
X123810833Y-29726428D01*
X123763214Y-29916904D01*
X123715595Y-30012142D01*
X123667976Y-30059761D01*
X123572738Y-30107380D01*
X123477500Y-30107380D01*
X123382261Y-30059761D01*
X123334642Y-30012142D01*
X123287023Y-29916904D01*
X123239404Y-29726428D01*
X123239404Y-29488333D01*
X123287023Y-29297857D01*
X123334642Y-29202619D01*
X123382261Y-29155000D01*
X123477500Y-29107380D01*
X124429880Y-29107380D02*
X124525119Y-29107380D01*
X124620357Y-29155000D01*
X124667976Y-29202619D01*
X124715595Y-29297857D01*
X124763214Y-29488333D01*
X124763214Y-29726428D01*
X124715595Y-29916904D01*
X124667976Y-30012142D01*
X124620357Y-30059761D01*
X124525119Y-30107380D01*
X124429880Y-30107380D01*
X124334642Y-30059761D01*
X124287023Y-30012142D01*
X124239404Y-29916904D01*
X124191785Y-29726428D01*
X124191785Y-29488333D01*
X124239404Y-29297857D01*
X124287023Y-29202619D01*
X124334642Y-29155000D01*
X124429880Y-29107380D01*
X125191785Y-30012142D02*
X125239404Y-30059761D01*
X125191785Y-30107380D01*
X125144166Y-30059761D01*
X125191785Y-30012142D01*
X125191785Y-30107380D01*
X125191785Y-29488333D02*
X125239404Y-29535952D01*
X125191785Y-29583571D01*
X125144166Y-29535952D01*
X125191785Y-29488333D01*
X125191785Y-29583571D01*
X119715595Y-31233571D02*
X120048928Y-31233571D01*
X120191785Y-31757380D02*
X119715595Y-31757380D01*
X119715595Y-30757380D01*
X120191785Y-30757380D01*
X120620357Y-31090714D02*
X120620357Y-31757380D01*
X120620357Y-31185952D02*
X120667976Y-31138333D01*
X120763214Y-31090714D01*
X120906071Y-31090714D01*
X121001309Y-31138333D01*
X121048928Y-31233571D01*
X121048928Y-31757380D01*
X121953690Y-31757380D02*
X121953690Y-31233571D01*
X121906071Y-31138333D01*
X121810833Y-31090714D01*
X121620357Y-31090714D01*
X121525119Y-31138333D01*
X121953690Y-31709761D02*
X121858452Y-31757380D01*
X121620357Y-31757380D01*
X121525119Y-31709761D01*
X121477500Y-31614523D01*
X121477500Y-31519285D01*
X121525119Y-31424047D01*
X121620357Y-31376428D01*
X121858452Y-31376428D01*
X121953690Y-31328809D01*
X122429880Y-31757380D02*
X122429880Y-30757380D01*
X122429880Y-31138333D02*
X122525119Y-31090714D01*
X122715595Y-31090714D01*
X122810833Y-31138333D01*
X122858452Y-31185952D01*
X122906071Y-31281190D01*
X122906071Y-31566904D01*
X122858452Y-31662142D01*
X122810833Y-31709761D01*
X122715595Y-31757380D01*
X122525119Y-31757380D01*
X122429880Y-31709761D01*
X123477500Y-31757380D02*
X123382261Y-31709761D01*
X123334642Y-31614523D01*
X123334642Y-30757380D01*
X124239404Y-31709761D02*
X124144166Y-31757380D01*
X123953690Y-31757380D01*
X123858452Y-31709761D01*
X123810833Y-31614523D01*
X123810833Y-31233571D01*
X123858452Y-31138333D01*
X123953690Y-31090714D01*
X124144166Y-31090714D01*
X124239404Y-31138333D01*
X124287023Y-31233571D01*
X124287023Y-31328809D01*
X123810833Y-31424047D01*
X125334642Y-30757380D02*
X125667976Y-31757380D01*
X126001309Y-30757380D01*
X126334642Y-31757380D02*
X126334642Y-30757380D01*
X126715595Y-30757380D01*
X126810833Y-30805000D01*
X126858452Y-30852619D01*
X126906071Y-30947857D01*
X126906071Y-31090714D01*
X126858452Y-31185952D01*
X126810833Y-31233571D01*
X126715595Y-31281190D01*
X126334642Y-31281190D01*
X127334642Y-31757380D02*
X127334642Y-30757380D01*
X127715595Y-30757380D01*
X127810833Y-30805000D01*
X127858452Y-30852619D01*
X127906071Y-30947857D01*
X127906071Y-31090714D01*
X127858452Y-31185952D01*
X127810833Y-31233571D01*
X127715595Y-31281190D01*
X127334642Y-31281190D01*
X101393809Y-36282380D02*
X102012857Y-36282380D01*
X101679523Y-36663333D01*
X101822380Y-36663333D01*
X101917619Y-36710952D01*
X101965238Y-36758571D01*
X102012857Y-36853809D01*
X102012857Y-37091904D01*
X101965238Y-37187142D01*
X101917619Y-37234761D01*
X101822380Y-37282380D01*
X101536666Y-37282380D01*
X101441428Y-37234761D01*
X101393809Y-37187142D01*
X102441428Y-37187142D02*
X102489047Y-37234761D01*
X102441428Y-37282380D01*
X102393809Y-37234761D01*
X102441428Y-37187142D01*
X102441428Y-37282380D01*
X103346190Y-36282380D02*
X103155714Y-36282380D01*
X103060476Y-36330000D01*
X103012857Y-36377619D01*
X102917619Y-36520476D01*
X102870000Y-36710952D01*
X102870000Y-37091904D01*
X102917619Y-37187142D01*
X102965238Y-37234761D01*
X103060476Y-37282380D01*
X103250952Y-37282380D01*
X103346190Y-37234761D01*
X103393809Y-37187142D01*
X103441428Y-37091904D01*
X103441428Y-36853809D01*
X103393809Y-36758571D01*
X103346190Y-36710952D01*
X103250952Y-36663333D01*
X103060476Y-36663333D01*
X102965238Y-36710952D01*
X102917619Y-36758571D01*
X102870000Y-36853809D01*
X103727142Y-36282380D02*
X104060476Y-37282380D01*
X104393809Y-36282380D01*
X86647976Y-45886666D02*
X87124166Y-45886666D01*
X86552738Y-46172380D02*
X86886071Y-45172380D01*
X87219404Y-46172380D01*
X87505119Y-45267619D02*
X87552738Y-45220000D01*
X87647976Y-45172380D01*
X87886071Y-45172380D01*
X87981309Y-45220000D01*
X88028928Y-45267619D01*
X88076547Y-45362857D01*
X88076547Y-45458095D01*
X88028928Y-45600952D01*
X87457500Y-46172380D01*
X88076547Y-46172380D01*
X88695595Y-45172380D02*
X88790833Y-45172380D01*
X88886071Y-45220000D01*
X88933690Y-45267619D01*
X88981309Y-45362857D01*
X89028928Y-45553333D01*
X89028928Y-45791428D01*
X88981309Y-45981904D01*
X88933690Y-46077142D01*
X88886071Y-46124761D01*
X88790833Y-46172380D01*
X88695595Y-46172380D01*
X88600357Y-46124761D01*
X88552738Y-46077142D01*
X88505119Y-45981904D01*
X88457500Y-45791428D01*
X88457500Y-45553333D01*
X88505119Y-45362857D01*
X88552738Y-45267619D01*
X88600357Y-45220000D01*
X88695595Y-45172380D01*
X86647976Y-43346666D02*
X87124166Y-43346666D01*
X86552738Y-43632380D02*
X86886071Y-42632380D01*
X87219404Y-43632380D01*
X88076547Y-43632380D02*
X87505119Y-43632380D01*
X87790833Y-43632380D02*
X87790833Y-42632380D01*
X87695595Y-42775238D01*
X87600357Y-42870476D01*
X87505119Y-42918095D01*
X88552738Y-43632380D02*
X88743214Y-43632380D01*
X88838452Y-43584761D01*
X88886071Y-43537142D01*
X88981309Y-43394285D01*
X89028928Y-43203809D01*
X89028928Y-42822857D01*
X88981309Y-42727619D01*
X88933690Y-42680000D01*
X88838452Y-42632380D01*
X88647976Y-42632380D01*
X88552738Y-42680000D01*
X88505119Y-42727619D01*
X88457500Y-42822857D01*
X88457500Y-43060952D01*
X88505119Y-43156190D01*
X88552738Y-43203809D01*
X88647976Y-43251428D01*
X88838452Y-43251428D01*
X88933690Y-43203809D01*
X88981309Y-43156190D01*
X89028928Y-43060952D01*
X87987142Y-39536190D02*
X88034761Y-39583809D01*
X88082380Y-39726666D01*
X88082380Y-39821904D01*
X88034761Y-39964761D01*
X87939523Y-40060000D01*
X87844285Y-40107619D01*
X87653809Y-40155238D01*
X87510952Y-40155238D01*
X87320476Y-40107619D01*
X87225238Y-40060000D01*
X87130000Y-39964761D01*
X87082380Y-39821904D01*
X87082380Y-39726666D01*
X87130000Y-39583809D01*
X87177619Y-39536190D01*
X88082380Y-39107619D02*
X87082380Y-39107619D01*
X88082380Y-38679047D02*
X87558571Y-38679047D01*
X87463333Y-38726666D01*
X87415714Y-38821904D01*
X87415714Y-38964761D01*
X87463333Y-39060000D01*
X87510952Y-39107619D01*
X88082380Y-38202857D02*
X87415714Y-38202857D01*
X87082380Y-38202857D02*
X87130000Y-38250476D01*
X87177619Y-38202857D01*
X87130000Y-38155238D01*
X87082380Y-38202857D01*
X87177619Y-38202857D01*
X87415714Y-37726666D02*
X88415714Y-37726666D01*
X87463333Y-37726666D02*
X87415714Y-37631428D01*
X87415714Y-37440952D01*
X87463333Y-37345714D01*
X87510952Y-37298095D01*
X87606190Y-37250476D01*
X87891904Y-37250476D01*
X87987142Y-37298095D01*
X88034761Y-37345714D01*
X88082380Y-37440952D01*
X88082380Y-37631428D01*
X88034761Y-37726666D01*
X87082380Y-36202857D02*
X88082380Y-35869523D01*
X87082380Y-35536190D01*
X88082380Y-35060000D02*
X88034761Y-35155238D01*
X87987142Y-35202857D01*
X87891904Y-35250476D01*
X87606190Y-35250476D01*
X87510952Y-35202857D01*
X87463333Y-35155238D01*
X87415714Y-35060000D01*
X87415714Y-34917142D01*
X87463333Y-34821904D01*
X87510952Y-34774285D01*
X87606190Y-34726666D01*
X87891904Y-34726666D01*
X87987142Y-34774285D01*
X88034761Y-34821904D01*
X88082380Y-34917142D01*
X88082380Y-35060000D01*
X88082380Y-34155238D02*
X88034761Y-34250476D01*
X87939523Y-34298095D01*
X87082380Y-34298095D01*
X87415714Y-33917142D02*
X87415714Y-33536190D01*
X87082380Y-33774285D02*
X87939523Y-33774285D01*
X88034761Y-33726666D01*
X88082380Y-33631428D01*
X88082380Y-33536190D01*
X88082380Y-32774285D02*
X87558571Y-32774285D01*
X87463333Y-32821904D01*
X87415714Y-32917142D01*
X87415714Y-33107619D01*
X87463333Y-33202857D01*
X88034761Y-32774285D02*
X88082380Y-32869523D01*
X88082380Y-33107619D01*
X88034761Y-33202857D01*
X87939523Y-33250476D01*
X87844285Y-33250476D01*
X87749047Y-33202857D01*
X87701428Y-33107619D01*
X87701428Y-32869523D01*
X87653809Y-32774285D01*
X87415714Y-31869523D02*
X88225238Y-31869523D01*
X88320476Y-31917142D01*
X88368095Y-31964761D01*
X88415714Y-32060000D01*
X88415714Y-32202857D01*
X88368095Y-32298095D01*
X88034761Y-31869523D02*
X88082380Y-31964761D01*
X88082380Y-32155238D01*
X88034761Y-32250476D01*
X87987142Y-32298095D01*
X87891904Y-32345714D01*
X87606190Y-32345714D01*
X87510952Y-32298095D01*
X87463333Y-32250476D01*
X87415714Y-32155238D01*
X87415714Y-31964761D01*
X87463333Y-31869523D01*
X88034761Y-31012380D02*
X88082380Y-31107619D01*
X88082380Y-31298095D01*
X88034761Y-31393333D01*
X87939523Y-31440952D01*
X87558571Y-31440952D01*
X87463333Y-31393333D01*
X87415714Y-31298095D01*
X87415714Y-31107619D01*
X87463333Y-31012380D01*
X87558571Y-30964761D01*
X87653809Y-30964761D01*
X87749047Y-31440952D01*
X81208571Y-39631428D02*
X81208571Y-39298095D01*
X81732380Y-39155238D02*
X81732380Y-39631428D01*
X80732380Y-39631428D01*
X80732380Y-39155238D01*
X81065714Y-38726666D02*
X81732380Y-38726666D01*
X81160952Y-38726666D02*
X81113333Y-38679047D01*
X81065714Y-38583809D01*
X81065714Y-38440952D01*
X81113333Y-38345714D01*
X81208571Y-38298095D01*
X81732380Y-38298095D01*
X81732380Y-37393333D02*
X81208571Y-37393333D01*
X81113333Y-37440952D01*
X81065714Y-37536190D01*
X81065714Y-37726666D01*
X81113333Y-37821904D01*
X81684761Y-37393333D02*
X81732380Y-37488571D01*
X81732380Y-37726666D01*
X81684761Y-37821904D01*
X81589523Y-37869523D01*
X81494285Y-37869523D01*
X81399047Y-37821904D01*
X81351428Y-37726666D01*
X81351428Y-37488571D01*
X81303809Y-37393333D01*
X81732380Y-36917142D02*
X80732380Y-36917142D01*
X81113333Y-36917142D02*
X81065714Y-36821904D01*
X81065714Y-36631428D01*
X81113333Y-36536190D01*
X81160952Y-36488571D01*
X81256190Y-36440952D01*
X81541904Y-36440952D01*
X81637142Y-36488571D01*
X81684761Y-36536190D01*
X81732380Y-36631428D01*
X81732380Y-36821904D01*
X81684761Y-36917142D01*
X81732380Y-35869523D02*
X81684761Y-35964761D01*
X81589523Y-36012380D01*
X80732380Y-36012380D01*
X81684761Y-35107619D02*
X81732380Y-35202857D01*
X81732380Y-35393333D01*
X81684761Y-35488571D01*
X81589523Y-35536190D01*
X81208571Y-35536190D01*
X81113333Y-35488571D01*
X81065714Y-35393333D01*
X81065714Y-35202857D01*
X81113333Y-35107619D01*
X81208571Y-35060000D01*
X81303809Y-35060000D01*
X81399047Y-35536190D01*
X80732380Y-34012380D02*
X81732380Y-33679047D01*
X80732380Y-33345714D01*
X81732380Y-33012380D02*
X80732380Y-33012380D01*
X80732380Y-32631428D01*
X80780000Y-32536190D01*
X80827619Y-32488571D01*
X80922857Y-32440952D01*
X81065714Y-32440952D01*
X81160952Y-32488571D01*
X81208571Y-32536190D01*
X81256190Y-32631428D01*
X81256190Y-33012380D01*
X81732380Y-32012380D02*
X80732380Y-32012380D01*
X80732380Y-31631428D01*
X80780000Y-31536190D01*
X80827619Y-31488571D01*
X80922857Y-31440952D01*
X81065714Y-31440952D01*
X81160952Y-31488571D01*
X81208571Y-31536190D01*
X81256190Y-31631428D01*
X81256190Y-32012380D01*
X92811785Y-33742380D02*
X92335595Y-33742380D01*
X92287976Y-34218571D01*
X92335595Y-34170952D01*
X92430833Y-34123333D01*
X92668928Y-34123333D01*
X92764166Y-34170952D01*
X92811785Y-34218571D01*
X92859404Y-34313809D01*
X92859404Y-34551904D01*
X92811785Y-34647142D01*
X92764166Y-34694761D01*
X92668928Y-34742380D01*
X92430833Y-34742380D01*
X92335595Y-34694761D01*
X92287976Y-34647142D01*
X93145119Y-33742380D02*
X93478452Y-34742380D01*
X93811785Y-33742380D01*
X92240357Y-38822380D02*
X92859404Y-38822380D01*
X92526071Y-39203333D01*
X92668928Y-39203333D01*
X92764166Y-39250952D01*
X92811785Y-39298571D01*
X92859404Y-39393809D01*
X92859404Y-39631904D01*
X92811785Y-39727142D01*
X92764166Y-39774761D01*
X92668928Y-39822380D01*
X92383214Y-39822380D01*
X92287976Y-39774761D01*
X92240357Y-39727142D01*
X93287976Y-39727142D02*
X93335595Y-39774761D01*
X93287976Y-39822380D01*
X93240357Y-39774761D01*
X93287976Y-39727142D01*
X93287976Y-39822380D01*
X94192738Y-38822380D02*
X94002261Y-38822380D01*
X93907023Y-38870000D01*
X93859404Y-38917619D01*
X93764166Y-39060476D01*
X93716547Y-39250952D01*
X93716547Y-39631904D01*
X93764166Y-39727142D01*
X93811785Y-39774761D01*
X93907023Y-39822380D01*
X94097500Y-39822380D01*
X94192738Y-39774761D01*
X94240357Y-39727142D01*
X94287976Y-39631904D01*
X94287976Y-39393809D01*
X94240357Y-39298571D01*
X94192738Y-39250952D01*
X94097500Y-39203333D01*
X93907023Y-39203333D01*
X93811785Y-39250952D01*
X93764166Y-39298571D01*
X93716547Y-39393809D01*
X94573690Y-38822380D02*
X94907023Y-39822380D01*
X95240357Y-38822380D01*
D12*
G36*
X105438706Y-50612947D02*
G01*
X105508467Y-50676050D01*
X105616054Y-50777370D01*
X105758242Y-50913752D01*
X105931801Y-51082044D01*
X106133505Y-51279094D01*
X106360127Y-51501748D01*
X106608439Y-51746854D01*
X106875213Y-52011259D01*
X107157222Y-52291810D01*
X107446218Y-52580334D01*
X107815202Y-52949807D01*
X108141092Y-53277136D01*
X108425639Y-53564132D01*
X108670591Y-53812608D01*
X108877697Y-54024376D01*
X109048708Y-54201248D01*
X109185371Y-54345037D01*
X109289437Y-54457553D01*
X109362654Y-54540611D01*
X109406771Y-54596021D01*
X109423539Y-54625596D01*
X109423703Y-54628974D01*
X109417730Y-54645751D01*
X109402581Y-54659139D01*
X109371660Y-54669597D01*
X109318371Y-54677583D01*
X109236118Y-54683555D01*
X109118305Y-54687970D01*
X108958335Y-54691288D01*
X108749613Y-54693967D01*
X108485543Y-54696463D01*
X108447220Y-54696795D01*
X107482188Y-54705098D01*
X107482188Y-56629267D01*
X107481881Y-57050344D01*
X107480916Y-57412134D01*
X107479224Y-57718139D01*
X107476740Y-57971863D01*
X107473395Y-58176808D01*
X107469122Y-58336478D01*
X107463854Y-58454376D01*
X107457524Y-58534005D01*
X107450065Y-58578868D01*
X107444512Y-58591113D01*
X107420874Y-58599195D01*
X107365000Y-58606149D01*
X107273444Y-58612038D01*
X107142761Y-58616925D01*
X106969508Y-58620875D01*
X106750238Y-58623950D01*
X106481506Y-58626215D01*
X106159869Y-58627734D01*
X105781880Y-58628569D01*
X105404825Y-58628789D01*
X105000933Y-58628738D01*
X104655222Y-58628495D01*
X104363083Y-58627921D01*
X104119903Y-58626879D01*
X103921071Y-58625231D01*
X103761976Y-58622840D01*
X103638007Y-58619568D01*
X103544551Y-58615276D01*
X103476999Y-58609829D01*
X103430738Y-58603088D01*
X103401157Y-58594914D01*
X103383645Y-58585172D01*
X103373590Y-58573723D01*
X103370314Y-58568059D01*
X103362570Y-58521353D01*
X103355856Y-58412534D01*
X103350185Y-58242273D01*
X103345566Y-58011244D01*
X103342011Y-57720119D01*
X103339531Y-57369568D01*
X103338138Y-56960265D01*
X103337812Y-56606214D01*
X103337812Y-54705098D01*
X102372781Y-54696795D01*
X102101113Y-54694288D01*
X101885641Y-54691659D01*
X101719770Y-54688449D01*
X101596904Y-54684200D01*
X101510447Y-54678454D01*
X101453802Y-54670753D01*
X101420373Y-54660639D01*
X101403565Y-54647653D01*
X101396782Y-54631338D01*
X101396297Y-54628974D01*
X101406933Y-54605168D01*
X101444511Y-54555950D01*
X101510780Y-54479507D01*
X101607489Y-54374028D01*
X101736388Y-54237701D01*
X101899226Y-54068712D01*
X102097751Y-53865251D01*
X102333714Y-53625504D01*
X102608863Y-53347660D01*
X102924948Y-53029906D01*
X103283717Y-52670431D01*
X103373783Y-52580334D01*
X103667624Y-52286981D01*
X103949404Y-52006675D01*
X104215895Y-51742568D01*
X104463869Y-51497813D01*
X104690098Y-51275563D01*
X104891356Y-51078971D01*
X105064416Y-50911188D01*
X105206048Y-50775369D01*
X105313027Y-50674666D01*
X105382124Y-50612231D01*
X105410000Y-50591212D01*
X105438706Y-50612947D01*
X105438706Y-50612947D01*
G37*
X105438706Y-50612947D02*
X105508467Y-50676050D01*
X105616054Y-50777370D01*
X105758242Y-50913752D01*
X105931801Y-51082044D01*
X106133505Y-51279094D01*
X106360127Y-51501748D01*
X106608439Y-51746854D01*
X106875213Y-52011259D01*
X107157222Y-52291810D01*
X107446218Y-52580334D01*
X107815202Y-52949807D01*
X108141092Y-53277136D01*
X108425639Y-53564132D01*
X108670591Y-53812608D01*
X108877697Y-54024376D01*
X109048708Y-54201248D01*
X109185371Y-54345037D01*
X109289437Y-54457553D01*
X109362654Y-54540611D01*
X109406771Y-54596021D01*
X109423539Y-54625596D01*
X109423703Y-54628974D01*
X109417730Y-54645751D01*
X109402581Y-54659139D01*
X109371660Y-54669597D01*
X109318371Y-54677583D01*
X109236118Y-54683555D01*
X109118305Y-54687970D01*
X108958335Y-54691288D01*
X108749613Y-54693967D01*
X108485543Y-54696463D01*
X108447220Y-54696795D01*
X107482188Y-54705098D01*
X107482188Y-56629267D01*
X107481881Y-57050344D01*
X107480916Y-57412134D01*
X107479224Y-57718139D01*
X107476740Y-57971863D01*
X107473395Y-58176808D01*
X107469122Y-58336478D01*
X107463854Y-58454376D01*
X107457524Y-58534005D01*
X107450065Y-58578868D01*
X107444512Y-58591113D01*
X107420874Y-58599195D01*
X107365000Y-58606149D01*
X107273444Y-58612038D01*
X107142761Y-58616925D01*
X106969508Y-58620875D01*
X106750238Y-58623950D01*
X106481506Y-58626215D01*
X106159869Y-58627734D01*
X105781880Y-58628569D01*
X105404825Y-58628789D01*
X105000933Y-58628738D01*
X104655222Y-58628495D01*
X104363083Y-58627921D01*
X104119903Y-58626879D01*
X103921071Y-58625231D01*
X103761976Y-58622840D01*
X103638007Y-58619568D01*
X103544551Y-58615276D01*
X103476999Y-58609829D01*
X103430738Y-58603088D01*
X103401157Y-58594914D01*
X103383645Y-58585172D01*
X103373590Y-58573723D01*
X103370314Y-58568059D01*
X103362570Y-58521353D01*
X103355856Y-58412534D01*
X103350185Y-58242273D01*
X103345566Y-58011244D01*
X103342011Y-57720119D01*
X103339531Y-57369568D01*
X103338138Y-56960265D01*
X103337812Y-56606214D01*
X103337812Y-54705098D01*
X102372781Y-54696795D01*
X102101113Y-54694288D01*
X101885641Y-54691659D01*
X101719770Y-54688449D01*
X101596904Y-54684200D01*
X101510447Y-54678454D01*
X101453802Y-54670753D01*
X101420373Y-54660639D01*
X101403565Y-54647653D01*
X101396782Y-54631338D01*
X101396297Y-54628974D01*
X101406933Y-54605168D01*
X101444511Y-54555950D01*
X101510780Y-54479507D01*
X101607489Y-54374028D01*
X101736388Y-54237701D01*
X101899226Y-54068712D01*
X102097751Y-53865251D01*
X102333714Y-53625504D01*
X102608863Y-53347660D01*
X102924948Y-53029906D01*
X103283717Y-52670431D01*
X103373783Y-52580334D01*
X103667624Y-52286981D01*
X103949404Y-52006675D01*
X104215895Y-51742568D01*
X104463869Y-51497813D01*
X104690098Y-51275563D01*
X104891356Y-51078971D01*
X105064416Y-50911188D01*
X105206048Y-50775369D01*
X105313027Y-50674666D01*
X105382124Y-50612231D01*
X105410000Y-50591212D01*
X105438706Y-50612947D01*
D13*
X121920000Y-50740000D02*
X123250000Y-50740000D01*
X121920000Y-52070000D02*
X121920000Y-50740000D01*
X124520000Y-50740000D02*
X127120000Y-50740000D01*
X124520000Y-53340000D02*
X124520000Y-50740000D01*
X121920000Y-53340000D02*
X124520000Y-53340000D01*
X127120000Y-50740000D02*
X127120000Y-81340000D01*
X121920000Y-53340000D02*
X121920000Y-81340000D01*
X121920000Y-81340000D02*
X127120000Y-81340000D01*
X114470000Y-48140000D02*
X96350000Y-48140000D01*
X114470000Y-89020000D02*
X114470000Y-48140000D01*
X96350000Y-89020000D02*
X114470000Y-89020000D01*
X96350000Y-48140000D02*
X96350000Y-89020000D01*
X111470000Y-48200000D02*
X106410000Y-48200000D01*
X111470000Y-88960000D02*
X111470000Y-48200000D01*
X99350000Y-88960000D02*
X111470000Y-88960000D01*
X99350000Y-48200000D02*
X99350000Y-88960000D01*
X104410000Y-48200000D02*
X99350000Y-48200000D01*
X106410000Y-48200000D02*
G75*
G02X104410000Y-48200000I-1000000J0D01*
G01*
X110490000Y-30250000D02*
X110490000Y-32210000D01*
X110490000Y-43410000D02*
X110490000Y-41450000D01*
X108770000Y-32210000D02*
X108770000Y-41450000D01*
X112210000Y-32210000D02*
X108770000Y-32210000D01*
X112210000Y-41450000D02*
X112210000Y-32210000D01*
X108770000Y-41450000D02*
X112210000Y-41450000D01*
X118110000Y-30250000D02*
X118110000Y-32210000D01*
X118110000Y-43410000D02*
X118110000Y-41450000D01*
X116390000Y-32210000D02*
X116390000Y-41450000D01*
X119830000Y-32210000D02*
X116390000Y-32210000D01*
X119830000Y-41450000D02*
X119830000Y-32210000D01*
X116390000Y-41450000D02*
X119830000Y-41450000D01*
X114300000Y-30250000D02*
X114300000Y-32210000D01*
X114300000Y-43410000D02*
X114300000Y-41450000D01*
X112580000Y-32210000D02*
X112580000Y-41450000D01*
X116020000Y-32210000D02*
X112580000Y-32210000D01*
X116020000Y-41450000D02*
X116020000Y-32210000D01*
X112580000Y-41450000D02*
X116020000Y-41450000D01*
X88840000Y-32960000D02*
X90170000Y-32960000D01*
X88840000Y-34290000D02*
X88840000Y-32960000D01*
X88840000Y-35560000D02*
X91500000Y-35560000D01*
X91500000Y-35560000D02*
X91500000Y-40700000D01*
X88840000Y-35560000D02*
X88840000Y-40700000D01*
X88840000Y-40700000D02*
X91500000Y-40700000D01*
X82490000Y-32960000D02*
X83820000Y-32960000D01*
X82490000Y-34290000D02*
X82490000Y-32960000D01*
X82490000Y-35560000D02*
X85150000Y-35560000D01*
X85150000Y-35560000D02*
X85150000Y-38160000D01*
X82490000Y-35560000D02*
X82490000Y-38160000D01*
X82490000Y-38160000D02*
X85150000Y-38160000D01*
X82490000Y-41850000D02*
X83820000Y-41850000D01*
X82490000Y-43180000D02*
X82490000Y-41850000D01*
X82490000Y-44450000D02*
X85150000Y-44450000D01*
X85150000Y-44450000D02*
X85150000Y-47050000D01*
X82490000Y-44450000D02*
X82490000Y-47050000D01*
X82490000Y-47050000D02*
X85150000Y-47050000D01*
X81780000Y-50740000D02*
X83110000Y-50740000D01*
X81780000Y-52070000D02*
X81780000Y-50740000D01*
X84380000Y-50740000D02*
X86980000Y-50740000D01*
X84380000Y-53340000D02*
X84380000Y-50740000D01*
X81780000Y-53340000D02*
X84380000Y-53340000D01*
X86980000Y-50740000D02*
X86980000Y-81340000D01*
X81780000Y-53340000D02*
X81780000Y-81340000D01*
X81780000Y-81340000D02*
X86980000Y-81340000D01*
X104430000Y-38290000D02*
X104430000Y-38134000D01*
X104430000Y-40606000D02*
X104430000Y-40450000D01*
X101828870Y-38290163D02*
G75*
G02X103910961Y-38290000I1041130J-1079837D01*
G01*
X101828870Y-40449837D02*
G75*
G03X103910961Y-40450000I1041130J1079837D01*
G01*
X101197665Y-38291392D02*
G75*
G02X104430000Y-38134484I1672335J-1078608D01*
G01*
X101197665Y-40448608D02*
G75*
G03X104430000Y-40605516I1672335J1078608D01*
G01*
X101850000Y-34140000D02*
X101850000Y-31900000D01*
X101610000Y-34140000D02*
X101610000Y-31900000D01*
X101730000Y-34140000D02*
X101730000Y-31900000D01*
X97560000Y-33020000D02*
X98210000Y-33020000D01*
X103100000Y-33020000D02*
X102450000Y-33020000D01*
X98210000Y-34140000D02*
X102450000Y-34140000D01*
X98210000Y-31900000D02*
X98210000Y-34140000D01*
X102450000Y-31900000D02*
X98210000Y-31900000D01*
X102450000Y-34140000D02*
X102450000Y-31900000D01*
X121125000Y-45220000D02*
X120500000Y-45220000D01*
X123340000Y-45220000D02*
X122715000Y-45220000D01*
X121125000Y-41180000D02*
X120500000Y-41180000D01*
X123340000Y-41180000D02*
X122715000Y-41180000D01*
X120500000Y-41180000D02*
X120500000Y-45220000D01*
X123340000Y-41180000D02*
X123340000Y-45220000D01*
D11*
X124186666Y-49192380D02*
X124186666Y-49906666D01*
X124139047Y-50049523D01*
X124043809Y-50144761D01*
X123900952Y-50192380D01*
X123805714Y-50192380D01*
X124567619Y-49192380D02*
X125186666Y-49192380D01*
X124853333Y-49573333D01*
X124996190Y-49573333D01*
X125091428Y-49620952D01*
X125139047Y-49668571D01*
X125186666Y-49763809D01*
X125186666Y-50001904D01*
X125139047Y-50097142D01*
X125091428Y-50144761D01*
X124996190Y-50192380D01*
X124710476Y-50192380D01*
X124615238Y-50144761D01*
X124567619Y-50097142D01*
X105076666Y-46652380D02*
X105076666Y-47366666D01*
X105029047Y-47509523D01*
X104933809Y-47604761D01*
X104790952Y-47652380D01*
X104695714Y-47652380D01*
X106076666Y-47652380D02*
X105505238Y-47652380D01*
X105790952Y-47652380D02*
X105790952Y-46652380D01*
X105695714Y-46795238D01*
X105600476Y-46890476D01*
X105505238Y-46938095D01*
X108222380Y-36996666D02*
X107746190Y-37330000D01*
X108222380Y-37568095D02*
X107222380Y-37568095D01*
X107222380Y-37187142D01*
X107270000Y-37091904D01*
X107317619Y-37044285D01*
X107412857Y-36996666D01*
X107555714Y-36996666D01*
X107650952Y-37044285D01*
X107698571Y-37091904D01*
X107746190Y-37187142D01*
X107746190Y-37568095D01*
X107222380Y-36663333D02*
X107222380Y-36044285D01*
X107603333Y-36377619D01*
X107603333Y-36234761D01*
X107650952Y-36139523D01*
X107698571Y-36091904D01*
X107793809Y-36044285D01*
X108031904Y-36044285D01*
X108127142Y-36091904D01*
X108174761Y-36139523D01*
X108222380Y-36234761D01*
X108222380Y-36520476D01*
X108174761Y-36615714D01*
X108127142Y-36663333D01*
X115842380Y-36996666D02*
X115366190Y-37330000D01*
X115842380Y-37568095D02*
X114842380Y-37568095D01*
X114842380Y-37187142D01*
X114890000Y-37091904D01*
X114937619Y-37044285D01*
X115032857Y-36996666D01*
X115175714Y-36996666D01*
X115270952Y-37044285D01*
X115318571Y-37091904D01*
X115366190Y-37187142D01*
X115366190Y-37568095D01*
X114937619Y-36615714D02*
X114890000Y-36568095D01*
X114842380Y-36472857D01*
X114842380Y-36234761D01*
X114890000Y-36139523D01*
X114937619Y-36091904D01*
X115032857Y-36044285D01*
X115128095Y-36044285D01*
X115270952Y-36091904D01*
X115842380Y-36663333D01*
X115842380Y-36044285D01*
X112032380Y-36996666D02*
X111556190Y-37330000D01*
X112032380Y-37568095D02*
X111032380Y-37568095D01*
X111032380Y-37187142D01*
X111080000Y-37091904D01*
X111127619Y-37044285D01*
X111222857Y-36996666D01*
X111365714Y-36996666D01*
X111460952Y-37044285D01*
X111508571Y-37091904D01*
X111556190Y-37187142D01*
X111556190Y-37568095D01*
X112032380Y-36044285D02*
X112032380Y-36615714D01*
X112032380Y-36330000D02*
X111032380Y-36330000D01*
X111175238Y-36425238D01*
X111270476Y-36520476D01*
X111318095Y-36615714D01*
X89336666Y-31412380D02*
X89336666Y-32126666D01*
X89289047Y-32269523D01*
X89193809Y-32364761D01*
X89050952Y-32412380D01*
X88955714Y-32412380D01*
X89812857Y-32412380D02*
X89812857Y-31412380D01*
X90193809Y-31412380D01*
X90289047Y-31460000D01*
X90336666Y-31507619D01*
X90384285Y-31602857D01*
X90384285Y-31745714D01*
X90336666Y-31840952D01*
X90289047Y-31888571D01*
X90193809Y-31936190D01*
X89812857Y-31936190D01*
X90765238Y-31507619D02*
X90812857Y-31460000D01*
X90908095Y-31412380D01*
X91146190Y-31412380D01*
X91241428Y-31460000D01*
X91289047Y-31507619D01*
X91336666Y-31602857D01*
X91336666Y-31698095D01*
X91289047Y-31840952D01*
X90717619Y-32412380D01*
X91336666Y-32412380D01*
X82986666Y-31412380D02*
X82986666Y-32126666D01*
X82939047Y-32269523D01*
X82843809Y-32364761D01*
X82700952Y-32412380D01*
X82605714Y-32412380D01*
X83462857Y-32412380D02*
X83462857Y-31412380D01*
X83843809Y-31412380D01*
X83939047Y-31460000D01*
X83986666Y-31507619D01*
X84034285Y-31602857D01*
X84034285Y-31745714D01*
X83986666Y-31840952D01*
X83939047Y-31888571D01*
X83843809Y-31936190D01*
X83462857Y-31936190D01*
X84986666Y-32412380D02*
X84415238Y-32412380D01*
X84700952Y-32412380D02*
X84700952Y-31412380D01*
X84605714Y-31555238D01*
X84510476Y-31650476D01*
X84415238Y-31698095D01*
X83486666Y-40302380D02*
X83486666Y-41016666D01*
X83439047Y-41159523D01*
X83343809Y-41254761D01*
X83200952Y-41302380D01*
X83105714Y-41302380D01*
X84391428Y-40635714D02*
X84391428Y-41302380D01*
X84153333Y-40254761D02*
X83915238Y-40969047D01*
X84534285Y-40969047D01*
X84046666Y-49192380D02*
X84046666Y-49906666D01*
X83999047Y-50049523D01*
X83903809Y-50144761D01*
X83760952Y-50192380D01*
X83665714Y-50192380D01*
X84475238Y-49287619D02*
X84522857Y-49240000D01*
X84618095Y-49192380D01*
X84856190Y-49192380D01*
X84951428Y-49240000D01*
X84999047Y-49287619D01*
X85046666Y-49382857D01*
X85046666Y-49478095D01*
X84999047Y-49620952D01*
X84427619Y-50192380D01*
X85046666Y-50192380D01*
X102131904Y-42782380D02*
X102131904Y-41782380D01*
X102370000Y-41782380D01*
X102512857Y-41830000D01*
X102608095Y-41925238D01*
X102655714Y-42020476D01*
X102703333Y-42210952D01*
X102703333Y-42353809D01*
X102655714Y-42544285D01*
X102608095Y-42639523D01*
X102512857Y-42734761D01*
X102370000Y-42782380D01*
X102131904Y-42782380D01*
X103084285Y-41877619D02*
X103131904Y-41830000D01*
X103227142Y-41782380D01*
X103465238Y-41782380D01*
X103560476Y-41830000D01*
X103608095Y-41877619D01*
X103655714Y-41972857D01*
X103655714Y-42068095D01*
X103608095Y-42210952D01*
X103036666Y-42782380D01*
X103655714Y-42782380D01*
X99591904Y-35592380D02*
X99591904Y-34592380D01*
X99830000Y-34592380D01*
X99972857Y-34640000D01*
X100068095Y-34735238D01*
X100115714Y-34830476D01*
X100163333Y-35020952D01*
X100163333Y-35163809D01*
X100115714Y-35354285D01*
X100068095Y-35449523D01*
X99972857Y-35544761D01*
X99830000Y-35592380D01*
X99591904Y-35592380D01*
X101115714Y-35592380D02*
X100544285Y-35592380D01*
X100830000Y-35592380D02*
X100830000Y-34592380D01*
X100734761Y-34735238D01*
X100639523Y-34830476D01*
X100544285Y-34878095D01*
X103878095Y-35272380D02*
X103878095Y-34272380D01*
X104449523Y-35272380D02*
X104020952Y-34700952D01*
X104449523Y-34272380D02*
X103878095Y-34843809D01*
X124827142Y-43366666D02*
X124874761Y-43414285D01*
X124922380Y-43557142D01*
X124922380Y-43652380D01*
X124874761Y-43795238D01*
X124779523Y-43890476D01*
X124684285Y-43938095D01*
X124493809Y-43985714D01*
X124350952Y-43985714D01*
X124160476Y-43938095D01*
X124065238Y-43890476D01*
X123970000Y-43795238D01*
X123922380Y-43652380D01*
X123922380Y-43557142D01*
X123970000Y-43414285D01*
X124017619Y-43366666D01*
X124922380Y-42414285D02*
X124922380Y-42985714D01*
X124922380Y-42700000D02*
X123922380Y-42700000D01*
X124065238Y-42795238D01*
X124160476Y-42890476D01*
X124208095Y-42985714D01*
M02*
